<?xml version="1.0" encoding="UTF-8" standalone="no"?>
<svg
   xmlns:dc="http://purl.org/dc/elements/1.1/"
   xmlns:cc="http://creativecommons.org/ns#"
   xmlns:rdf="http://www.w3.org/1999/02/22-rdf-syntax-ns#"
   xmlns:svg="http://www.w3.org/2000/svg"
   xmlns="http://www.w3.org/2000/svg"
   id="svg2"
   style="fill-rule:evenodd"
   width="24"
   height="24"
   version="1.1"
   viewBox="0 0 24 24">
  <metadata
     id="metadata10">
    <rdf:RDF>
      <cc:Work
         rdf:about="">
        <dc:format>image/svg+xml</dc:format>
        <dc:type
           rdf:resource="http://purl.org/dc/dcmitype/StillImage" />
        <dc:title></dc:title>
      </cc:Work>
    </rdf:RDF>
  </metadata>
  <defs
     id="defs8" />
  <path
     id="path4"
     d="M 12,24 C 18.62742,24 24,18.62742 24,12 24,5.37258 18.62742,0 12,0 5.37258,0 0,5.37258 0,12 0,18.62742 5.37258,24 12,24 Z M 11.257028,6 C 10.838933,6 10.5,6.332513 10.5,6.757028 l 0,1.485944 C 10.5,8.661068 10.832513,9 11.257028,9 l 1.485945,0 C 13.161067,9 13.5,8.667487 13.5,8.242972 l 0,-1.485944 C 13.5,6.338933 13.167488,6 12.742973,6 l -1.485945,0 z m 0,5.25 C 10.838933,11.25 10.5,11.591745 10.5,11.99655 l 0,6.0069 c 0,0.412305 0.332513,0.74655 0.757028,0.74655 l 1.485945,0 C 13.161067,18.75 13.5,18.408255 13.5,18.00345 l 0,-6.0069 C 13.5,11.584237 13.167488,11.25 12.742973,11.25 l -1.485945,0 z" />
</svg>
