<?xml version="1.0" encoding="UTF-8" standalone="no"?>
<svg width="84px" height="228px" viewBox="0 0 84 228" version="1.1" xmlns="http://www.w3.org/2000/svg" xmlns:xlink="http://www.w3.org/1999/xlink">
    <!-- Generator: Sketch 39.1 (31720) - http://www.bohemiancoding.com/sketch -->
    <title>Markers</title>
    <desc>Created with Sketch.</desc>
    <defs>
        <path d="M21,65 C30.1304348,65.0000021 42,32.9860509 42,21.25 C42,9.51394907 32.5979797,2.98427949e-13 21,2.98427949e-13 C9.40202025,2.98427949e-13 0,9.51394907 0,21.25 C0,32.9860509 11.8695652,64.9999979 21,65 Z" id="path-1"></path>
        <mask id="mask-2" maskContentUnits="userSpaceOnUse" maskUnits="objectBoundingBox" x="0" y="0" width="42" height="65" fill="white">
            <use xlink:href="#path-1"></use>
        </mask>
        <path d="M21,65 C30.1304348,65.0000021 42,32.9860509 42,21.25 C42,9.51394907 32.5979797,2.98427949e-13 21,2.98427949e-13 C9.40202025,2.98427949e-13 0,9.51394907 0,21.25 C0,32.9860509 11.8695652,64.9999979 21,65 Z" id="path-3"></path>
        <mask id="mask-4" maskContentUnits="userSpaceOnUse" maskUnits="objectBoundingBox" x="0" y="0" width="42" height="65" fill="white">
            <use xlink:href="#path-3"></use>
        </mask>
        <path d="M21,65 C30.1304348,65.0000021 42,32.9860509 42,21.25 C42,9.51394907 32.5979797,2.98427949e-13 21,2.98427949e-13 C9.40202025,2.98427949e-13 0,9.51394907 0,21.25 C0,32.9860509 11.8695652,64.9999979 21,65 Z" id="path-5"></path>
        <mask id="mask-6" maskContentUnits="userSpaceOnUse" maskUnits="objectBoundingBox" x="0" y="0" width="42" height="65" fill="white">
            <use xlink:href="#path-5"></use>
        </mask>
        <path d="M21,65 C30.1304348,65.0000021 42,32.9860509 42,21.25 C42,9.51394907 32.5979797,2.98427949e-13 21,2.98427949e-13 C9.40202025,2.98427949e-13 0,9.51394907 0,21.25 C0,32.9860509 11.8695652,64.9999979 21,65 Z" id="path-7"></path>
        <mask id="mask-8" maskContentUnits="userSpaceOnUse" maskUnits="objectBoundingBox" x="0" y="0" width="42" height="65" fill="white">
            <use xlink:href="#path-7"></use>
        </mask>
        <path d="M21,65 C30.1304348,65.0000021 42,32.9860509 42,21.25 C42,9.51394907 32.5979797,1.57555128e-13 21,1.57555128e-13 C9.40202025,1.57555128e-13 0,9.51394907 0,21.25 C0,32.9860509 11.8695652,64.9999979 21,65 Z" id="path-9"></path>
        <mask id="mask-10" maskContentUnits="userSpaceOnUse" maskUnits="objectBoundingBox" x="0" y="0" width="42" height="65" fill="white">
            <use xlink:href="#path-9"></use>
        </mask>
        <path d="M21,65 C30.1304348,65.0000021 42,32.9860509 42,21.25 C42,9.51394907 32.5979797,1.57555128e-13 21,1.57555128e-13 C9.40202025,1.57555128e-13 0,9.51394907 0,21.25 C0,32.9860509 11.8695652,64.9999979 21,65 Z" id="path-11"></path>
        <mask id="mask-12" maskContentUnits="userSpaceOnUse" maskUnits="objectBoundingBox" x="0" y="0" width="42" height="65" fill="white">
            <use xlink:href="#path-11"></use>
        </mask>
    </defs>
    <g id="Page-1" stroke="none" stroke-width="1" fill="none" fill-rule="evenodd">
        <g id="Markers">
            <g id="Bus-stop-(clicked-&amp;-hover)" transform="translate(42.000000, 152.000000)">
                <g id="Group-2">
                    <g id="bus-stop-copy-16">
                        <use id="Oval" stroke="#071017" mask="url(#mask-2)" fill="#F97009" xlink:href="#path-1"></use>
                        <path d="M20,29 L15.0068455,29 C13.9015196,29 13,28.1104058 13,27.0066023 L13,10.9933977 C13,9.88928839 13.9008128,9 15.0068455,9 L26.9931545,9 C28.0984804,9 29,9.88959423 29,10.9933977 L29,27.0066023 C29,28.1107116 28.0991872,29 26.9931545,29 L22,29 L22,50.7999878 C22,51.3522725 21.5522847,51.7999878 21,51.7999878 C20.4477153,51.7999878 20,51.3522725 20,50.7999878 L20,29 Z M21.0442941,27.0009634 C24.0288972,27.001834 27,27.0034837 27,27.0066023 C27,27.0066023 26.9998286,11 26.9931545,11 C26.9931545,11 15,10.9996633 15,10.9933977 C15,10.9933977 15.0001714,27 15.0068455,27 C15.0068455,27 17.9737967,27.0000833 20.9562936,27.000938 C20.9707846,27.0003148 20.9853555,27 21,27 C21.0148424,27 21.0296094,27.0003234 21.0442941,27.0009634 Z M25,17 C25.5522847,17 26,16.5522847 26,16 C26,15.4477153 25.5522847,15 25,15 L17,15 C16.4477153,15 16,15.4477153 16,16 C16,16.5522847 16.4477153,17 17,17 L25,17 Z M20,21 C20.5522847,21 21,20.5522847 21,20 C21,19.4477153 20.5522847,19 20,19 L17,19 C16.4477153,19 16,19.4477153 16,20 C16,20.5522847 16.4477153,21 17,21 L20,21 Z M25,21 C25.5522847,21 26,20.5522847 26,20 C26,19.4477153 25.5522847,19 25,19 L23,19 C22.4477153,19 22,19.4477153 22,20 C22,20.5522847 22.4477153,21 23,21 L25,21 Z M25,25 C25.5522847,25 26,24.5522847 26,24 C26,23.4477153 25.5522847,23 25,23 L21,23 C20.4477153,23 20,23.4477153 20,24 C20,24.5522847 20.4477153,25 21,25 L25,25 Z M18,25 C18.5522847,25 19,24.5522847 19,24 C19,23.4477153 18.5522847,23 18,23 L17,23 C16.4477153,23 16,23.4477153 16,24 C16,24.5522847 16.4477153,25 17,25 L18,25 Z M17.7071068,13.7071068 C18.0976311,13.3165825 18.0976311,12.6834175 17.7071068,12.2928932 C17.3165825,11.9023689 16.6834175,11.9023689 16.2928932,12.2928932 C15.9023689,12.6834175 15.9023689,13.3165825 16.2928932,13.7071068 C16.6834175,14.0976311 17.3165825,14.0976311 17.7071068,13.7071068 Z" id="Combined-Shape" fill="#FFFFFF"></path>
                    </g>
                    <ellipse id="Oval-2-Copy-3" fill="#000000" cx="21" cy="73" rx="10" ry="3"></ellipse>
                </g>
            </g>
            <g id="Bus-stop-(clicked)" transform="translate(0.000000, 152.000000)">
                <g id="Group-3">
                    <g id="bus-stop-copy-16">
                        <use id="Oval" stroke="#071017" mask="url(#mask-4)" fill="#F97009" xlink:href="#path-3"></use>
                        <path d="M20,29 L15.0068455,29 C13.9015196,29 13,28.1104058 13,27.0066023 L13,10.9933977 C13,9.88928839 13.9008128,9 15.0068455,9 L26.9931545,9 C28.0984804,9 29,9.88959423 29,10.9933977 L29,27.0066023 C29,28.1107116 28.0991872,29 26.9931545,29 L22,29 L22,50.7999878 C22,51.3522725 21.5522847,51.7999878 21,51.7999878 C20.4477153,51.7999878 20,51.3522725 20,50.7999878 L20,29 Z M21.0442941,27.0009634 C24.0288972,27.001834 27,27.0034837 27,27.0066023 C27,27.0066023 26.9998286,11 26.9931545,11 C26.9931545,11 15,10.9996633 15,10.9933977 C15,10.9933977 15.0001714,27 15.0068455,27 C15.0068455,27 17.9737967,27.0000833 20.9562936,27.000938 C20.9707846,27.0003148 20.9853555,27 21,27 C21.0148424,27 21.0296094,27.0003234 21.0442941,27.0009634 Z M25,17 C25.5522847,17 26,16.5522847 26,16 C26,15.4477153 25.5522847,15 25,15 L17,15 C16.4477153,15 16,15.4477153 16,16 C16,16.5522847 16.4477153,17 17,17 L25,17 Z M20,21 C20.5522847,21 21,20.5522847 21,20 C21,19.4477153 20.5522847,19 20,19 L17,19 C16.4477153,19 16,19.4477153 16,20 C16,20.5522847 16.4477153,21 17,21 L20,21 Z M25,21 C25.5522847,21 26,20.5522847 26,20 C26,19.4477153 25.5522847,19 25,19 L23,19 C22.4477153,19 22,19.4477153 22,20 C22,20.5522847 22.4477153,21 23,21 L25,21 Z M25,25 C25.5522847,25 26,24.5522847 26,24 C26,23.4477153 25.5522847,23 25,23 L21,23 C20.4477153,23 20,23.4477153 20,24 C20,24.5522847 20.4477153,25 21,25 L25,25 Z M18,25 C18.5522847,25 19,24.5522847 19,24 C19,23.4477153 18.5522847,23 18,23 L17,23 C16.4477153,23 16,23.4477153 16,24 C16,24.5522847 16.4477153,25 17,25 L18,25 Z M17.7071068,13.7071068 C18.0976311,13.3165825 18.0976311,12.6834175 17.7071068,12.2928932 C17.3165825,11.9023689 16.6834175,11.9023689 16.2928932,12.2928932 C15.9023689,12.6834175 15.9023689,13.3165825 16.2928932,13.7071068 C16.6834175,14.0976311 17.3165825,14.0976311 17.7071068,13.7071068 Z" id="Combined-Shape" fill="#011B2E"></path>
                    </g>
                    <ellipse id="Oval-2-Copy-2" fill="#000000" cx="21" cy="73" rx="10" ry="3"></ellipse>
                </g>
            </g>
            <g id="Bus-stop-(hover)" transform="translate(42.000000, 76.000000)">
                <g id="Group">
                    <g id="bus-stop-copy-17">
                        <use id="Oval" stroke="#071017" mask="url(#mask-6)" fill="#0490A1" xlink:href="#path-5"></use>
                        <path d="M20,29 L15.0068455,29 C13.9015196,29 13,28.1104058 13,27.0066023 L13,10.9933977 C13,9.88928839 13.9008128,9 15.0068455,9 L26.9931545,9 C28.0984804,9 29,9.88959423 29,10.9933977 L29,27.0066023 C29,28.1107116 28.0991872,29 26.9931545,29 L22,29 L22,50.7999878 C22,51.3522725 21.5522847,51.7999878 21,51.7999878 C20.4477153,51.7999878 20,51.3522725 20,50.7999878 L20,29 Z M21.0442941,27.0009634 C24.0288972,27.001834 27,27.0034837 27,27.0066023 C27,27.0066023 26.9998286,11 26.9931545,11 C26.9931545,11 15,10.9996633 15,10.9933977 C15,10.9933977 15.0001714,27 15.0068455,27 C15.0068455,27 17.9737967,27.0000833 20.9562936,27.000938 C20.9707846,27.0003148 20.9853555,27 21,27 C21.0148424,27 21.0296094,27.0003234 21.0442941,27.0009634 Z M25,17 C25.5522847,17 26,16.5522847 26,16 C26,15.4477153 25.5522847,15 25,15 L17,15 C16.4477153,15 16,15.4477153 16,16 C16,16.5522847 16.4477153,17 17,17 L25,17 Z M20,21 C20.5522847,21 21,20.5522847 21,20 C21,19.4477153 20.5522847,19 20,19 L17,19 C16.4477153,19 16,19.4477153 16,20 C16,20.5522847 16.4477153,21 17,21 L20,21 Z M25,21 C25.5522847,21 26,20.5522847 26,20 C26,19.4477153 25.5522847,19 25,19 L23,19 C22.4477153,19 22,19.4477153 22,20 C22,20.5522847 22.4477153,21 23,21 L25,21 Z M25,25 C25.5522847,25 26,24.5522847 26,24 C26,23.4477153 25.5522847,23 25,23 L21,23 C20.4477153,23 20,23.4477153 20,24 C20,24.5522847 20.4477153,25 21,25 L25,25 Z M18,25 C18.5522847,25 19,24.5522847 19,24 C19,23.4477153 18.5522847,23 18,23 L17,23 C16.4477153,23 16,23.4477153 16,24 C16,24.5522847 16.4477153,25 17,25 L18,25 Z M17.7071068,13.7071068 C18.0976311,13.3165825 18.0976311,12.6834175 17.7071068,12.2928932 C17.3165825,11.9023689 16.6834175,11.9023689 16.2928932,12.2928932 C15.9023689,12.6834175 15.9023689,13.3165825 16.2928932,13.7071068 C16.6834175,14.0976311 17.3165825,14.0976311 17.7071068,13.7071068 Z" id="Combined-Shape" fill="#FFFFFF"></path>
                    </g>
                    <ellipse id="Oval-2-Copy-4" fill="#000000" cx="21" cy="73" rx="10" ry="3"></ellipse>
                </g>
            </g>
            <g id="You-(hover)" transform="translate(42.000000, 0.000000)">
                <g id="Group-4">
                    <g id="you-copy-2">
                        <use id="Oval-Copy" stroke="#071017" mask="url(#mask-8)" fill="#F97009" xlink:href="#path-7"></use>
                        <path d="M25.8522862,35.5652174 L27.4669605,35.5652174 C28.0178467,35.5652174 28.4929162,35.1190375 28.5198584,34.5686467 L29.0309877,24.1270054 C29.0581071,23.5729953 28.6952257,22.9107969 28.2208651,22.6398598 C28.2208651,22.6398598 25.6884666,20.8695652 21.1667274,20.8695652 C16.6449883,20.8695652 14.1233759,22.6342774 14.1233759,22.6342774 C13.6395915,22.8969975 13.2755249,23.5766147 13.3024671,24.1270054 L13.8135964,34.5686467 C13.8407158,35.1226569 14.3119371,35.5652174 14.8664944,35.5652174 L16.4811706,35.5652174 L17.2476439,47.0101825 C17.2835932,47.5469771 17.764948,48 18.321304,48 L24.0121531,48 C24.5719331,48 25.049203,47.5568436 25.0858131,47.0101825 L25.8522862,35.5652174 Z M21.1667274,20.3043478 C24.2883369,20.3043478 26.8189014,17.7737834 26.8189014,14.6521739 C26.8189014,11.5305645 24.2883369,9 21.1667274,9 C18.045118,9 15.5145535,11.5305645 15.5145535,14.6521739 C15.5145535,17.7737834 18.045118,20.3043478 21.1667274,20.3043478 Z" id="Combined-Shape-Copy-2" stroke="#FFFFFF" stroke-width="2"></path>
                    </g>
                    <ellipse id="Oval-2-Copy" fill="#000000" cx="21" cy="73" rx="10" ry="3"></ellipse>
                </g>
            </g>
            <g id="you">
                <g id="Group">
                    <ellipse id="Oval-2-Copy" fill="#000000" cx="21" cy="73" rx="10" ry="3"></ellipse>
                    <g id="Group-6">
                        <use id="Oval-Copy" stroke="#071017" mask="url(#mask-10)" fill="#F97009" xlink:href="#path-9"></use>
                        <path d="M25.8522862,35.5652174 L27.4669605,35.5652174 C28.0178467,35.5652174 28.4929162,35.1190375 28.5198584,34.5686467 L29.0309877,24.1270054 C29.0581071,23.5729953 28.6952257,22.9107969 28.2208651,22.6398598 C28.2208651,22.6398598 25.6884666,20.8695652 21.1667274,20.8695652 C16.6449883,20.8695652 14.1233759,22.6342774 14.1233759,22.6342774 C13.6395915,22.8969975 13.2755249,23.5766147 13.3024671,24.1270054 L13.8135964,34.5686467 C13.8407158,35.1226569 14.3119371,35.5652174 14.8664944,35.5652174 L16.4811706,35.5652174 L17.2476439,47.0101825 C17.2835932,47.5469771 17.764948,48 18.321304,48 L24.0121531,48 C24.5719331,48 25.049203,47.5568436 25.0858131,47.0101825 L25.8522862,35.5652174 Z M21.1667274,20.3043478 C24.2883369,20.3043478 26.8189014,17.7737834 26.8189014,14.6521739 C26.8189014,11.5305645 24.2883369,9 21.1667274,9 C18.045118,9 15.5145535,11.5305645 15.5145535,14.6521739 C15.5145535,17.7737834 18.045118,20.3043478 21.1667274,20.3043478 Z" id="Combined-Shape-Copy-2" stroke="#011B2E" stroke-width="2"></path>
                    </g>
                </g>
            </g>
            <g id="bus-stop" transform="translate(0.000000, 76.000000)">
                <g id="Group">
                    <ellipse id="Oval-2" fill="#000000" cx="21" cy="73" rx="10" ry="3"></ellipse>
                    <g id="Group-7">
                        <use id="Oval" stroke="#071017" mask="url(#mask-12)" fill="#0390A1" xlink:href="#path-11"></use>
                        <path d="M20,29 L15.0068455,29 C13.9015196,29 13,28.1104058 13,27.0066023 L13,10.9933977 C13,9.88928839 13.9008128,9 15.0068455,9 L26.9931545,9 C28.0984804,9 29,9.88959423 29,10.9933977 L29,27.0066023 C29,28.1107116 28.0991872,29 26.9931545,29 L22,29 L22,50.7999878 C22,51.3522725 21.5522847,51.7999878 21,51.7999878 C20.4477153,51.7999878 20,51.3522725 20,50.7999878 L20,29 Z M21.0442941,27.0009634 C24.0288972,27.001834 27,27.0034837 27,27.0066023 C27,27.0066023 26.9998286,11 26.9931545,11 C26.9931545,11 15,10.9996633 15,10.9933977 C15,10.9933977 15.0001714,27 15.0068455,27 C15.0068455,27 17.9737967,27.0000833 20.9562936,27.000938 C20.9707846,27.0003148 20.9853555,27 21,27 C21.0148424,27 21.0296094,27.0003234 21.0442941,27.0009634 Z M25,17 C25.5522847,17 26,16.5522847 26,16 C26,15.4477153 25.5522847,15 25,15 L17,15 C16.4477153,15 16,15.4477153 16,16 C16,16.5522847 16.4477153,17 17,17 L25,17 Z M20,21 C20.5522847,21 21,20.5522847 21,20 C21,19.4477153 20.5522847,19 20,19 L17,19 C16.4477153,19 16,19.4477153 16,20 C16,20.5522847 16.4477153,21 17,21 L20,21 Z M25,21 C25.5522847,21 26,20.5522847 26,20 C26,19.4477153 25.5522847,19 25,19 L23,19 C22.4477153,19 22,19.4477153 22,20 C22,20.5522847 22.4477153,21 23,21 L25,21 Z M25,25 C25.5522847,25 26,24.5522847 26,24 C26,23.4477153 25.5522847,23 25,23 L21,23 C20.4477153,23 20,23.4477153 20,24 C20,24.5522847 20.4477153,25 21,25 L25,25 Z M18,25 C18.5522847,25 19,24.5522847 19,24 C19,23.4477153 18.5522847,23 18,23 L17,23 C16.4477153,23 16,23.4477153 16,24 C16,24.5522847 16.4477153,25 17,25 L18,25 Z M17.7071068,13.7071068 C18.0976311,13.3165825 18.0976311,12.6834175 17.7071068,12.2928932 C17.3165825,11.9023689 16.6834175,11.9023689 16.2928932,12.2928932 C15.9023689,12.6834175 15.9023689,13.3165825 16.2928932,13.7071068 C16.6834175,14.0976311 17.3165825,14.0976311 17.7071068,13.7071068 Z" id="Combined-Shape" fill="#011B2E"></path>
                    </g>
                </g>
            </g>
        </g>
    </g>
</svg>