<?xml version="1.0" encoding="UTF-8" standalone="no"?>
<!-- Created with Inkscape (http://www.inkscape.org/) -->

<svg
   xmlns:dc="http://purl.org/dc/elements/1.1/"
   xmlns:cc="http://creativecommons.org/ns#"
   xmlns:rdf="http://www.w3.org/1999/02/22-rdf-syntax-ns#"
   xmlns:svg="http://www.w3.org/2000/svg"
   xmlns="http://www.w3.org/2000/svg"
   xmlns:sodipodi="http://sodipodi.sourceforge.net/DTD/sodipodi-0.dtd"
   xmlns:inkscape="http://www.inkscape.org/namespaces/inkscape"
   width="33.866665mm"
   height="14.520221mm"
   viewBox="0 0 119.99999 51.449601"
   id="svg2"
   version="1.1"
   inkscape:version="0.91 r13725"
   inkscape:export-filename="C:\Users\Derek\Documents\GitHub\accurate-tracker\icons\route_pieces.png"
   inkscape:export-xdpi="90"
   inkscape:export-ydpi="90"
   sodipodi:docname="route_pieces.svg">
  <defs
     id="defs4" />
  <sodipodi:namedview
     id="base"
     pagecolor="#ffffff"
     bordercolor="#666666"
     borderopacity="1.0"
     inkscape:pageopacity="0"
     inkscape:pageshadow="2"
     inkscape:zoom="3.959798"
     inkscape:cx="32.914137"
     inkscape:cy="19.145735"
     inkscape:document-units="px"
     inkscape:current-layer="layer1"
     showgrid="false"
     fit-margin-top="0"
     fit-margin-left="0"
     fit-margin-right="0"
     fit-margin-bottom="0"
     inkscape:window-width="1366"
     inkscape:window-height="705"
     inkscape:window-x="-8"
     inkscape:window-y="-8"
     inkscape:window-maximized="1" />
  <metadata
     id="metadata7">
    <rdf:RDF>
      <cc:Work
         rdf:about="">
        <dc:format>image/svg+xml</dc:format>
        <dc:type
           rdf:resource="http://purl.org/dc/dcmitype/StillImage" />
        <dc:title></dc:title>
      </cc:Work>
    </rdf:RDF>
  </metadata>
  <g
     inkscape:label="Layer 1"
     inkscape:groupmode="layer"
     id="layer1"
     transform="translate(0,-1000.9126)">
    <rect
       style="opacity:1;fill:#ffebb8;fill-opacity:1;fill-rule:nonzero;stroke:none;stroke-width:10;stroke-linecap:round;stroke-linejoin:round;stroke-miterlimit:4;stroke-dasharray:none;stroke-dashoffset:0;stroke-opacity:1"
       id="rect4197"
       width="55.485271"
       height="60.357151"
       x="-90.714279"
       y="999.50507" />
    <path
       inkscape:export-xdpi="89.213524"
       inkscape:export-ydpi="89.213524"
       style="opacity:1;fill:#ffffff;fill-opacity:1;fill-rule:nonzero;stroke:none;stroke-width:3;stroke-linecap:round;stroke-linejoin:round;stroke-miterlimit:4;stroke-dasharray:none;stroke-dashoffset:0;stroke-opacity:1"
       d="m 5.0003956,1000.9126 0,17.0769 C 2.017828,1019.7256 0,1022.9568 0,1026.6374 c 0,3.6806 2.017828,6.9118 5.0003956,8.6478 l 0,17.077 10.0000004,0 0,-17.0777 C 17.982451,1033.5483 20,1030.3176 20,1026.6374 c 0,-3.6802 -2.017549,-6.9109 -4.999604,-8.6471 l 0,-17.0777 -10.0000004,0 z m 4.999604,19.7828 c 3.3057624,0 5.9419834,2.6362 5.9419834,5.942 0,3.3058 -2.636221,5.942 -5.9419834,5.942 -3.305762,0 -5.941983,-2.6362 -5.941983,-5.942 0,-3.3058 2.636221,-5.942 5.941983,-5.942 z"
       id="rect4136"
       inkscape:connector-curvature="0" />
    <path
       inkscape:connector-curvature="0"
       style="opacity:1;fill:#ffffff;fill-opacity:0.50196078;fill-rule:nonzero;stroke:none;stroke-width:3;stroke-linecap:round;stroke-linejoin:round;stroke-miterlimit:4;stroke-dasharray:none;stroke-dashoffset:0;stroke-opacity:1"
       d="m 25.00039,1000.9126 0,17.0769 C 22.01783,1019.7256 20,1022.9568 20,1026.6374 c 0,3.6806 2.01783,6.9118 5.00039,8.6478 l 0,17.077 10.00001,0 0,-17.0778 c 2.98205,-1.7361 4.9996,-4.9668 4.9996,-8.647 0,-3.6802 -2.01755,-6.9109 -4.9996,-8.6471 l 0,-17.0777 -10.00001,0 z M 30,1020.6954 c 3.30576,0 5.94198,2.6362 5.94198,5.942 0,3.3057 -2.63622,5.942 -5.94198,5.942 -3.30576,0 -5.94198,-2.6363 -5.94198,-5.942 0,-3.3058 2.63622,-5.942 5.94198,-5.942 z"
       id="rect4136-1"
       inkscape:export-xdpi="89.213524"
       inkscape:export-ydpi="89.213524" />
    <path
       inkscape:connector-curvature="0"
       style="opacity:1;fill:#ffffff;fill-opacity:1;fill-rule:nonzero;stroke:none;stroke-width:3;stroke-linecap:round;stroke-linejoin:round;stroke-miterlimit:4;stroke-dasharray:none;stroke-dashoffset:0;stroke-opacity:1"
       d="m -66.122709,1003.3735 0,19.8262 9.99988,0 0,-19.8262 -9.99988,0 z m 0,31.6625 0,19.7866 9.99988,0 0,-19.7866 -9.99988,0 z"
       id="rect4136-5" />
    <path
       inkscape:connector-curvature="0"
       style="opacity:1;fill:none;fill-opacity:1;fill-rule:nonzero;stroke:#ffffff;stroke-width:4.057971;stroke-linecap:round;stroke-linejoin:round;stroke-miterlimit:4;stroke-dasharray:none;stroke-dashoffset:0;stroke-opacity:1"
       d="m -53.151925,1029.0983 a 7.9710145,7.9710145 0 0 1 -7.971014,7.971 7.9710145,7.9710145 0 0 1 -7.97101,-7.971 7.9710145,7.9710145 0 0 1 7.97101,-7.971 7.9710145,7.9710145 0 0 1 7.971014,7.971 z"
       id="path4138" />
    <path
       style="opacity:1;fill:#ffffff;fill-opacity:1;fill-rule:nonzero;stroke:none;stroke-width:3;stroke-linecap:round;stroke-linejoin:round;stroke-miterlimit:4;stroke-dasharray:none;stroke-dashoffset:0;stroke-opacity:1"
       d="m 50,1016.6395 c -5.498806,0 -9.99999,4.5012 -10,10 6e-6,3.6787 2.019956,6.902 5,8.6387 l 0,17.084 10,0 0,-17.084 c 2.980044,-1.7367 4.999993,-4.96 5,-8.6387 -1e-5,-5.4988 -4.501192,-10 -10,-10 z m 0,4.0566 c 3.305719,0 5.9414,2.6377 5.941406,5.9434 -6e-6,3.2668 -2.575268,5.8745 -5.826172,5.9356 l -0.230469,0 c -3.250903,-0.061 -5.826166,-2.6688 -5.826172,-5.9356 6e-6,-3.3057 2.635687,-5.9434 5.941407,-5.9434 z"
       id="rect4136-5-0"
       inkscape:connector-curvature="0" />
    <path
       style="opacity:1;fill:#ffffff;fill-opacity:1;fill-rule:nonzero;stroke:none;stroke-width:3;stroke-linecap:round;stroke-linejoin:round;stroke-miterlimit:4;stroke-dasharray:none;stroke-dashoffset:0;stroke-opacity:1"
       d="m 65,1000.9126 0,17.086 c -2.980044,1.7367 -4.999993,4.9619 -5,8.6406 1e-5,5.4989 4.501205,10 10,10 5.498797,0 9.99999,-4.5011 10,-10 -7e-6,-3.6787 -2.019956,-6.9039 -5,-8.6406 l 0,-17.086 -10,0 z m 4.298828,19.8262 1.402344,0 c 2.969159,0.3428 5.242182,2.8326 5.242187,5.9004 -6e-6,3.3058 -2.637627,5.9414 -5.943359,5.9414 -3.305729,0 -5.9414,-2.6356 -5.941406,-5.9414 5e-6,-3.0678 2.271319,-5.5576 5.240234,-5.9004 z"
       id="rect4136-5-5"
       inkscape:connector-curvature="0" />
    <path
       style="opacity:1;fill:#ffffff;fill-opacity:0.50196081;fill-rule:nonzero;stroke:none;stroke-width:3;stroke-linecap:round;stroke-linejoin:round;stroke-miterlimit:4;stroke-dasharray:none;stroke-dashoffset:0;stroke-opacity:1"
       d="m 90,1016.6395 c -5.498806,0 -9.99999,4.5012 -10,10 6e-6,3.6787 2.019956,6.902 5,8.6387 l 0,17.084 10,0 0,-17.084 c 2.980044,-1.7367 4.999989,-4.96 4.999999,-8.6387 -1e-5,-5.4988 -4.501191,-10 -9.999999,-10 z m 0,4.0566 c 3.305719,0 5.9414,2.6377 5.941406,5.9434 -6e-6,3.2668 -2.575268,5.8745 -5.826172,5.9356 l -0.230469,0 c -3.250903,-0.061 -5.826166,-2.6688 -5.826172,-5.9356 6e-6,-3.3057 2.635687,-5.9434 5.941407,-5.9434 z"
       id="rect4136-5-0-4"
       inkscape:connector-curvature="0" />
    <path
       style="opacity:1;fill:#ffffff;fill-opacity:0.50196081;fill-rule:nonzero;stroke:none;stroke-width:3;stroke-linecap:round;stroke-linejoin:round;stroke-miterlimit:4;stroke-dasharray:none;stroke-dashoffset:0;stroke-opacity:1"
       d="m 105,1000.9126 0,17.086 c -2.98004,1.7367 -4.99999,4.9619 -5.000001,8.6406 1.1e-5,5.4989 4.501211,10 10.000001,10 5.4988,0 9.99999,-4.5011 10,-10 -1e-5,-3.6787 -2.01996,-6.9039 -5,-8.6406 l 0,-17.086 -10,0 z m 4.29883,19.8262 1.40234,0 c 2.96916,0.3428 5.24218,2.8326 5.24219,5.9004 -1e-5,3.3058 -2.63763,5.9414 -5.94336,5.9414 -3.30573,0 -5.9414,-2.6356 -5.94141,-5.9414 1e-5,-3.0678 2.27132,-5.5576 5.24024,-5.9004 z"
       id="rect4136-5-5-8"
       inkscape:connector-curvature="0" />
  </g>
</svg>
