<svg>
	<defs>
		<g id="menu">
			<path style="fill-rule:evenodd" d="M 0,3 0,6 24,6 24,3 0,3 Z m 0,7.5 0,3 24,0 0,-3 -24,0 z m 0,7.5 0,3 24,0 0,-3 -24,0 z" />
		</g>
		<g id="arrow-left">
			<path style="fill-rule:evenodd" d="m 6.110913,10.585786 17.192388,0 0,2.828428 -17.192388,0 L 14.696699,22 l -2,2 -12,-12 1.0000003,-1 10.9999997,-11 2,1.9999999 -8.585786,8.5857861 z" />
		</g>
		<g id="close">
			<path style="fill-rule:evenodd" d="M 11.999999,9.0000003 21,0 l 3,3 -9,9 9,9 -3,3 L 11.999999,15.000001 2.9999998,24 -2.7e-7,21 8.9999997,12 -2.7e-7,3 2.9999998,0 11.999999,9.0000003 Z" />
		</g>
		<g id="heart_outline">
			<path d="M 6.9197198,0.91810345 C 3.112866,0.91810345 0,4.0309694 0,7.8378232 0,10.028191 1.025784,11.995978 2.6233836,13.262393 L 2.497306,13.14763 12,23.081897 21.502694,13.14763 21.376616,13.262393 C 22.974226,11.995978 24,10.028191 24,7.8378232 24,4.0309694 20.887134,0.91810345 17.08028,0.91810345 15.076463,0.91810345 13.26667,1.7799294 12,3.1503232 10.73333,1.7799294 8.923537,0.91810345 6.9197198,0.91810345 Z m 0,2.48275855 c 1.7478032,0 3.2423572,1.0006288 3.9698272,2.4536639 L 12,8.0721981 13.110453,5.8545259 c 0.72747,-1.4530351 2.222024,-2.4536639 3.969827,-2.4536639 2.465074,0 4.436961,1.9718869 4.436961,4.4369612 0,1.418338 -0.6561,2.6647088 -1.68265,3.4784478 l -0.06789,0.05334 L 12,19.490302 4.2332974,11.369612 4.1654095,11.316271 C 3.1388657,10.502532 2.4827586,9.2561612 2.4827586,7.8378232 c 0,-2.4650743 1.9718869,-4.4369612 4.4369612,-4.4369612 z" />
		</g>
		<g id="heart_solid">
			<path d="M 2.4021877,12.632598 C 0.9387231,11.472512 0,9.679214 0,7.666666 0,4.1688599 2.8355262,1.3333339 6.3333323,1.3333339 c 2.4800397,0 4.6271447,1.42548 5.6666677,3.501803 1.039523,-2.076323 3.186628,-3.501803 5.666668,-3.501803 C 21.164474,1.3333339 24,4.1688599 24,7.666666 24,9.6792139 23.061277,11.472512 21.597803,12.632598 17.967175,16.428263 12,22.666666 12,22.666666 c 0,0 -6.0635815,-6.339203 -9.5978123,-10.034068 z" />
		</g>
		<g id="plus">
			<path style="fill-rule:evenodd" d="m 10.928571,10.928571 0,-6.428571 2.142858,0 0,6.428571 6.428571,0 0,2.142858 -6.428571,0 0,6.428571 -2.142858,0 0,-6.428571 -6.428571,0 0,-2.142858 6.428571,0 z M 12,24 C 18.627416,24 24,18.627416 24,12 24,5.372584 18.627416,0 12,0 5.3725843,0 0,5.372584 0,12 0,18.627416 5.3725843,24 12,24 Z m 0,-0.428571 C 5.6092757,23.571429 0.42857143,18.390724 0.42857143,12 0.42857143,5.609276 5.6092757,0.428571 12,0.428571 c 6.390724,0 11.571429,5.180705 11.571429,11.571429 0,6.390724 -5.180705,11.571429 -11.571429,11.571429 z" />
		</g>
		<g id="minus">
			<path d="M 12,24 C 18.627416,24 24,18.627416 24,12 24,5.3725843 18.627416,0 12,0 5.3725843,0 0,5.3725843 0,12 0,18.627416 5.3725843,24 12,24 Z m 0,-0.428571 C 5.6092757,23.571429 0.42857143,18.390724 0.42857143,12 0.42857143,5.6092757 5.6092757,0.42857143 12,0.42857143 18.390724,0.42857143 23.571429,5.6092757 23.571429,12 23.571429,18.390724 18.390724,23.571429 12,23.571429 Z m -7.5,-12.82653 0,2.142857 15,0 0,-2.142857 -15,0 z" />
		</g>
		<g id="istop">
			<path style="fill-rule:evenodd" d="M 3.6428572,24 0,24 0,0 3.6428572,0 0,0 3.5109788e-7,7.2857142 7.2857142,0 3.6428572,0 24,0 16.719308,2.2229864e-4 24,7.2809146 24,24 20.357142,24 16.714286,24 24,16.714286 24,24 20.357142,24 3.6428572,24 7.2857142,24 3.5109788e-7,16.714286 0,24 l 3.6428572,0 0,0 0,0 0,0 z M 15.642858,8.0190692 C 15.642858,6.0071747 14.011895,4.376212 12,4.376212 c -2.0118945,0 -3.6428572,1.6309627 -3.6428572,3.6428572 0,2.0118948 1.6309627,3.6428568 3.6428572,3.6428568 2.011895,0 3.642858,-1.630962 3.642858,-3.6428568 l 0,0 z M 8.3571428,16.505732 c 0,-2.015061 1.6350566,-3.64859 3.6428572,-3.64859 2.011895,0 3.642858,1.620268 3.642858,3.64859 l 0,7.494268 -7.2857152,0 0,-7.494268 0,0 0,0 0,0 z" />
		</g>
		<g id="info">
			<path style="fill-rule:evenodd" d="M 12,24 C 18.62742,24 24,18.62742 24,12 24,5.37258 18.62742,0 12,0 5.37258,0 0,5.37258 0,12 0,18.62742 5.37258,24 12,24 Z M 11.257028,6 C 10.838933,6 10.5,6.332513 10.5,6.757028 l 0,1.485944 C 10.5,8.661068 10.832513,9 11.257028,9 l 1.485945,0 C 13.161067,9 13.5,8.667487 13.5,8.242972 l 0,-1.485944 C 13.5,6.338933 13.167488,6 12.742973,6 l -1.485945,0 z m 0,5.25 C 10.838933,11.25 10.5,11.591745 10.5,11.99655 l 0,6.0069 c 0,0.412305 0.332513,0.74655 0.757028,0.74655 l 1.485945,0 C 13.161067,18.75 13.5,18.408255 13.5,18.00345 l 0,-6.0069 C 13.5,11.584237 13.167488,11.25 12.742973,11.25 l -1.485945,0 z" />
		</g>
		<g id="profanity">
			<path d="m 4.1376589,7.076108 c 1.9540119,0 3.5380534,-1.584042 3.5380534,-3.538054 C 7.6757123,1.5840425 6.0916708,1e-6 4.1376589,1e-6 2.183647,1e-6 0.5996055,1.5840425 0.5996055,3.538054 c 0,1.954012 1.5840415,3.538054 3.5380534,3.538054 z m 15.7246821,0 c 1.954011,0 3.538053,-1.584042 3.538053,-3.538054 0,-1.9540115 -1.584042,-3.538053 -3.538053,-3.538053 -1.954012,0 -3.538054,1.5840415 -3.538054,3.538053 0,1.954012 1.584042,3.538054 3.538054,3.538054 z m 3.18862,3.393764 -10.779859,5.101023 -11.2346963,-5.349851 0,3.017063 4.9578192,2.177263 c 1.3190571,0.55987 2.5016554,1.088636 3.8207046,1.586298 l 0,0.06219 c -1.3190492,0.528758 -2.547139,1.02642 -3.8207046,1.617393 l -4.9578192,2.208367 0,3.110381 11.3711473,-5.287644 10.643408,5.132119 0,-2.954856 -4.684919,-2.115057 c -1.182598,-0.497662 -2.319719,-0.995317 -3.638769,-1.492979 l 0,-0.09331 c 1.228082,-0.497662 2.365196,-0.964221 3.593287,-1.524083 l 4.730401,-2.14616 0,-3.048174 z" />
		</g>
		<g id="timer">
			<path d="m 12,24 c 5.713291,0 10.344827,-4.631537 10.344827,-10.344828 0,-5.713291 -4.631536,-10.3448272 -10.344826,-10.3448272 -5.7132919,0 -10.3448285,4.6315362 -10.3448285,10.3448272 C 1.6551725,19.368463 6.2867091,24 12,24 l 0,0 z m 0,-2.482759 c -4.3421047,0 -7.8620689,-3.519972 -7.8620689,-7.862069 0,-4.342104 3.5199642,-7.862069 7.8620689,-7.862069 4.342096,0 7.862069,3.519965 7.862069,7.862069 0,4.342097 -3.519973,7.862069 -7.862069,7.862069 l 0,0 z m -0.827586,-12.827586 0,5.005564 c 0,0.45706 0.370518,0.827587 0.827586,0.827587 0.457059,0 0.827586,-0.370527 0.827586,-0.827587 l 0,-5.005564 C 12.827586,8.232588 12.45706,7.862069 12,7.862069 c -0.457068,0 -0.827586,0.370519 -0.827586,0.827586 l 0,0 z m -0.413793,-6.2068964 0,1.2814262 2.482758,0 0,-1.2814262 2.896552,0 c 0.685597,0 1.241379,-0.555782 1.241379,-1.2413793 C 17.37931,0.5557821 16.823528,0 16.137931,0 L 7.8620691,0 C 7.1764718,0 6.6206897,0.5557821 6.6206897,1.2413793 c 0,0.6855973 0.5557821,1.2413793 1.2413794,1.2413793 l 2.8965519,0 z m 6.206896,10.3848744 -4.965517,0 c -0.457068,0 -0.827586,0.370519 -0.827586,0.827586 0,0.45706 0.370518,0.827587 0.827586,0.827587 l 4.965517,0 c 0.457059,0 0.827586,-0.370527 0.827586,-0.827587 0,-0.457067 -0.370527,-0.827586 -0.827586,-0.827586 z M 19.803492,4.0961793 17.734526,6.205192 c -0.480115,0.489418 -0.472584,1.275376 0.0168,1.755492 0.489418,0.480124 1.275377,0.472593 1.755501,-0.0168 L 21.575793,5.83488 c 0.480116,-0.489418 0.472585,-1.2753766 -0.0168,-1.7555007 -0.489418,-0.4801159 -1.275377,-0.4725848 -1.755501,0.0168 z" />
		</g>
		<g id="location">
			<path d="M 6,4.0000002 C 4.8950005,4.0000002 4.0000002,4.8949996 4.0000002,6 4.0000002,7.1049995 4.8950005,7.9999998 6,7.9999998 7.1050004,7.9999998 7.9999998,7.1049995 7.9999998,6 7.9999998,4.8949996 7.1050004,4.0000002 6,4.0000002 Z m 4.47,1.4999994 C 10.24,3.415 8.585,1.7599996 6.5000004,1.5299997 l 0,-1.0299997 -0.9999999,0 0,1.0299997 C 3.415,1.7599996 1.7599996,3.415 1.5299997,5.4999996 l -1.0299997,0 0,0.9999999 1.0299997,0 C 1.7599996,8.585 3.415,10.24 5.5000005,10.47 l 0,1.03 0.9999999,0 0,-1.03 C 8.585,10.24 10.24,8.585 10.47,6.4999995 l 1.03,0 0,-0.9999999 -1.03,0 z M 6,9.5 C 4.0650001,9.5 2.4999998,7.9349999 2.4999998,6 2.4999998,4.0650001 4.0650001,2.4999998 6,2.4999998 7.9349999,2.4999998 9.5000002,4.0650001 9.5000002,6 9.5000002,7.9349999 7.9349999,9.5 6,9.5 Z" />
		</g>
	</defs>
</svg>