<?xml version="1.0" encoding="UTF-8" standalone="no"?>
<svg
   xmlns:svg="http://www.w3.org/2000/svg"
   xmlns="http://www.w3.org/2000/svg"
   version="1.1"
   viewBox="0 0 57 57"
   height="57px"
   width="57px">
  <path
     d="m 26,26 0,-15 5,0 0,15 15,0 0,5 -15,0 0,15 -5,0 0,-15 -15,0 0,-5 15,0 z m 2.5,30.5 c 15.46397,0 28,-12.53603 28,-28 0,-15.46397 -12.53603,-28 -28,-28 -15.46397,0 -28,12.53603 -28,28 0,15.46397 12.53603,28 28,28 z m 0,-1 c -14.91169,0 -27,-12.08831 -27,-27 0,-14.91169 12.08831,-27 27,-27 14.91169,0 27,12.08831 27,27 0,14.91169 -12.08831,27 -27,27 z"
     style="fill-rule:evenodd;" />
</svg>
