<?xml version="1.0" encoding="UTF-8" standalone="no"?>
<svg width="57px" height="57px" viewBox="0 0 57 57" version="1.1" xmlns="http://www.w3.org/2000/svg" xmlns:xlink="http://www.w3.org/1999/xlink">
    <!-- Generator: Sketch 3.6.1 (26313) - http://www.bohemiancoding.com/sketch -->
    <title>Combined Shape</title>
    <desc>Created with Sketch.</desc>
    <defs></defs>
    <g id="Page-1" stroke="none" stroke-width="1" fill="none" fill-rule="evenodd">
        <g id="icons" transform="translate(-336.000000, -251.000000)" fill="#000000">
            <path d="M362,277 L362,262 L367,262 L367,277 L382,277 L382,282 L367,282 L367,297 L362,297 L362,282 L347,282 L347,277 L362,277 Z M364.5,307.5 C379.963973,307.5 392.5,294.963973 392.5,279.5 C392.5,264.036027 379.963973,251.5 364.5,251.5 C349.036027,251.5 336.5,264.036027 336.5,279.5 C336.5,294.963973 349.036027,307.5 364.5,307.5 Z M364.5,306.5 C349.588312,306.5 337.5,294.411688 337.5,279.5 C337.5,264.588312 349.588312,252.5 364.5,252.5 C379.411688,252.5 391.5,264.588312 391.5,279.5 C391.5,294.411688 379.411688,306.5 364.5,306.5 Z" id="Combined-Shape"></path>
        </g>
    </g>
</svg>