<?xml version="1.0" encoding="UTF-8" standalone="no"?>
<svg width="28px" height="28px" viewBox="0 0 28 28" version="1.1" xmlns="http://www.w3.org/2000/svg" xmlns:xlink="http://www.w3.org/1999/xlink">
    <!-- Generator: Sketch 3.7 (28169) - http://www.bohemiancoding.com/sketch -->
    <title>Combined Shape</title>
    <desc>Created with Sketch.</desc>
    <defs></defs>
    <g id="Page-1" stroke="none" stroke-width="1" fill="none" fill-rule="evenodd">
        <g id="icons" transform="translate(-304.000000, -65.000000)" fill="#000000">
            <path d="M319.24839,84.0629851 L327.773655,84.0606019 C325.89082,87.5944865 322.169006,90 317.885354,90 C313.603935,90 309.883769,87.5969947 308,84.0661295 L316.52365,84.0637467 C316.309135,83.8807318 316.163572,83.6176197 316.142096,83.3268239 L315.854011,79.4259697 C315.374231,79.3487316 314.990364,78.9335818 314.966117,78.4382486 L314.82489,75.5531799 C314.797839,75.0005635 315.156893,74.3375194 315.664322,74.108373 C315.664322,74.108373 316.108529,73.6641667 317.885354,73.6641667 C319.662179,73.6641667 320.106386,74.108373 320.106386,74.108373 C320.597042,74.3537014 320.972725,75.0035095 320.945818,75.5531799 L320.804591,78.4382486 C320.780225,78.936003 320.394565,79.3488691 319.916699,79.4259393 L319.628611,83.3268239 C319.60709,83.618234 319.461921,83.8804813 319.24839,84.0629851 Z M318,93 C310.268014,93 304,86.7319865 304,79 C304,71.2680135 310.268014,65 318,65 C325.731986,65 332,71.2680135 332,79 C332,86.7319865 325.731986,93 318,93 Z M318,92 C325.179702,92 331,86.1797017 331,79 C331,71.8202983 325.179702,66 318,66 C310.820298,66 305,71.8202983 305,79 C305,86.1797017 310.820298,92 318,92 Z M317.885354,73.4420635 C319.111996,73.4420635 320.106386,72.4476737 320.106386,71.2210317 C320.106386,69.9943898 319.111996,69 317.885354,69 C316.658712,69 315.664322,69.9943898 315.664322,71.2210317 C315.664322,72.4476737 316.658712,73.4420635 317.885354,73.4420635 Z" id="Combined-Shape"></path>
        </g>
    </g>
</svg>