<?xml version="1.0" encoding="UTF-8" standalone="no"?>
<svg
   xmlns:dc="http://purl.org/dc/elements/1.1/"
   xmlns:cc="http://creativecommons.org/ns#"
   xmlns:rdf="http://www.w3.org/1999/02/22-rdf-syntax-ns#"
   xmlns:svg="http://www.w3.org/2000/svg"
   xmlns="http://www.w3.org/2000/svg"
   version="1.1"
   id="svg2"
   width="32px"
   height="31px"
   viewBox="0 0 32 31">
  <path d="M 9.8613281,1.5 C 5.2613797,1.5 1.5,5.2613797 1.5,9.8613281 1.5,12.508023 2.739489,14.885764 4.6699219,16.416016 L 4.5175781,16.277344 16,28.28125 27.482422,16.277344 27.330078,16.416016 C 29.260523,14.885765 30.5,12.508023 30.5,9.8613281 30.5,5.2613797 26.73862,1.5 22.138672,1.5 19.717393,1.5 17.530559,2.541373 16,4.1972656 14.469441,2.541373 12.282607,1.5 9.8613281,1.5 Z m 0,3 c 2.1119289,0 3.9178479,1.2090931 4.7968749,2.9648438 L 16,10.144531 17.341797,7.4648438 C 18.220824,5.7090931 20.026743,4.5 22.138672,4.5 25.117303,4.5 27.5,6.8826966 27.5,9.8613281 c 0,1.7138249 -0.792788,3.2198559 -2.033203,4.2031249 l -0.08203,0.06445 L 16,23.941406 6.6152344,14.128906 6.5332031,14.064453 C 5.292796,13.081184 4.5,11.575153 4.5,9.8613281 4.5,6.8826966 6.8826966,4.5 9.8613281,4.5 Z"/>
</svg>
