<?xml version="1.0" encoding="UTF-8"?>
<!DOCTYPE svg PUBLIC "-//W3C//DTD SVG 1.1//EN" "http://www.w3.org/Graphics/SVG/1.1/DTD/svg11.dtd">
<svg
   xmlns="http://www.w3.org/2000/svg"
   viewBox="0 0 32 32"
   version="1.1"
   height="32px"
   width="32px"
   style="fill-rule: evenodd">
  <path d="M 16,32 C 24.83656,32 32,24.83656 32,16 32,7.16344 24.83656,0 16,0 7.16344,0 0,7.16344 0,16 0,24.83656 7.16344,32 16,32 Z M 15.00937,8 C 14.45191,8 14,8.44335 14,9.00937 l 0,1.98126 C 14,11.54809 14.44335,12 15.00937,12 l 1.98126,0 C 17.54809,12 18,11.55665 18,10.99063 L 18,9.00937 C 18,8.45191 17.55665,8 16.99063,8 l -1.98126,0 z m 0,7 C 14.45191,15 14,15.45566 14,15.9954 l 0,8.0092 C 14,24.55434 14.44335,25 15.00937,25 l 1.98126,0 C 17.54809,25 18,24.54434 18,24.0046 l 0,-8.0092 C 18,15.44565 17.55665,15 16.99063,15 l -1.98126,0 z"/>
</svg>
