<?xml version="1.0" encoding="UTF-8" standalone="no"?>
<svg width="32px" height="32px" viewBox="0 0 32 32" version="1.1" xmlns="http://www.w3.org/2000/svg" xmlns:xlink="http://www.w3.org/1999/xlink" xmlns:sketch="http://www.bohemiancoding.com/sketch/ns">
    <!-- Generator: Sketch 3.5.2 (25235) - http://www.bohemiancoding.com/sketch -->
    <title>Oval 42</title>
    <desc>Created with Sketch.</desc>
    <defs></defs>
    <g id="Page-1" stroke="none" stroke-width="1" fill="none" fill-rule="evenodd" sketch:type="MSPage">
        <g id="Hamburger-menu-(open)" sketch:type="MSArtboardGroup" transform="translate(-30.000000, -264.000000)" fill="#FFFFFF">
            <path d="M46,296 C54.836556,296 62,288.836556 62,280 C62,271.163444 54.836556,264 46,264 C37.163444,264 30,271.163444 30,280 C30,288.836556 37.163444,296 46,296 Z M45.0093689,272 C44.4519098,272 44,272.443353 44,273.009369 L44,274.990631 C44,275.54809 44.4433532,276 45.0093689,276 L46.9906311,276 C47.5480902,276 48,275.556647 48,274.990631 L48,273.009369 C48,272.45191 47.5566468,272 46.9906311,272 L45.0093689,272 Z M45.0093689,279 C44.4519098,279 44,279.455664 44,279.995398 L44,288.004602 C44,288.554345 44.4433532,289 45.0093689,289 L46.9906311,289 C47.5480902,289 48,288.544336 48,288.004602 L48,279.995398 C48,279.445655 47.5566468,279 46.9906311,279 L45.0093689,279 Z" id="Oval-42" sketch:type="MSShapeGroup"></path>
        </g>
    </g>
</svg>