<?xml version="1.0" encoding="UTF-8" standalone="no"?>
<svg width="32px" height="32px" viewBox="0 0 32 32" version="1.1" xmlns="http://www.w3.org/2000/svg" xmlns:xlink="http://www.w3.org/1999/xlink" xmlns:sketch="http://www.bohemiancoding.com/sketch/ns">
    <!-- Generator: Sketch 3.5.2 (25235) - http://www.bohemiancoding.com/sketch -->
    <title>Oval 42 Copy</title>
    <desc>Created with Sketch.</desc>
    <defs></defs>
    <g id="Page-1" stroke="none" stroke-width="1" fill="none" fill-rule="evenodd" sketch:type="MSPage">
        <g id="icons" sketch:type="MSArtboardGroup" transform="translate(-118.000000, -475.000000)" fill="#000000">
            <path d="M134,507 C142.836556,507 150,499.836556 150,491 C150,482.163444 142.836556,475 134,475 C125.163444,475 118,482.163444 118,491 C118,499.836556 125.163444,507 134,507 Z M133.009369,483 C132.45191,483 132,483.443353 132,484.009369 L132,485.990631 C132,486.54809 132.443353,487 133.009369,487 L134.990631,487 C135.54809,487 136,486.556647 136,485.990631 L136,484.009369 C136,483.45191 135.556647,483 134.990631,483 L133.009369,483 Z M133.009369,490 C132.45191,490 132,490.455664 132,490.995398 L132,499.004602 C132,499.554345 132.443353,500 133.009369,500 L134.990631,500 C135.54809,500 136,499.544336 136,499.004602 L136,490.995398 C136,490.445655 135.556647,490 134.990631,490 L133.009369,490 Z" id="Oval-42-Copy" sketch:type="MSShapeGroup"></path>
        </g>
    </g>
</svg>