<?xml version="1.0" encoding="UTF-8" standalone="no"?>
<svg width="22px" height="22px" viewBox="0 0 22 22" version="1.1" xmlns="http://www.w3.org/2000/svg" xmlns:xlink="http://www.w3.org/1999/xlink" xmlns:sketch="http://www.bohemiancoding.com/sketch/ns">
    <!-- Generator: Sketch 3.5.2 (25235) - http://www.bohemiancoding.com/sketch -->
    <title>Rectangle 37</title>
    <desc>Created with Sketch.</desc>
    <defs></defs>
    <g id="Page-1" stroke="none" stroke-width="1" fill="none" fill-rule="evenodd" sketch:type="MSPage">
        <g id="icons" sketch:type="MSArtboardGroup" transform="translate(-124.000000, -138.000000)" fill="#000000">
            <path d="M127.339286,160 L124,160 L124,138 L127.339286,138 L124,138 L124,144.678571 L130.678571,138 L127.339286,138 L146,138 L139.326032,138.000204 L146,144.674172 L146,160 L142.660714,160 L139.321429,160 L146,153.321429 L146,160 L142.660714,160 L127.339286,160 L130.678571,160 L124,153.321429 L124,160 L127.339286,160 Z M135,148.690099 C136.844237,148.690099 138.339286,147.19505 138.339286,145.350813 C138.339286,143.506577 136.844237,142.011528 135,142.011528 C133.155763,142.011528 131.660714,143.506577 131.660714,145.350813 C131.660714,147.19505 133.155763,148.690099 135,148.690099 Z M131.660714,153.130253 C131.660714,151.283115 133.159516,149.785714 135,149.785714 C136.844237,149.785714 138.339286,151.270959 138.339286,153.130253 L138.339286,160 L131.660714,160 L131.660714,153.130253 Z" id="Rectangle-37" sketch:type="MSShapeGroup"></path>
        </g>
    </g>
</svg>