<?xml version="1.0" encoding="UTF-8"?>
<!DOCTYPE svg PUBLIC "-//W3C//DTD SVG 1.1//EN" "http://www.w3.org/Graphics/SVG/1.1/DTD/svg11.dtd">
<svg
   xmlns="http://www.w3.org/2000/svg"
   version="1.1"
   viewBox="0 0 22 22"
   height="22px"
   width="22px">
  <path d="m 11,10.6901 c 1.84424,0 3.33929,-1.49505 3.33929,-3.33929 0,-1.84423 -1.49505,-3.33928 -3.33929,-3.33928 -1.84424,0 -3.33929,1.49505 -3.33929,3.33928 0,1.84424 1.49505,3.33929 3.33929,3.33929 z M 7.66071,22 l 0,-6.86975 c 0,-1.84714 1.49881,-3.34454 3.33929,-3.34454 1.84424,0 3.33929,1.48525 3.33929,3.34454 l 0,6.86975 0.982143,0 L 21.97828,15.154187 22,6.67417 15.32603,2e-4 6.67857,0 0,6.67857 0,15.32143 6.67857,22 Z"
     style="fill-rule:evenodd;" />
</svg>
