<?xml version="1.0" encoding="UTF-8" standalone="no"?>
<svg
   xmlns:dc="http://purl.org/dc/elements/1.1/"
   xmlns:cc="http://creativecommons.org/ns#"
   xmlns:rdf="http://www.w3.org/1999/02/22-rdf-syntax-ns#"
   xmlns:svg="http://www.w3.org/2000/svg"
   xmlns="http://www.w3.org/2000/svg"
   version="1.1"
   viewBox="0 0 22 22"
   height="22px"
   width="22px">
  <path
     d="M 3.3392857,22 0,22 0,0 3.3392857,0 0,0 3.2183972e-7,6.6785714 6.6785714,0 3.3392857,0 22,0 15.326032,2.0381382e-4 22,6.6741718 22,22 18.660714,22 15.321429,22 22,15.321429 22,22 18.660714,22 3.3392857,22 6.6785714,22 3.2183972e-7,15.321429 0,22 l 3.3392857,0 0,0 0,0 0,0 z M 14.339286,7.3508134 c 0,-1.8442366 -1.495049,-3.3392857 -3.339286,-3.3392857 -1.8442366,0 -3.3392857,1.4950491 -3.3392857,3.3392857 0,1.8442366 1.4950491,3.3392856 3.3392857,3.3392856 1.844237,0 3.339286,-1.495049 3.339286,-3.3392856 l 0,0 z M 7.6607143,15.130254 c 0,-1.847139 1.4988018,-3.34454 3.3392857,-3.34454 1.844237,0 3.339286,1.485245 3.339286,3.34454 l 0,6.869746 -6.6785717,0 0,-6.869746 0,0 0,0 0,0 z"
     style="fill-rule:evenodd;" />
</svg>
