<?xml version="1.0" encoding="UTF-8" standalone="no"?>
<svg width="32px" height="24px" viewBox="0 0 32 24" version="1.1" xmlns="http://www.w3.org/2000/svg" xmlns:xlink="http://www.w3.org/1999/xlink" xmlns:sketch="http://www.bohemiancoding.com/sketch/ns">
    <!-- Generator: Sketch 3.5.2 (25235) - http://www.bohemiancoding.com/sketch -->
    <title>menu copy</title>
    <desc>Created with Sketch.</desc>
    <defs></defs>
    <g id="Page-1" stroke="none" stroke-width="1" fill="none" fill-rule="evenodd" sketch:type="MSPage">
        <g id="icons" sketch:type="MSArtboardGroup" transform="translate(-119.000000, -256.000000)" fill="#000000">
            <path d="M121.001743,256 C119.896211,256 119,256.88773 119,258 C119,259.104569 119.889262,260 121.001743,260 L148.998257,260 C150.103789,260 151,259.11227 151,258 C151,256.895431 150.110738,256 148.998257,256 L121.001743,256 Z M121.001743,266 C119.896211,266 119,266.88773 119,268 C119,269.104569 119.889262,270 121.001743,270 L148.998257,270 C150.103789,270 151,269.11227 151,268 C151,266.895431 150.110738,266 148.998257,266 L121.001743,266 Z M121.001743,276 C119.896211,276 119,276.88773 119,278 C119,279.104569 119.889262,280 121.001743,280 L148.998257,280 C150.103789,280 151,279.11227 151,278 C151,276.895431 150.110738,276 148.998257,276 L121.001743,276 Z" id="menu-copy" sketch:type="MSShapeGroup"></path>
        </g>
    </g>
</svg>