<?xml version="1.0" encoding="UTF-8"?>
<!DOCTYPE svg PUBLIC "-//W3C//DTD SVG 1.1//EN" "http://www.w3.org/Graphics/SVG/1.1/DTD/svg11.dtd">
<svg
   xmlns="http://www.w3.org/2000/svg"
   version="1.1"
   viewBox="0 0 32 32"
   height="32px"
   width="32px">
  <path d="M 2.00174,0 C 0.89621,0 0,0.88773 0,2 0,3.10457 0.88926,4 2.00174,4 L 29.99826,4 C 31.10379,4 32,3.11227 32,2 32,0.89543 31.11074,0 29.99826,0 L 2.00174,0 Z m 0,10 C 0.89621,10 0,10.88773 0,12 c 0,1.10457 0.88926,2 2.00174,2 l 27.99652,0 C 31.10379,14 32,13.11227 32,12 32,10.89543 31.11074,10 29.99826,10 L 2.00174,10 Z m 0,10 C 0.89621,20 0,20.88773 0,22 c 0,1.10457 0.88926,2 2.00174,2 l 27.99652,0 C 31.10379,24 32,23.11227 32,22 32,20.89543 31.11074,20 29.99826,20 L 2.00174,20 Z"/>
</svg>
