<?xml version="1.0" encoding="UTF-8" standalone="no"?>
<svg width="57px" height="57px" viewBox="0 0 57 57" version="1.1" xmlns="http://www.w3.org/2000/svg" xmlns:xlink="http://www.w3.org/1999/xlink">
    <!-- Generator: Sketch 3.6.1 (26313) - http://www.bohemiancoding.com/sketch -->
    <title>Combined Shape</title>
    <desc>Created with Sketch.</desc>
    <defs></defs>
    <g id="Page-1" stroke="none" stroke-width="1" fill="none" fill-rule="evenodd">
        <g id="icons" transform="translate(-229.000000, -159.000000)" fill="#000000">
            <path d="M257.5,215.5 C272.963973,215.5 285.5,202.963973 285.5,187.5 C285.5,172.036027 272.963973,159.5 257.5,159.5 C242.036027,159.5 229.5,172.036027 229.5,187.5 C229.5,202.963973 242.036027,215.5 257.5,215.5 Z M257.5,214.5 C242.588312,214.5 230.5,202.411688 230.5,187.5 C230.5,172.588312 242.588312,160.5 257.5,160.5 C272.411688,160.5 284.5,172.588312 284.5,187.5 C284.5,202.411688 272.411688,214.5 257.5,214.5 Z M240,184.571429 L240,189.571429 L275,189.571429 L275,184.571429 L240,184.571429 Z" id="Combined-Shape"></path>
        </g>
    </g>
</svg>