<?xml version="1.0" encoding="UTF-8" standalone="no"?>
<svg
   xmlns:dc="http://purl.org/dc/elements/1.1/"
   xmlns:cc="http://creativecommons.org/ns#"
   xmlns:rdf="http://www.w3.org/1999/02/22-rdf-syntax-ns#"
   xmlns:svg="http://www.w3.org/2000/svg"
   xmlns="http://www.w3.org/2000/svg"
   id="svg2"
   width="24"
   height="24"
   viewBox="0 0 24 24"
   version="1.1">
  <metadata
     id="metadata10">
    <rdf:RDF>
      <cc:Work
         rdf:about="">
        <dc:format>image/svg+xml</dc:format>
        <dc:type
           rdf:resource="http://purl.org/dc/dcmitype/StillImage" />
        <dc:title></dc:title>
      </cc:Work>
    </rdf:RDF>
  </metadata>
  <defs
     id="defs8" />
  <path
     id="path4"
     d="M 12,24 C 18.627416,24 24,18.627416 24,12 24,5.3725843 18.627416,0 12,0 5.3725843,0 0,5.3725843 0,12 0,18.627416 5.3725843,24 12,24 Z m 0,-0.428571 C 5.6092757,23.571429 0.42857143,18.390724 0.42857143,12 0.42857143,5.6092757 5.6092757,0.42857143 12,0.42857143 18.390724,0.42857143 23.571429,5.6092757 23.571429,12 23.571429,18.390724 18.390724,23.571429 12,23.571429 Z m -7.5,-12.82653 0,2.142857 15,0 0,-2.142857 -15,0 z" />
</svg>
