<?xml version="1.0" encoding="UTF-8" standalone="no"?>
<svg
   xmlns:dc="http://purl.org/dc/elements/1.1/"
   xmlns:cc="http://creativecommons.org/ns#"
   xmlns:rdf="http://www.w3.org/1999/02/22-rdf-syntax-ns#"
   xmlns:svg="http://www.w3.org/2000/svg"
   xmlns="http://www.w3.org/2000/svg"
   xmlns:xlink="http://www.w3.org/1999/xlink"
   id="svg4260"
   version="1.1"
   viewBox="0 0 128 128"
   height="128"
   width="128">
  <metadata
     id="metadata4344">
    <rdf:RDF>
      <cc:Work
         rdf:about="">
        <dc:format>image/svg+xml</dc:format>
        <dc:type
           rdf:resource="http://purl.org/dc/dcmitype/StillImage" />
        <dc:title>Markers</dc:title>
      </cc:Work>
    </rdf:RDF>
  </metadata>
  <!-- Generator: Sketch 39.1 (31720) - http://www.bohemiancoding.com/sketch -->
  <title
     id="title4262">Markers</title>
  <desc
     id="desc4264">Created with Sketch.</desc>
  <rect
     y="0"
     x="0"
     height="128"
     width="128"
     id="rect5120"
     style="fill:#f97009;fill-opacity:1;stroke:none" />
  <defs
     id="defs4266">
    <path
       id="path-1"
       d="m 21,65 c 9.130435,2e-6 21,-32.013949 21,-43.75 C 42,9.5139491 32.59798,0 21,0 9.4020203,0 0,9.5139491 0,21.25 0,32.986051 11.869565,64.999998 21,65 Z" />
    <mask
       fill="white"
       height="65"
       width="42"
       y="0"
       x="0"
       maskUnits="objectBoundingBox"
       maskContentUnits="userSpaceOnUse"
       id="mask-2">
      <use
         height="100%"
         width="100%"
         y="0"
         x="0"
         id="use4270"
         xlink:href="#path-1" />
    </mask>
    <path
       id="path-3"
       d="m 21,65 c 9.130435,2e-6 21,-32.013949 21,-43.75 C 42,9.5139491 32.59798,0 21,0 9.4020203,0 0,9.5139491 0,21.25 0,32.986051 11.869565,64.999998 21,65 Z" />
    <mask
       fill="white"
       height="65"
       width="42"
       y="0"
       x="0"
       maskUnits="objectBoundingBox"
       maskContentUnits="userSpaceOnUse"
       id="mask-4">
      <use
         height="100%"
         width="100%"
         y="0"
         x="0"
         id="use4274"
         xlink:href="#path-3" />
    </mask>
    <path
       id="path-5"
       d="m 21,65 c 9.130435,2e-6 21,-32.013949 21,-43.75 C 42,9.5139491 32.59798,0 21,0 9.4020203,0 0,9.5139491 0,21.25 0,32.986051 11.869565,64.999998 21,65 Z" />
    <mask
       fill="white"
       height="65"
       width="42"
       y="0"
       x="0"
       maskUnits="objectBoundingBox"
       maskContentUnits="userSpaceOnUse"
       id="mask-6">
      <use
         height="100%"
         width="100%"
         y="0"
         x="0"
         id="use4278"
         xlink:href="#path-5" />
    </mask>
    <path
       id="path-7"
       d="m 21,65 c 9.130435,2e-6 21,-32.013949 21,-43.75 C 42,9.5139491 32.59798,0 21,0 9.4020203,0 0,9.5139491 0,21.25 0,32.986051 11.869565,64.999998 21,65 Z" />
    <mask
       fill="white"
       height="65"
       width="42"
       y="0"
       x="0"
       maskUnits="objectBoundingBox"
       maskContentUnits="userSpaceOnUse"
       id="mask-8">
      <use
         height="100%"
         width="100%"
         y="0"
         x="0"
         id="use4282"
         xlink:href="#path-7" />
    </mask>
    <path
       id="path-9"
       d="m 21,65 c 9.130435,2e-6 21,-32.013949 21,-43.75 C 42,9.5139491 32.59798,0 21,0 9.4020203,0 0,9.5139491 0,21.25 0,32.986051 11.869565,64.999998 21,65 Z" />
    <mask
       fill="white"
       height="65"
       width="42"
       y="0"
       x="0"
       maskUnits="objectBoundingBox"
       maskContentUnits="userSpaceOnUse"
       id="mask-10">
      <use
         height="100%"
         width="100%"
         y="0"
         x="0"
         id="use4286"
         xlink:href="#path-9" />
    </mask>
    <path
       id="path-11"
       d="m 21,65 c 9.130435,2e-6 21,-32.013949 21,-43.75 C 42,9.5139491 32.59798,0 21,0 9.4020203,0 0,9.5139491 0,21.25 0,32.986051 11.869565,64.999998 21,65 Z" />
    <mask
       fill="white"
       height="65"
       width="42"
       y="0"
       x="0"
       maskUnits="objectBoundingBox"
       maskContentUnits="userSpaceOnUse"
       id="mask-12">
      <use
         height="100%"
         width="100%"
         y="0"
         x="0"
         id="use4290"
         xlink:href="#path-11" />
    </mask>
  </defs>
  <path
     d="m 61.793392,60.910772 -11.01789,0 c -2.439023,0 -4.428318,-1.96298 -4.428318,-4.398635 l 0,-35.334759 c 0,-2.436329 1.987751,-4.398635 4.428318,-4.398635 l 26.449005,0 c 2.439013,0 4.428309,1.962979 4.428309,4.398635 l 0,35.334759 c 0,2.436331 -1.987735,4.398635 -4.428309,4.398635 l -11.017912,0 0,48.103888 c 0,1.21867 -0.987918,2.2066 -2.206602,2.2066 -1.218662,0 -2.206601,-0.98793 -2.206601,-2.2066 l 0,-48.103888 z m 2.304354,-4.411078 c 6.585822,0.0019 13.141867,0.0055 13.141867,0.01236 0,0 -3.77e-4,-35.320191 -0.01501,-35.320191 0,0 -26.46412,-7.44e-4 -26.46412,-0.01456 0,0 3.98e-4,35.320191 0.01545,35.320191 0,0 6.546896,1.83e-4 13.128062,0.0021 0.032,-0.0014 0.06421,-0.0021 0.09665,-0.0021 0.03266,0 0.06532,7.13e-4 0.09775,0.0021 z m 8.728653,-22.06814 c 1.218684,0 2.206612,-0.987928 2.206612,-2.206601 0,-1.218673 -0.987928,-2.206601 -2.206612,-2.206601 l -17.652811,0 c -1.218662,0 -2.2066,0.987928 -2.2066,2.206601 0,1.218673 0.987938,2.206601 2.2066,2.206601 l 17.652811,0 z M 61.793392,43.25796 c 1.218684,0 2.206601,-0.987928 2.206601,-2.206601 0,-1.218673 -0.987917,-2.206602 -2.206601,-2.206602 l -6.619804,0 c -1.218662,0 -2.2066,0.987929 -2.2066,2.206602 0,1.218673 0.987938,2.206601 2.2066,2.206601 l 6.619804,0 z m 11.033007,0 c 1.218684,0 2.206612,-0.987928 2.206612,-2.206601 0,-1.218673 -0.987928,-2.206602 -2.206612,-2.206602 l -4.413203,0 c -1.218662,0 -2.206601,0.987929 -2.206601,2.206602 0,1.218673 0.987939,2.206601 2.206601,2.206601 l 4.413203,0 z m 0,8.826406 c 1.218684,0 2.206612,-0.987929 2.206612,-2.206601 0,-1.218673 -0.987928,-2.206602 -2.206612,-2.206602 l -8.826406,0 c -1.218662,0 -2.206601,0.987929 -2.206601,2.206602 0,1.218672 0.987939,2.206601 2.206601,2.206601 l 8.826406,0 z m -15.44621,0 c 1.218684,0 2.206601,-0.987929 2.206601,-2.206601 0,-1.218673 -0.987917,-2.206602 -2.206601,-2.206602 l -2.206601,0 c -1.218662,0 -2.2066,0.987929 -2.2066,2.206602 0,1.218672 0.987938,2.206601 2.2066,2.206601 l 2.206601,0 z M 56.733897,27.165452 c 0.861745,-0.861731 0.861745,-2.258876 0,-3.120607 -0.861722,-0.86173 -2.258875,-0.86173 -3.120595,0 -0.861744,0.861731 -0.861744,2.258876 0,3.120607 0.86172,0.861731 2.258873,0.861731 3.120595,0 z"
     id="path4340"
     style="fill:#ffffff;fill-rule:evenodd;stroke:none;stroke-width:1;fill-opacity:1" />
</svg>
