<?xml version="1.0" encoding="UTF-8" standalone="no"?>
<svg width="30px" height="31px" viewBox="0 0 30 31" version="1.1" xmlns="http://www.w3.org/2000/svg" xmlns:xlink="http://www.w3.org/1999/xlink" xmlns:sketch="http://www.bohemiancoding.com/sketch/ns">
    <!-- Generator: Sketch 3.5.2 (25235) - http://www.bohemiancoding.com/sketch -->
    <title>Oval 146 Copy 2</title>
    <desc>Created with Sketch.</desc>
    <defs></defs>
    <g id="Page-1" stroke="none" stroke-width="1" fill="none" fill-rule="evenodd" sketch:type="MSPage">
        <g id="Hamburger-menu-(open)" sketch:type="MSArtboardGroup" transform="translate(-31.000000, -186.000000)" fill="#FFFFFF">
            <path d="M36,195 C38.4852814,195 40.5,192.985281 40.5,190.5 C40.5,188.014719 38.4852814,186 36,186 C33.5147186,186 31.5,188.014719 31.5,190.5 C31.5,192.985281 33.5147186,195 36,195 Z M56,195 C58.4852814,195 60.5,192.985281 60.5,190.5 C60.5,188.014719 58.4852814,186 56,186 C53.5147186,186 51.5,188.014719 51.5,190.5 C51.5,192.985281 53.5147186,195 56,195 Z M60.0555556,199.316484 L46.3448118,205.804396 L32.0555556,199 L32.0555556,202.837363 L38.3613407,205.606593 C40.0390266,206.318681 41.5431589,206.991209 43.2208448,207.624176 L43.2208448,207.703297 C41.5431589,208.375824 39.9811754,209.008791 38.3613407,209.76044 L32.0555556,212.569231 L32.0555556,216.525275 L46.5183655,209.8 L60.0555556,216.327473 L60.0555556,212.569231 L54.0968779,209.879121 C52.5927456,209.246154 51.1464646,208.613187 49.4687787,207.98022 L49.4687787,207.861538 C51.0307622,207.228571 52.4770432,206.635165 54.0390266,205.923077 L60.0555556,203.193407 L60.0555556,199.316484 Z" id="Oval-146-Copy-2" sketch:type="MSShapeGroup"></path>
        </g>
    </g>
</svg>