<?xml version="1.0" encoding="UTF-8" standalone="no"?>
<!DOCTYPE svg PUBLIC "-//W3C//DTD SVG 1.1//EN" "http://www.w3.org/Graphics/SVG/1.1/DTD/svg11.dtd">
<svg
   xmlns="http://www.w3.org/2000/svg"
   version="1.1"
   viewBox="0 0 29 31"
   height="31px"
   width="29px">
  <path d="M 4.5,9 C 6.98528,9 9,6.98528 9,4.5 9,2.01472 6.98528,0 4.5,0 2.01472,0 0,2.01472 0,4.5 0,6.98528 2.01472,9 4.5,9 Z m 20,0 C 26.98528,9 29,6.98528 29,4.5 29,2.01472 26.98528,0 24.5,0 22.01472,0 20,2.01472 20,4.5 20,6.98528 22.01472,9 24.5,9 Z M 28.55556,13.31648 14.84481,19.8044 0.55556,13 l 0,3.83736 6.30578,2.76923 c 1.67769,0.71209 3.18182,1.38462 4.8595,2.01759 l 0,0.0791 c -1.67768,0.67252 -3.23967,1.30549 -4.8595,2.05714 l -6.30578,2.80879 0,3.95605 14.4628,-6.72528 13.5372,6.52747 0,-3.75824 -5.95868,-2.69011 c -1.50413,-0.63297 -2.95042,-1.26593 -4.6281,-1.8989 l 0,-0.11868 c 1.56198,-0.63297 3.00826,-1.22638 4.57025,-1.93846 l 6.01653,-2.72967 0,-3.87693 z"/>
</svg>
