<?xml version="1.0" encoding="UTF-8" standalone="no"?>
<svg
   xmlns:dc="http://purl.org/dc/elements/1.1/"
   xmlns:cc="http://creativecommons.org/ns#"
   xmlns:rdf="http://www.w3.org/1999/02/22-rdf-syntax-ns#"
   xmlns:svg="http://www.w3.org/2000/svg"
   xmlns="http://www.w3.org/2000/svg"
   id="svg2"
   width="24"
   height="24"
   viewBox="0 0 24 24"
   version="1.1">
  <metadata
     id="metadata10">
    <rdf:RDF>
      <cc:Work
         rdf:about="">
        <dc:format>image/svg+xml</dc:format>
        <dc:type
           rdf:resource="http://purl.org/dc/dcmitype/StillImage" />
        <dc:title></dc:title>
      </cc:Work>
    </rdf:RDF>
  </metadata>
  <defs
     id="defs8" />
  <path
     id="path4"
     d="m 4.1376589,7.076108 c 1.9540119,0 3.5380534,-1.584042 3.5380534,-3.538054 C 7.6757123,1.5840425 6.0916708,1e-6 4.1376589,1e-6 2.183647,1e-6 0.5996055,1.5840425 0.5996055,3.538054 c 0,1.954012 1.5840415,3.538054 3.5380534,3.538054 z m 15.7246821,0 c 1.954011,0 3.538053,-1.584042 3.538053,-3.538054 0,-1.9540115 -1.584042,-3.538053 -3.538053,-3.538053 -1.954012,0 -3.538054,1.5840415 -3.538054,3.538053 0,1.954012 1.584042,3.538054 3.538054,3.538054 z m 3.18862,3.393764 -10.779859,5.101023 -11.2346963,-5.349851 0,3.017063 4.9578192,2.177263 c 1.3190571,0.55987 2.5016554,1.088636 3.8207046,1.586298 l 0,0.06219 c -1.3190492,0.528758 -2.547139,1.02642 -3.8207046,1.617393 l -4.9578192,2.208367 0,3.110381 11.3711473,-5.287644 10.643408,5.132119 0,-2.954856 -4.684919,-2.115057 c -1.182598,-0.497662 -2.319719,-0.995317 -3.638769,-1.492979 l 0,-0.09331 c 1.228082,-0.497662 2.365196,-0.964221 3.593287,-1.524083 l 4.730401,-2.14616 0,-3.048174 z" />
</svg>
