<?xml version="1.0" encoding="UTF-8" standalone="no"?>
<svg width="29px" height="31px" viewBox="0 0 29 31" version="1.1" xmlns="http://www.w3.org/2000/svg" xmlns:xlink="http://www.w3.org/1999/xlink" xmlns:sketch="http://www.bohemiancoding.com/sketch/ns">
    <!-- Generator: Sketch 3.5.2 (25235) - http://www.bohemiancoding.com/sketch -->
    <title>Oval 146 Copy 3</title>
    <desc>Created with Sketch.</desc>
    <defs></defs>
    <g id="Page-1" stroke="none" stroke-width="1" fill="none" fill-rule="evenodd" sketch:type="MSPage">
        <g id="icons" sketch:type="MSArtboardGroup" transform="translate(-120.000000, -397.000000)" fill="#000000">
            <path d="M124.5,406 C126.985281,406 129,403.985281 129,401.5 C129,399.014719 126.985281,397 124.5,397 C122.014719,397 120,399.014719 120,401.5 C120,403.985281 122.014719,406 124.5,406 Z M144.5,406 C146.985281,406 149,403.985281 149,401.5 C149,399.014719 146.985281,397 144.5,397 C142.014719,397 140,399.014719 140,401.5 C140,403.985281 142.014719,406 144.5,406 Z M148.555556,410.316484 L134.844812,416.804396 L120.555556,410 L120.555556,413.837363 L126.861341,416.606593 C128.539027,417.318681 130.043159,417.991209 131.720845,418.624176 L131.720845,418.703297 C130.043159,419.375824 128.481175,420.008791 126.861341,420.76044 L120.555556,423.569231 L120.555556,427.525275 L135.018365,420.8 L148.555556,427.327473 L148.555556,423.569231 L142.596878,420.879121 C141.092746,420.246154 139.646465,419.613187 137.968779,418.98022 L137.968779,418.861538 C139.530762,418.228571 140.977043,417.635165 142.539027,416.923077 L148.555556,414.193407 L148.555556,410.316484 Z" id="Oval-146-Copy-3" sketch:type="MSShapeGroup"></path>
        </g>
    </g>
</svg>