<?xml version="1.0" encoding="UTF-8" standalone="no"?>
<svg width="25px" height="29px" viewBox="0 0 25 29" version="1.1" xmlns="http://www.w3.org/2000/svg" xmlns:xlink="http://www.w3.org/1999/xlink">
    <!-- Generator: Sketch 3.6.1 (26313) - http://www.bohemiancoding.com/sketch -->
    <title>Shape</title>
    <desc>Created with Sketch.</desc>
    <defs></defs>
    <g id="Page-1" stroke="none" stroke-width="1" fill="none" fill-rule="evenodd">
        <g id="icons" transform="translate(-122.000000, -200.000000)" fill="#000000">
            <path d="M134.5,229 C141.403559,229 147,223.403559 147,216.5 C147,209.596441 141.403559,204 134.5,204 C127.596441,204 122,209.596441 122,216.5 C122,223.403559 127.596441,229 134.5,229 L134.5,229 Z M134.5,226 C129.253295,226 125,221.746705 125,216.5 C125,211.253295 129.253295,207 134.5,207 C139.746705,207 144,211.253295 144,216.5 C144,221.746705 139.746705,226 134.5,226 L134.5,226 Z M133.5,210.5 L133.5,216.548388 C133.5,217.100673 133.947715,217.548388 134.5,217.548388 C135.052285,217.548388 135.5,217.100673 135.5,216.548388 L135.5,210.5 C135.5,209.947715 135.052285,209.5 134.5,209.5 C133.947715,209.5 133.5,209.947715 133.5,210.5 L133.5,210.5 Z M133,203 L133,204.548388 L136,204.548388 L136,203 L139.5,203 C140.328427,203 141,202.328427 141,201.5 C141,200.671573 140.328427,200 139.5,200 L129.5,200 C128.671573,200 128,200.671573 128,201.5 C128,202.328427 128.671573,203 129.5,203 L133,203 Z M140.5,215.548388 L134.5,215.548388 C133.947715,215.548388 133.5,215.996103 133.5,216.548388 C133.5,217.100673 133.947715,217.548388 134.5,217.548388 L140.5,217.548388 C141.052285,217.548388 141.5,217.100673 141.5,216.548388 C141.5,215.996103 141.052285,215.548388 140.5,215.548388 Z M143.929223,204.949554 L141.429223,207.497942 C140.849078,208.089316 140.85818,209.03902 141.449554,209.619165 C142.040928,210.19931 142.990632,210.190207 143.570777,209.598834 L146.070777,207.050446 C146.650922,206.459072 146.64182,205.509368 146.050446,204.929223 C145.459072,204.349078 144.509368,204.35818 143.929223,204.949554 Z" id="Shape"></path>
        </g>
    </g>
</svg>