<?xml version="1.0" encoding="UTF-8" standalone="no"?>
<svg
   xmlns:svg="http://www.w3.org/2000/svg"
   xmlns="http://www.w3.org/2000/svg"
   version="1.1"
   viewBox="0 0 25 29"
   height="29px"
   width="25px">
  <path
     d="M 12.5,29 C 19.40356,29 25,23.40356 25,16.5 25,9.59644 19.40356,4 12.5,4 5.59644,4 0,9.59644 0,16.5 0,23.40356 5.59644,29 12.5,29 l 0,0 z m 0,-3 C 7.25329,26 3,21.7467 3,16.5 3,11.25329 7.25329,7 12.5,7 17.7467,7 22,11.25329 22,16.5 22,21.7467 17.7467,26 12.5,26 l 0,0 z m -1,-15.5 0,6.04839 c 0,0.55228 0.44771,1 1,1 0.55228,0 1,-0.44772 1,-1 L 13.5,10.5 c 0,-0.55229 -0.44772,-1 -1,-1 -0.55229,0 -1,0.44771 -1,1 l 0,0 z M 11,3 l 0,1.54839 3,0 L 14,3 17.5,3 C 18.32843,3 19,2.32843 19,1.5 19,0.67157 18.32843,0 17.5,0 L 7.5,0 C 6.67157,0 6,0.67157 6,1.5 6,2.32843 6.67157,3 7.5,3 L 11,3 Z m 7.5,12.54839 -6,0 c -0.55229,0 -1,0.44771 -1,1 0,0.55228 0.44771,1 1,1 l 6,0 c 0.55228,0 1,-0.44772 1,-1 0,-0.55229 -0.44772,-1 -1,-1 z m 3.42922,-10.59884 -2.5,2.54839 c -0.58014,0.59138 -0.57104,1.54108 0.0203,2.12122 0.59138,0.58015 1.54108,0.57105 2.12123,-0.0203 l 2.5,-2.54838 C 24.65089,6.4591 24.64179,5.5094 24.05045,4.92925 23.45907,4.34911 22.50937,4.35821 21.92922,4.94955 Z"
     style="fill-rule:evenodd;" />
</svg>
