<?xml version="1.0" encoding="UTF-8" standalone="no"?>
<svg width="25px" height="29px" viewBox="0 0 25 29" version="1.1" xmlns="http://www.w3.org/2000/svg" xmlns:xlink="http://www.w3.org/1999/xlink" xmlns:sketch="http://www.bohemiancoding.com/sketch/ns">
    <!-- Generator: Sketch 3.5.2 (25235) - http://www.bohemiancoding.com/sketch -->
    <title>Shape</title>
    <desc>Created with Sketch.</desc>
    <defs></defs>
    <g id="Page-1" stroke="none" stroke-width="1" fill="none" fill-rule="evenodd" sketch:type="MSPage">
        <g id="Bus-Stop" sketch:type="MSArtboardGroup" transform="translate(-90.000000, -267.000000)" fill="#FFFFFF">
            <g id="Group" sketch:type="MSLayerGroup" transform="translate(90.000000, 259.000000)">
                <path d="M12.5,37 C19.4035594,37 25,31.4035594 25,24.5 C25,17.5964406 19.4035594,12 12.5,12 C5.59644063,12 0,17.5964406 0,24.5 C0,31.4035594 5.59644063,37 12.5,37 L12.5,37 Z M12.5,34 C7.25329488,34 3,29.7467051 3,24.5 C3,19.2532949 7.25329488,15 12.5,15 C17.7467051,15 22,19.2532949 22,24.5 C22,29.7467051 17.7467051,34 12.5,34 L12.5,34 Z M11.5,18.5 L11.5,24.5483879 C11.5,25.1006726 11.9477153,25.5483879 12.5,25.5483879 C13.0522847,25.5483879 13.5,25.1006726 13.5,24.5483879 L13.5,18.5 C13.5,17.9477153 13.0522847,17.5 12.5,17.5 C11.9477153,17.5 11.5,17.9477153 11.5,18.5 L11.5,18.5 Z M11,11 L11,12.5483879 L14,12.5483879 L14,11 L17.5,11 C18.3284271,11 19,10.3284271 19,9.5 C19,8.67157288 18.3284271,8 17.5,8 L7.5,8 C6.67157288,8 6,8.67157288 6,9.5 C6,10.3284271 6.67157288,11 7.5,11 L11,11 Z M18.5,23.5483879 L12.5,23.5483879 C11.9477153,23.5483879 11.5,23.9961031 11.5,24.5483879 C11.5,25.1006726 11.9477152,25.5483879 12.5,25.5483879 L18.5,25.5483879 C19.0522847,25.5483879 19.5,25.1006726 19.5,24.5483879 C19.5,23.9961031 19.0522848,23.5483879 18.5,23.5483879 Z M21.9292228,12.9495543 L19.4292228,15.4979422 C18.8490776,16.0893161 18.8581804,17.03902 19.4495543,17.6191651 C20.0409282,18.1993102 20.9906321,18.1902075 21.5707772,17.5988336 L24.0707772,15.0504457 C24.6509224,14.4590718 24.6418196,13.5093679 24.0504457,12.9292228 C23.4590718,12.3490776 22.5093679,12.3581804 21.9292228,12.9495543 Z" id="Shape" sketch:type="MSShapeGroup"></path>
            </g>
        </g>
    </g>
</svg>