<svg>
	<defs>
		<g id="menu">
			<path style="fill-rule:evenodd" d="M 0,3 0,6 24,6 24,3 0,3 Z m 0,7.5 0,3 24,0 0,-3 -24,0 z m 0,7.5 0,3 24,0 0,-3 -24,0 z" />
		</g>
		<g id="arrow-left">
			<path style="fill-rule:evenodd" d="m 6.110913,10.585786 17.192388,0 0,2.828428 -17.192388,0 L 14.696699,22 l -2,2 -12,-12 1.0000003,-1 10.9999997,-11 2,1.9999999 -8.585786,8.5857861 z" />
		</g>
		<g id="close">
			<path style="fill-rule:evenodd" d="M 11.999999,9.0000003 21,0 l 3,3 -9,9 9,9 -3,3 L 11.999999,15.000001 2.9999998,24 -2.7e-7,21 8.9999997,12 -2.7e-7,3 2.9999998,0 11.999999,9.0000003 Z" />
		</g>
		<g id="heart_outline">
			<path style="fill-rule:evenodd" d="M 6.9197198,0.91810345 C 3.112866,0.91810345 0,4.0309694 0,7.8378232 0,10.028191 1.025784,11.995978 2.6233836,13.262393 L 2.497306,13.14763 12,23.081897 21.502694,13.14763 21.376616,13.262393 C 22.974226,11.995978 24,10.028191 24,7.8378232 24,4.0309694 20.887134,0.91810345 17.08028,0.91810345 15.076463,0.91810345 13.26667,1.7799294 12,3.1503232 10.73333,1.7799294 8.923537,0.91810345 6.9197198,0.91810345 Z m 0,2.48275855 c 1.7478032,0 3.2423572,1.0006288 3.9698272,2.4536639 L 12,8.0721981 13.110453,5.8545259 c 0.72747,-1.4530351 2.222024,-2.4536639 3.969827,-2.4536639 2.465074,0 4.436961,1.9718869 4.436961,4.4369612 0,1.418338 -0.6561,2.6647088 -1.68265,3.4784478 l -0.06789,0.05334 L 12,19.490302 4.2332974,11.369612 4.1654095,11.316271 C 3.1388657,10.502532 2.4827586,9.2561612 2.4827586,7.8378232 c 0,-2.4650743 1.9718869,-4.4369612 4.4369612,-4.4369612 z" />
		</g>
		<g id="heart_solid">
			<path style="fill-rule:evenodd" d="M 2.4021877,12.632598 C 0.9387231,11.472512 0,9.679214 0,7.666666 0,4.1688599 2.8355262,1.3333339 6.3333323,1.3333339 c 2.4800397,0 4.6271447,1.42548 5.6666677,3.501803 1.039523,-2.076323 3.186628,-3.501803 5.666668,-3.501803 C 21.164474,1.3333339 24,4.1688599 24,7.666666 24,9.6792139 23.061277,11.472512 21.597803,12.632598 17.967175,16.428263 12,22.666666 12,22.666666 c 0,0 -6.0635815,-6.339203 -9.5978123,-10.034068 z" />
		</g>
	</defs>
</svg>