<?xml version="1.0" encoding="UTF-8" standalone="no"?>
<svg width="35px" height="56px" viewBox="0 0 35 56" version="1.1" xmlns="http://www.w3.org/2000/svg" xmlns:xlink="http://www.w3.org/1999/xlink">
    <!-- Generator: Sketch 3.6.1 (26313) - http://www.bohemiancoding.com/sketch -->
    <title>yh</title>
    <desc>Created with Sketch.</desc>
    <defs></defs>
    <g id="Page-1" stroke="none" stroke-width="1" fill="none" fill-rule="evenodd">
        <g id="icons" transform="translate(-235.000000, -252.000000)" fill="#000000">
            <g id="Group-4" transform="translate(235.000000, 252.000000)">
                <path d="M17.5,55.5 C17.5,55.5 34.8897059,27.1798941 34.8897059,17.6875 C34.8897059,8.19510586 27.1040694,0.5 17.5,0.5 C7.89593064,0.5 0.110294118,8.19510586 0.110294118,17.6875 C0.110294118,27.1798941 17.5,55.5 17.5,55.5 Z M17.5,17 C20.5375661,17 23,14.5375661 23,11.5 C23,8.46243388 20.5375661,6 17.5,6 C14.4624339,6 12,8.46243388 12,11.5 C12,14.5375661 14.4624339,17 17.5,17 Z M10,23.0010987 C10,20.2390681 12.2456516,18 14.9947828,18 L20.0052172,18 C22.7637596,18 25,20.2392729 25,23.0010987 L25,29 L10,29 L10,23.0010987 Z" id="yh"></path>
            </g>
        </g>
    </g>
</svg>