<?xml version="1.0" encoding="UTF-8" standalone="no"?>
<svg width="35px" height="56px" viewBox="0 0 35 56" version="1.1" xmlns="http://www.w3.org/2000/svg" xmlns:xlink="http://www.w3.org/1999/xlink">
    <!-- Generator: Sketch 3.6.1 (26313) - http://www.bohemiancoding.com/sketch -->
    <title>yh</title>
    <desc>Created with Sketch.</desc>
    <defs></defs>
    <g id="Page-1" stroke="none" stroke-width="1" fill="none" fill-rule="evenodd">
        <g id="icons" transform="translate(-235.000000, -252.000000)" fill="#000000">
            <path d="M252.5,307.5 C252.5,307.5 269.889706,279.179894 269.889706,269.6875 C269.889706,260.195106 262.104069,252.5 252.5,252.5 C242.895931,252.5 235.110294,260.195106 235.110294,269.6875 C235.110294,279.179894 252.5,307.5 252.5,307.5 Z M252.5,269 C255.537566,269 258,266.537566 258,263.5 C258,260.462434 255.537566,258 252.5,258 C249.462434,258 247,260.462434 247,263.5 C247,266.537566 249.462434,269 252.5,269 Z M245,275.001099 C245,272.239068 247.245652,270 249.994783,270 L255.005217,270 C257.76376,270 260,272.239273 260,275.001099 L260,281 L245,281 L245,275.001099 Z" id="yh"></path>
        </g>
    </g>
</svg>