<?xml version="1.0" encoding="UTF-8" standalone="no"?>
<svg width="446px" height="341px" viewBox="0 0 446 341" version="1.1" xmlns="http://www.w3.org/2000/svg" xmlns:xlink="http://www.w3.org/1999/xlink">
    <!-- Generator: Sketch 39.1 (31720) - http://www.bohemiancoding.com/sketch -->
    <title>buses round markers copy 2</title>
    <desc>Created with Sketch.</desc>
    <defs>
        <circle id="path-1" cx="32.5" cy="32.5" r="32.5"></circle>
        <mask id="mask-2" maskContentUnits="userSpaceOnUse" maskUnits="objectBoundingBox" x="0" y="0" width="65" height="65" fill="white">
            <use xlink:href="#path-1"></use>
        </mask>
        <circle id="path-3" cx="32.5" cy="32.5" r="32.5"></circle>
        <mask id="mask-4" maskContentUnits="userSpaceOnUse" maskUnits="objectBoundingBox" x="0" y="0" width="65" height="65" fill="white">
            <use xlink:href="#path-3"></use>
        </mask>
        <circle id="path-5" cx="32.5" cy="32.5" r="32.5"></circle>
        <mask id="mask-6" maskContentUnits="userSpaceOnUse" maskUnits="objectBoundingBox" x="0" y="0" width="65" height="65" fill="white">
            <use xlink:href="#path-5"></use>
        </mask>
        <circle id="path-7" cx="32.5" cy="32.5" r="32.5"></circle>
        <mask id="mask-8" maskContentUnits="userSpaceOnUse" maskUnits="objectBoundingBox" x="0" y="0" width="65" height="65" fill="white">
            <use xlink:href="#path-7"></use>
        </mask>
        <circle id="path-9" cx="32.5" cy="32.5" r="32.5"></circle>
        <mask id="mask-10" maskContentUnits="userSpaceOnUse" maskUnits="objectBoundingBox" x="0" y="0" width="65" height="65" fill="white">
            <use xlink:href="#path-9"></use>
        </mask>
        <circle id="path-11" cx="32.5" cy="32.5" r="32.5"></circle>
        <mask id="mask-12" maskContentUnits="userSpaceOnUse" maskUnits="objectBoundingBox" x="0" y="0" width="65" height="65" fill="white">
            <use xlink:href="#path-11"></use>
        </mask>
        <circle id="path-13" cx="32.5" cy="32.5" r="32.5"></circle>
        <mask id="mask-14" maskContentUnits="userSpaceOnUse" maskUnits="objectBoundingBox" x="0" y="0" width="65" height="65" fill="white">
            <use xlink:href="#path-13"></use>
        </mask>
        <circle id="path-15" cx="32.5" cy="32.5" r="32.5"></circle>
        <mask id="mask-16" maskContentUnits="userSpaceOnUse" maskUnits="objectBoundingBox" x="0" y="0" width="65" height="65" fill="white">
            <use xlink:href="#path-15"></use>
        </mask>
        <circle id="path-17" cx="32.5" cy="32.5" r="32.5"></circle>
        <mask id="mask-18" maskContentUnits="userSpaceOnUse" maskUnits="objectBoundingBox" x="0" y="0" width="65" height="65" fill="white">
            <use xlink:href="#path-17"></use>
        </mask>
        <circle id="path-19" cx="32.5" cy="32.5" r="32.5"></circle>
        <mask id="mask-20" maskContentUnits="userSpaceOnUse" maskUnits="objectBoundingBox" x="0" y="0" width="65" height="65" fill="white">
            <use xlink:href="#path-19"></use>
        </mask>
        <circle id="path-21" cx="32.5" cy="32.5" r="32.5"></circle>
        <mask id="mask-22" maskContentUnits="userSpaceOnUse" maskUnits="objectBoundingBox" x="0" y="0" width="65" height="65" fill="white">
            <use xlink:href="#path-21"></use>
        </mask>
        <circle id="path-23" cx="32.5" cy="32.5" r="32.5"></circle>
        <mask id="mask-24" maskContentUnits="userSpaceOnUse" maskUnits="objectBoundingBox" x="0" y="0" width="65" height="65" fill="white">
            <use xlink:href="#path-23"></use>
        </mask>
        <circle id="path-25" cx="32.5" cy="32.5" r="32.5"></circle>
        <mask id="mask-26" maskContentUnits="userSpaceOnUse" maskUnits="objectBoundingBox" x="0" y="0" width="65" height="65" fill="white">
            <use xlink:href="#path-25"></use>
        </mask>
        <circle id="path-27" cx="32.5" cy="32.5" r="32.5"></circle>
        <mask id="mask-28" maskContentUnits="userSpaceOnUse" maskUnits="objectBoundingBox" x="0" y="0" width="65" height="65" fill="white">
            <use xlink:href="#path-27"></use>
        </mask>
        <circle id="path-29" cx="32.5" cy="32.5" r="32.5"></circle>
        <mask id="mask-30" maskContentUnits="userSpaceOnUse" maskUnits="objectBoundingBox" x="0" y="0" width="65" height="65" fill="white">
            <use xlink:href="#path-29"></use>
        </mask>
        <circle id="path-31" cx="32.5" cy="32.5" r="32.5"></circle>
        <mask id="mask-32" maskContentUnits="userSpaceOnUse" maskUnits="objectBoundingBox" x="0" y="0" width="65" height="65" fill="white">
            <use xlink:href="#path-31"></use>
        </mask>
        <circle id="path-33" cx="32.5" cy="32.5" r="32.5"></circle>
        <mask id="mask-34" maskContentUnits="userSpaceOnUse" maskUnits="objectBoundingBox" x="0" y="0" width="65" height="65" fill="white">
            <use xlink:href="#path-33"></use>
        </mask>
        <circle id="path-35" cx="32.5" cy="32.5" r="32.5"></circle>
        <mask id="mask-36" maskContentUnits="userSpaceOnUse" maskUnits="objectBoundingBox" x="0" y="0" width="65" height="65" fill="white">
            <use xlink:href="#path-35"></use>
        </mask>
        <circle id="path-37" cx="32.5" cy="32.5" r="32.5"></circle>
        <mask id="mask-38" maskContentUnits="userSpaceOnUse" maskUnits="objectBoundingBox" x="0" y="0" width="65" height="65" fill="white">
            <use xlink:href="#path-37"></use>
        </mask>
    </defs>
    <g id="Page-1" stroke="none" stroke-width="1" fill="none" fill-rule="evenodd">
        <g id="buses-round-markers-copy-2">
            <g id="Group-6" transform="translate(14.000000, 15.000000)">
                <g id="Group">
                    <use id="Oval-2" stroke="#FFFFFF" mask="url(#mask-2)" stroke-width="4" fill="#FFF300" xlink:href="#path-1"></use>
                    <path d="M47,13.5 C48.1045695,13.5 49,14.3954305 49,15.5 L49,44.5 C49,45.6045695 48.1045695,46.5 47,46.5 L18,46.5 C16.8954305,46.5 16,45.6045695 16,44.5 L16,15.5 C16,14.3954305 16.8954305,13.5 18,13.5 L47,13.5 Z M18,15.5 L18,44.5 L47,44.5 L47,15.5 L18,15.5 Z M43,20.5 C44.1045695,20.5 45,21.3954305 45,22.5 L45,32.5 C45,33.6045695 44.1045695,34.5 43,34.5 L22,34.5 C20.8954305,34.5 20,33.6045695 20,32.5 L20,22.5 C20,21.3954305 20.8954305,20.5 22,20.5 L43,20.5 Z M22,22.5 L22,32.5 L43,32.5 L43,22.5 L22,22.5 Z M23,47.5 C24.1045695,47.5 25,48.3954305 25,49.5 L25,51.5 C25,52.6045695 24.1045695,53.5 23,53.5 L21,53.5 C19.8954305,53.5 19,52.6045695 19,51.5 L19,49.5 C19,48.3954305 19.8954305,47.5 21,47.5 L23,47.5 Z M21,49.5 L21,51.5 L23,51.5 L23,49.5 L21,49.5 Z M44,47.5 C45.1045695,47.5 46,48.3954305 46,49.5 L46,51.5 C46,52.6045695 45.1045695,53.5 44,53.5 L42,53.5 C40.8954305,53.5 40,52.6045695 40,51.5 L40,49.5 C40,48.3954305 40.8954305,47.5 42,47.5 L44,47.5 Z M42,49.5 L42,51.5 L44,51.5 L44,49.5 L42,49.5 Z M20,40 C20,38.0670034 21.5670034,36.5 23.5,36.5 C25.4329966,36.5 27,38.0670034 27,40 C27,41.9329966 25.4329966,43.5 23.5,43.5 C21.5670034,43.5 20,41.9329966 20,40 Z M25,40 C25,39.1715729 24.3284271,38.5 23.5,38.5 C22.6715729,38.5 22,39.1715729 22,40 C22,40.8284271 22.6715729,41.5 23.5,41.5 C24.3284271,41.5 25,40.8284271 25,40 Z M38,40 C38,38.0670034 39.5670034,36.5 41.5,36.5 C43.4329966,36.5 45,38.0670034 45,40 C45,41.9329966 43.4329966,43.5 41.5,43.5 C39.5670034,43.5 38,41.9329966 38,40 Z M43,40 C43,39.1715729 42.3284271,38.5 41.5,38.5 C40.6715729,38.5 40,39.1715729 40,40 C40,40.8284271 40.6715729,41.5 41.5,41.5 C42.3284271,41.5 43,40.8284271 43,40 Z M40,19 C40.5522847,19 41,18.5522847 41,18 C41,17.4477153 40.5522847,17 40,17 L25,17 C24.4477153,17 24,17.4477153 24,18 C24,18.5522847 24.4477153,19 25,19 L40,19 Z" id="Combined-Shape" fill="#947514"></path>
                </g>
                <g id="Group-Copy-5" transform="translate(0.000000, 81.000000)">
                    <use id="Oval-2" stroke="#FFFFFF" mask="url(#mask-4)" stroke-width="4" fill="#FAA003" xlink:href="#path-3"></use>
                    <path d="M47,13.5 C48.1045695,13.5 49,14.3954305 49,15.5 L49,44.5 C49,45.6045695 48.1045695,46.5 47,46.5 L18,46.5 C16.8954305,46.5 16,45.6045695 16,44.5 L16,15.5 C16,14.3954305 16.8954305,13.5 18,13.5 L47,13.5 Z M18,15.5 L18,44.5 L47,44.5 L47,15.5 L18,15.5 Z M43,20.5 C44.1045695,20.5 45,21.3954305 45,22.5 L45,32.5 C45,33.6045695 44.1045695,34.5 43,34.5 L22,34.5 C20.8954305,34.5 20,33.6045695 20,32.5 L20,22.5 C20,21.3954305 20.8954305,20.5 22,20.5 L43,20.5 Z M22,22.5 L22,32.5 L43,32.5 L43,22.5 L22,22.5 Z M23,47.5 C24.1045695,47.5 25,48.3954305 25,49.5 L25,51.5 C25,52.6045695 24.1045695,53.5 23,53.5 L21,53.5 C19.8954305,53.5 19,52.6045695 19,51.5 L19,49.5 C19,48.3954305 19.8954305,47.5 21,47.5 L23,47.5 Z M21,49.5 L21,51.5 L23,51.5 L23,49.5 L21,49.5 Z M44,47.5 C45.1045695,47.5 46,48.3954305 46,49.5 L46,51.5 C46,52.6045695 45.1045695,53.5 44,53.5 L42,53.5 C40.8954305,53.5 40,52.6045695 40,51.5 L40,49.5 C40,48.3954305 40.8954305,47.5 42,47.5 L44,47.5 Z M42,49.5 L42,51.5 L44,51.5 L44,49.5 L42,49.5 Z M20,40 C20,38.0670034 21.5670034,36.5 23.5,36.5 C25.4329966,36.5 27,38.0670034 27,40 C27,41.9329966 25.4329966,43.5 23.5,43.5 C21.5670034,43.5 20,41.9329966 20,40 Z M25,40 C25,39.1715729 24.3284271,38.5 23.5,38.5 C22.6715729,38.5 22,39.1715729 22,40 C22,40.8284271 22.6715729,41.5 23.5,41.5 C24.3284271,41.5 25,40.8284271 25,40 Z M38,40 C38,38.0670034 39.5670034,36.5 41.5,36.5 C43.4329966,36.5 45,38.0670034 45,40 C45,41.9329966 43.4329966,43.5 41.5,43.5 C39.5670034,43.5 38,41.9329966 38,40 Z M43,40 C43,39.1715729 42.3284271,38.5 41.5,38.5 C40.6715729,38.5 40,39.1715729 40,40 C40,40.8284271 40.6715729,41.5 41.5,41.5 C42.3284271,41.5 43,40.8284271 43,40 Z M40,19 C40.5522847,19 41,18.5522847 41,18 C41,17.4477153 40.5522847,17 40,17 L25,17 C24.4477153,17 24,17.4477153 24,18 C24,18.5522847 24.4477153,19 25,19 L40,19 Z" id="Combined-Shape" fill="#813F11"></path>
                </g>
                <g id="Group-Copy-10" transform="translate(0.000000, 162.000000)">
                    <use id="Oval-2" stroke="#FFFFFF" mask="url(#mask-6)" stroke-width="4" fill="#981B4B" xlink:href="#path-5"></use>
                    <path d="M47,13.5 C48.1045695,13.5 49,14.3954305 49,15.5 L49,44.5 C49,45.6045695 48.1045695,46.5 47,46.5 L18,46.5 C16.8954305,46.5 16,45.6045695 16,44.5 L16,15.5 C16,14.3954305 16.8954305,13.5 18,13.5 L47,13.5 Z M18,15.5 L18,44.5 L47,44.5 L47,15.5 L18,15.5 Z M43,20.5 C44.1045695,20.5 45,21.3954305 45,22.5 L45,32.5 C45,33.6045695 44.1045695,34.5 43,34.5 L22,34.5 C20.8954305,34.5 20,33.6045695 20,32.5 L20,22.5 C20,21.3954305 20.8954305,20.5 22,20.5 L43,20.5 Z M22,22.5 L22,32.5 L43,32.5 L43,22.5 L22,22.5 Z M23,47.5 C24.1045695,47.5 25,48.3954305 25,49.5 L25,51.5 C25,52.6045695 24.1045695,53.5 23,53.5 L21,53.5 C19.8954305,53.5 19,52.6045695 19,51.5 L19,49.5 C19,48.3954305 19.8954305,47.5 21,47.5 L23,47.5 Z M21,49.5 L21,51.5 L23,51.5 L23,49.5 L21,49.5 Z M44,47.5 C45.1045695,47.5 46,48.3954305 46,49.5 L46,51.5 C46,52.6045695 45.1045695,53.5 44,53.5 L42,53.5 C40.8954305,53.5 40,52.6045695 40,51.5 L40,49.5 C40,48.3954305 40.8954305,47.5 42,47.5 L44,47.5 Z M42,49.5 L42,51.5 L44,51.5 L44,49.5 L42,49.5 Z M20,40 C20,38.0670034 21.5670034,36.5 23.5,36.5 C25.4329966,36.5 27,38.0670034 27,40 C27,41.9329966 25.4329966,43.5 23.5,43.5 C21.5670034,43.5 20,41.9329966 20,40 Z M25,40 C25,39.1715729 24.3284271,38.5 23.5,38.5 C22.6715729,38.5 22,39.1715729 22,40 C22,40.8284271 22.6715729,41.5 23.5,41.5 C24.3284271,41.5 25,40.8284271 25,40 Z M38,40 C38,38.0670034 39.5670034,36.5 41.5,36.5 C43.4329966,36.5 45,38.0670034 45,40 C45,41.9329966 43.4329966,43.5 41.5,43.5 C39.5670034,43.5 38,41.9329966 38,40 Z M43,40 C43,39.1715729 42.3284271,38.5 41.5,38.5 C40.6715729,38.5 40,39.1715729 40,40 C40,40.8284271 40.6715729,41.5 41.5,41.5 C42.3284271,41.5 43,40.8284271 43,40 Z M40,19 C40.5522847,19 41,18.5522847 41,18 C41,17.4477153 40.5522847,17 40,17 L25,17 C24.4477153,17 24,17.4477153 24,18 C24,18.5522847 24.4477153,19 25,19 L40,19 Z" id="Combined-Shape" fill="#D098AE"></path>
                </g>
                <g id="Group-Copy-15" transform="translate(0.000000, 247.000000)">
                    <use id="Oval-2" stroke="#FFFFFF" mask="url(#mask-8)" stroke-width="4" fill="#262A2D" xlink:href="#path-7"></use>
                    <path d="M47,13.5 C48.1045695,13.5 49,14.3954305 49,15.5 L49,44.5 C49,45.6045695 48.1045695,46.5 47,46.5 L18,46.5 C16.8954305,46.5 16,45.6045695 16,44.5 L16,15.5 C16,14.3954305 16.8954305,13.5 18,13.5 L47,13.5 Z M18,15.5 L18,44.5 L47,44.5 L47,15.5 L18,15.5 Z M43,20.5 C44.1045695,20.5 45,21.3954305 45,22.5 L45,32.5 C45,33.6045695 44.1045695,34.5 43,34.5 L22,34.5 C20.8954305,34.5 20,33.6045695 20,32.5 L20,22.5 C20,21.3954305 20.8954305,20.5 22,20.5 L43,20.5 Z M22,22.5 L22,32.5 L43,32.5 L43,22.5 L22,22.5 Z M23,47.5 C24.1045695,47.5 25,48.3954305 25,49.5 L25,51.5 C25,52.6045695 24.1045695,53.5 23,53.5 L21,53.5 C19.8954305,53.5 19,52.6045695 19,51.5 L19,49.5 C19,48.3954305 19.8954305,47.5 21,47.5 L23,47.5 Z M21,49.5 L21,51.5 L23,51.5 L23,49.5 L21,49.5 Z M44,47.5 C45.1045695,47.5 46,48.3954305 46,49.5 L46,51.5 C46,52.6045695 45.1045695,53.5 44,53.5 L42,53.5 C40.8954305,53.5 40,52.6045695 40,51.5 L40,49.5 C40,48.3954305 40.8954305,47.5 42,47.5 L44,47.5 Z M42,49.5 L42,51.5 L44,51.5 L44,49.5 L42,49.5 Z M20,40 C20,38.0670034 21.5670034,36.5 23.5,36.5 C25.4329966,36.5 27,38.0670034 27,40 C27,41.9329966 25.4329966,43.5 23.5,43.5 C21.5670034,43.5 20,41.9329966 20,40 Z M25,40 C25,39.1715729 24.3284271,38.5 23.5,38.5 C22.6715729,38.5 22,39.1715729 22,40 C22,40.8284271 22.6715729,41.5 23.5,41.5 C24.3284271,41.5 25,40.8284271 25,40 Z M38,40 C38,38.0670034 39.5670034,36.5 41.5,36.5 C43.4329966,36.5 45,38.0670034 45,40 C45,41.9329966 43.4329966,43.5 41.5,43.5 C39.5670034,43.5 38,41.9329966 38,40 Z M43,40 C43,39.1715729 42.3284271,38.5 41.5,38.5 C40.6715729,38.5 40,39.1715729 40,40 C40,40.8284271 40.6715729,41.5 41.5,41.5 C42.3284271,41.5 43,40.8284271 43,40 Z M40,19 C40.5522847,19 41,18.5522847 41,18 C41,17.4477153 40.5522847,17 40,17 L25,17 C24.4477153,17 24,17.4477153 24,18 C24,18.5522847 24.4477153,19 25,19 L40,19 Z" id="Combined-Shape" fill="#9D9EA0"></path>
                </g>
                <g id="Group-Copy" transform="translate(88.000000, 0.000000)">
                    <use id="Oval-2" stroke="#FFFFFF" mask="url(#mask-10)" stroke-width="4" fill="#F11714" xlink:href="#path-9"></use>
                    <path d="M47,13.5 C48.1045695,13.5 49,14.3954305 49,15.5 L49,44.5 C49,45.6045695 48.1045695,46.5 47,46.5 L18,46.5 C16.8954305,46.5 16,45.6045695 16,44.5 L16,15.5 C16,14.3954305 16.8954305,13.5 18,13.5 L47,13.5 Z M18,15.5 L18,44.5 L47,44.5 L47,15.5 L18,15.5 Z M43,20.5 C44.1045695,20.5 45,21.3954305 45,22.5 L45,32.5 C45,33.6045695 44.1045695,34.5 43,34.5 L22,34.5 C20.8954305,34.5 20,33.6045695 20,32.5 L20,22.5 C20,21.3954305 20.8954305,20.5 22,20.5 L43,20.5 Z M22,22.5 L22,32.5 L43,32.5 L43,22.5 L22,22.5 Z M23,47.5 C24.1045695,47.5 25,48.3954305 25,49.5 L25,51.5 C25,52.6045695 24.1045695,53.5 23,53.5 L21,53.5 C19.8954305,53.5 19,52.6045695 19,51.5 L19,49.5 C19,48.3954305 19.8954305,47.5 21,47.5 L23,47.5 Z M21,49.5 L21,51.5 L23,51.5 L23,49.5 L21,49.5 Z M44,47.5 C45.1045695,47.5 46,48.3954305 46,49.5 L46,51.5 C46,52.6045695 45.1045695,53.5 44,53.5 L42,53.5 C40.8954305,53.5 40,52.6045695 40,51.5 L40,49.5 C40,48.3954305 40.8954305,47.5 42,47.5 L44,47.5 Z M42,49.5 L42,51.5 L44,51.5 L44,49.5 L42,49.5 Z M20,40 C20,38.0670034 21.5670034,36.5 23.5,36.5 C25.4329966,36.5 27,38.0670034 27,40 C27,41.9329966 25.4329966,43.5 23.5,43.5 C21.5670034,43.5 20,41.9329966 20,40 Z M25,40 C25,39.1715729 24.3284271,38.5 23.5,38.5 C22.6715729,38.5 22,39.1715729 22,40 C22,40.8284271 22.6715729,41.5 23.5,41.5 C24.3284271,41.5 25,40.8284271 25,40 Z M38,40 C38,38.0670034 39.5670034,36.5 41.5,36.5 C43.4329966,36.5 45,38.0670034 45,40 C45,41.9329966 43.4329966,43.5 41.5,43.5 C39.5670034,43.5 38,41.9329966 38,40 Z M43,40 C43,39.1715729 42.3284271,38.5 41.5,38.5 C40.6715729,38.5 40,39.1715729 40,40 C40,40.8284271 40.6715729,41.5 41.5,41.5 C42.3284271,41.5 43,40.8284271 43,40 Z M40,19 C40.5522847,19 41,18.5522847 41,18 C41,17.4477153 40.5522847,17 40,17 L25,17 C24.4477153,17 24,17.4477153 24,18 C24,18.5522847 24.4477153,19 25,19 L40,19 Z" id="Combined-Shape" fill="#7E1B27"></path>
                </g>
                <g id="Group-Copy-6" transform="translate(88.000000, 81.000000)">
                    <use id="Oval-2" stroke="#FFFFFF" mask="url(#mask-12)" stroke-width="4" fill="#808285" xlink:href="#path-11"></use>
                    <path d="M47,13.5 C48.1045695,13.5 49,14.3954305 49,15.5 L49,44.5 C49,45.6045695 48.1045695,46.5 47,46.5 L18,46.5 C16.8954305,46.5 16,45.6045695 16,44.5 L16,15.5 C16,14.3954305 16.8954305,13.5 18,13.5 L47,13.5 Z M18,15.5 L18,44.5 L47,44.5 L47,15.5 L18,15.5 Z M43,20.5 C44.1045695,20.5 45,21.3954305 45,22.5 L45,32.5 C45,33.6045695 44.1045695,34.5 43,34.5 L22,34.5 C20.8954305,34.5 20,33.6045695 20,32.5 L20,22.5 C20,21.3954305 20.8954305,20.5 22,20.5 L43,20.5 Z M22,22.5 L22,32.5 L43,32.5 L43,22.5 L22,22.5 Z M23,47.5 C24.1045695,47.5 25,48.3954305 25,49.5 L25,51.5 C25,52.6045695 24.1045695,53.5 23,53.5 L21,53.5 C19.8954305,53.5 19,52.6045695 19,51.5 L19,49.5 C19,48.3954305 19.8954305,47.5 21,47.5 L23,47.5 Z M21,49.5 L21,51.5 L23,51.5 L23,49.5 L21,49.5 Z M44,47.5 C45.1045695,47.5 46,48.3954305 46,49.5 L46,51.5 C46,52.6045695 45.1045695,53.5 44,53.5 L42,53.5 C40.8954305,53.5 40,52.6045695 40,51.5 L40,49.5 C40,48.3954305 40.8954305,47.5 42,47.5 L44,47.5 Z M42,49.5 L42,51.5 L44,51.5 L44,49.5 L42,49.5 Z M20,40 C20,38.0670034 21.5670034,36.5 23.5,36.5 C25.4329966,36.5 27,38.0670034 27,40 C27,41.9329966 25.4329966,43.5 23.5,43.5 C21.5670034,43.5 20,41.9329966 20,40 Z M25,40 C25,39.1715729 24.3284271,38.5 23.5,38.5 C22.6715729,38.5 22,39.1715729 22,40 C22,40.8284271 22.6715729,41.5 23.5,41.5 C24.3284271,41.5 25,40.8284271 25,40 Z M38,40 C38,38.0670034 39.5670034,36.5 41.5,36.5 C43.4329966,36.5 45,38.0670034 45,40 C45,41.9329966 43.4329966,43.5 41.5,43.5 C39.5670034,43.5 38,41.9329966 38,40 Z M43,40 C43,39.1715729 42.3284271,38.5 41.5,38.5 C40.6715729,38.5 40,39.1715729 40,40 C40,40.8284271 40.6715729,41.5 41.5,41.5 C42.3284271,41.5 43,40.8284271 43,40 Z M40,19 C40.5522847,19 41,18.5522847 41,18 C41,17.4477153 40.5522847,17 40,17 L25,17 C24.4477153,17 24,17.4477153 24,18 C24,18.5522847 24.4477153,19 25,19 L40,19 Z" id="Combined-Shape" fill="#393A3B"></path>
                </g>
                <g id="Group-Copy-11" transform="translate(88.000000, 162.000000)">
                    <use id="Oval-2" stroke="#FFFFFF" mask="url(#mask-14)" stroke-width="4" fill="#006893" xlink:href="#path-13"></use>
                    <path d="M47,13.5 C48.1045695,13.5 49,14.3954305 49,15.5 L49,44.5 C49,45.6045695 48.1045695,46.5 47,46.5 L18,46.5 C16.8954305,46.5 16,45.6045695 16,44.5 L16,15.5 C16,14.3954305 16.8954305,13.5 18,13.5 L47,13.5 Z M18,15.5 L18,44.5 L47,44.5 L47,15.5 L18,15.5 Z M43,20.5 C44.1045695,20.5 45,21.3954305 45,22.5 L45,32.5 C45,33.6045695 44.1045695,34.5 43,34.5 L22,34.5 C20.8954305,34.5 20,33.6045695 20,32.5 L20,22.5 C20,21.3954305 20.8954305,20.5 22,20.5 L43,20.5 Z M22,22.5 L22,32.5 L43,32.5 L43,22.5 L22,22.5 Z M23,47.5 C24.1045695,47.5 25,48.3954305 25,49.5 L25,51.5 C25,52.6045695 24.1045695,53.5 23,53.5 L21,53.5 C19.8954305,53.5 19,52.6045695 19,51.5 L19,49.5 C19,48.3954305 19.8954305,47.5 21,47.5 L23,47.5 Z M21,49.5 L21,51.5 L23,51.5 L23,49.5 L21,49.5 Z M44,47.5 C45.1045695,47.5 46,48.3954305 46,49.5 L46,51.5 C46,52.6045695 45.1045695,53.5 44,53.5 L42,53.5 C40.8954305,53.5 40,52.6045695 40,51.5 L40,49.5 C40,48.3954305 40.8954305,47.5 42,47.5 L44,47.5 Z M42,49.5 L42,51.5 L44,51.5 L44,49.5 L42,49.5 Z M20,40 C20,38.0670034 21.5670034,36.5 23.5,36.5 C25.4329966,36.5 27,38.0670034 27,40 C27,41.9329966 25.4329966,43.5 23.5,43.5 C21.5670034,43.5 20,41.9329966 20,40 Z M25,40 C25,39.1715729 24.3284271,38.5 23.5,38.5 C22.6715729,38.5 22,39.1715729 22,40 C22,40.8284271 22.6715729,41.5 23.5,41.5 C24.3284271,41.5 25,40.8284271 25,40 Z M38,40 C38,38.0670034 39.5670034,36.5 41.5,36.5 C43.4329966,36.5 45,38.0670034 45,40 C45,41.9329966 43.4329966,43.5 41.5,43.5 C39.5670034,43.5 38,41.9329966 38,40 Z M43,40 C43,39.1715729 42.3284271,38.5 41.5,38.5 C40.6715729,38.5 40,39.1715729 40,40 C40,40.8284271 40.6715729,41.5 41.5,41.5 C42.3284271,41.5 43,40.8284271 43,40 Z M40,19 C40.5522847,19 41,18.5522847 41,18 C41,17.4477153 40.5522847,17 40,17 L25,17 C24.4477153,17 24,17.4477153 24,18 C24,18.5522847 24.4477153,19 25,19 L40,19 Z" id="Combined-Shape" fill="#111F55"></path>
                </g>
                <g id="Group-Copy-16" transform="translate(88.000000, 247.000000)">
                    <use id="Oval-2" stroke="#FFFFFF" mask="url(#mask-16)" stroke-width="4" fill="#6D3065" xlink:href="#path-15"></use>
                    <path d="M47,13.5 C48.1045695,13.5 49,14.3954305 49,15.5 L49,44.5 C49,45.6045695 48.1045695,46.5 47,46.5 L18,46.5 C16.8954305,46.5 16,45.6045695 16,44.5 L16,15.5 C16,14.3954305 16.8954305,13.5 18,13.5 L47,13.5 Z M18,15.5 L18,44.5 L47,44.5 L47,15.5 L18,15.5 Z M43,20.5 C44.1045695,20.5 45,21.3954305 45,22.5 L45,32.5 C45,33.6045695 44.1045695,34.5 43,34.5 L22,34.5 C20.8954305,34.5 20,33.6045695 20,32.5 L20,22.5 C20,21.3954305 20.8954305,20.5 22,20.5 L43,20.5 Z M22,22.5 L22,32.5 L43,32.5 L43,22.5 L22,22.5 Z M23,47.5 C24.1045695,47.5 25,48.3954305 25,49.5 L25,51.5 C25,52.6045695 24.1045695,53.5 23,53.5 L21,53.5 C19.8954305,53.5 19,52.6045695 19,51.5 L19,49.5 C19,48.3954305 19.8954305,47.5 21,47.5 L23,47.5 Z M21,49.5 L21,51.5 L23,51.5 L23,49.5 L21,49.5 Z M44,47.5 C45.1045695,47.5 46,48.3954305 46,49.5 L46,51.5 C46,52.6045695 45.1045695,53.5 44,53.5 L42,53.5 C40.8954305,53.5 40,52.6045695 40,51.5 L40,49.5 C40,48.3954305 40.8954305,47.5 42,47.5 L44,47.5 Z M42,49.5 L42,51.5 L44,51.5 L44,49.5 L42,49.5 Z M20,40 C20,38.0670034 21.5670034,36.5 23.5,36.5 C25.4329966,36.5 27,38.0670034 27,40 C27,41.9329966 25.4329966,43.5 23.5,43.5 C21.5670034,43.5 20,41.9329966 20,40 Z M25,40 C25,39.1715729 24.3284271,38.5 23.5,38.5 C22.6715729,38.5 22,39.1715729 22,40 C22,40.8284271 22.6715729,41.5 23.5,41.5 C24.3284271,41.5 25,40.8284271 25,40 Z M38,40 C38,38.0670034 39.5670034,36.5 41.5,36.5 C43.4329966,36.5 45,38.0670034 45,40 C45,41.9329966 43.4329966,43.5 41.5,43.5 C39.5670034,43.5 38,41.9329966 38,40 Z M43,40 C43,39.1715729 42.3284271,38.5 41.5,38.5 C40.6715729,38.5 40,39.1715729 40,40 C40,40.8284271 40.6715729,41.5 41.5,41.5 C42.3284271,41.5 43,40.8284271 43,40 Z M40,19 C40.5522847,19 41,18.5522847 41,18 C41,17.4477153 40.5522847,17 40,17 L25,17 C24.4477153,17 24,17.4477153 24,18 C24,18.5522847 24.4477153,19 25,19 L40,19 Z" id="Combined-Shape" fill="#C788BF"></path>
                </g>
                <g id="Group-Copy-2" transform="translate(177.000000, 0.000000)">
                    <use id="Oval-2" stroke="#FFFFFF" mask="url(#mask-18)" stroke-width="4" fill="#A78AC2" xlink:href="#path-17"></use>
                    <path d="M47,13.5 C48.1045695,13.5 49,14.3954305 49,15.5 L49,44.5 C49,45.6045695 48.1045695,46.5 47,46.5 L18,46.5 C16.8954305,46.5 16,45.6045695 16,44.5 L16,15.5 C16,14.3954305 16.8954305,13.5 18,13.5 L47,13.5 Z M18,15.5 L18,44.5 L47,44.5 L47,15.5 L18,15.5 Z M43,20.5 C44.1045695,20.5 45,21.3954305 45,22.5 L45,32.5 C45,33.6045695 44.1045695,34.5 43,34.5 L22,34.5 C20.8954305,34.5 20,33.6045695 20,32.5 L20,22.5 C20,21.3954305 20.8954305,20.5 22,20.5 L43,20.5 Z M22,22.5 L22,32.5 L43,32.5 L43,22.5 L22,22.5 Z M23,47.5 C24.1045695,47.5 25,48.3954305 25,49.5 L25,51.5 C25,52.6045695 24.1045695,53.5 23,53.5 L21,53.5 C19.8954305,53.5 19,52.6045695 19,51.5 L19,49.5 C19,48.3954305 19.8954305,47.5 21,47.5 L23,47.5 Z M21,49.5 L21,51.5 L23,51.5 L23,49.5 L21,49.5 Z M44,47.5 C45.1045695,47.5 46,48.3954305 46,49.5 L46,51.5 C46,52.6045695 45.1045695,53.5 44,53.5 L42,53.5 C40.8954305,53.5 40,52.6045695 40,51.5 L40,49.5 C40,48.3954305 40.8954305,47.5 42,47.5 L44,47.5 Z M42,49.5 L42,51.5 L44,51.5 L44,49.5 L42,49.5 Z M20,40 C20,38.0670034 21.5670034,36.5 23.5,36.5 C25.4329966,36.5 27,38.0670034 27,40 C27,41.9329966 25.4329966,43.5 23.5,43.5 C21.5670034,43.5 20,41.9329966 20,40 Z M25,40 C25,39.1715729 24.3284271,38.5 23.5,38.5 C22.6715729,38.5 22,39.1715729 22,40 C22,40.8284271 22.6715729,41.5 23.5,41.5 C24.3284271,41.5 25,40.8284271 25,40 Z M38,40 C38,38.0670034 39.5670034,36.5 41.5,36.5 C43.4329966,36.5 45,38.0670034 45,40 C45,41.9329966 43.4329966,43.5 41.5,43.5 C39.5670034,43.5 38,41.9329966 38,40 Z M43,40 C43,39.1715729 42.3284271,38.5 41.5,38.5 C40.6715729,38.5 40,39.1715729 40,40 C40,40.8284271 40.6715729,41.5 41.5,41.5 C42.3284271,41.5 43,40.8284271 43,40 Z M40,19 C40.5522847,19 41,18.5522847 41,18 C41,17.4477153 40.5522847,17 40,17 L25,17 C24.4477153,17 24,17.4477153 24,18 C24,18.5522847 24.4477153,19 25,19 L40,19 Z" id="Combined-Shape" fill="#5B2397"></path>
                </g>
                <g id="Group-Copy-7" transform="translate(177.000000, 81.000000)">
                    <use id="Oval-2" stroke="#FFFFFF" mask="url(#mask-20)" stroke-width="4" fill="#AA703E" xlink:href="#path-19"></use>
                    <path d="M47,13.5 C48.1045695,13.5 49,14.3954305 49,15.5 L49,44.5 C49,45.6045695 48.1045695,46.5 47,46.5 L18,46.5 C16.8954305,46.5 16,45.6045695 16,44.5 L16,15.5 C16,14.3954305 16.8954305,13.5 18,13.5 L47,13.5 Z M18,15.5 L18,44.5 L47,44.5 L47,15.5 L18,15.5 Z M43,20.5 C44.1045695,20.5 45,21.3954305 45,22.5 L45,32.5 C45,33.6045695 44.1045695,34.5 43,34.5 L22,34.5 C20.8954305,34.5 20,33.6045695 20,32.5 L20,22.5 C20,21.3954305 20.8954305,20.5 22,20.5 L43,20.5 Z M22,22.5 L22,32.5 L43,32.5 L43,22.5 L22,22.5 Z M23,47.5 C24.1045695,47.5 25,48.3954305 25,49.5 L25,51.5 C25,52.6045695 24.1045695,53.5 23,53.5 L21,53.5 C19.8954305,53.5 19,52.6045695 19,51.5 L19,49.5 C19,48.3954305 19.8954305,47.5 21,47.5 L23,47.5 Z M21,49.5 L21,51.5 L23,51.5 L23,49.5 L21,49.5 Z M44,47.5 C45.1045695,47.5 46,48.3954305 46,49.5 L46,51.5 C46,52.6045695 45.1045695,53.5 44,53.5 L42,53.5 C40.8954305,53.5 40,52.6045695 40,51.5 L40,49.5 C40,48.3954305 40.8954305,47.5 42,47.5 L44,47.5 Z M42,49.5 L42,51.5 L44,51.5 L44,49.5 L42,49.5 Z M20,40 C20,38.0670034 21.5670034,36.5 23.5,36.5 C25.4329966,36.5 27,38.0670034 27,40 C27,41.9329966 25.4329966,43.5 23.5,43.5 C21.5670034,43.5 20,41.9329966 20,40 Z M25,40 C25,39.1715729 24.3284271,38.5 23.5,38.5 C22.6715729,38.5 22,39.1715729 22,40 C22,40.8284271 22.6715729,41.5 23.5,41.5 C24.3284271,41.5 25,40.8284271 25,40 Z M38,40 C38,38.0670034 39.5670034,36.5 41.5,36.5 C43.4329966,36.5 45,38.0670034 45,40 C45,41.9329966 43.4329966,43.5 41.5,43.5 C39.5670034,43.5 38,41.9329966 38,40 Z M43,40 C43,39.1715729 42.3284271,38.5 41.5,38.5 C40.6715729,38.5 40,39.1715729 40,40 C40,40.8284271 40.6715729,41.5 41.5,41.5 C42.3284271,41.5 43,40.8284271 43,40 Z M40,19 C40.5522847,19 41,18.5522847 41,18 C41,17.4477153 40.5522847,17 40,17 L25,17 C24.4477153,17 24,17.4477153 24,18 C24,18.5522847 24.4477153,19 25,19 L40,19 Z" id="Combined-Shape" fill="#EBC09A"></path>
                </g>
                <g id="Group-Copy-12" transform="translate(177.000000, 162.000000)">
                    <use id="Oval-2" stroke="#FFFFFF" mask="url(#mask-22)" stroke-width="4" fill="#919193" xlink:href="#path-21"></use>
                    <path d="M47,13.5 C48.1045695,13.5 49,14.3954305 49,15.5 L49,44.5 C49,45.6045695 48.1045695,46.5 47,46.5 L18,46.5 C16.8954305,46.5 16,45.6045695 16,44.5 L16,15.5 C16,14.3954305 16.8954305,13.5 18,13.5 L47,13.5 Z M18,15.5 L18,44.5 L47,44.5 L47,15.5 L18,15.5 Z M43,20.5 C44.1045695,20.5 45,21.3954305 45,22.5 L45,32.5 C45,33.6045695 44.1045695,34.5 43,34.5 L22,34.5 C20.8954305,34.5 20,33.6045695 20,32.5 L20,22.5 C20,21.3954305 20.8954305,20.5 22,20.5 L43,20.5 Z M22,22.5 L22,32.5 L43,32.5 L43,22.5 L22,22.5 Z M23,47.5 C24.1045695,47.5 25,48.3954305 25,49.5 L25,51.5 C25,52.6045695 24.1045695,53.5 23,53.5 L21,53.5 C19.8954305,53.5 19,52.6045695 19,51.5 L19,49.5 C19,48.3954305 19.8954305,47.5 21,47.5 L23,47.5 Z M21,49.5 L21,51.5 L23,51.5 L23,49.5 L21,49.5 Z M44,47.5 C45.1045695,47.5 46,48.3954305 46,49.5 L46,51.5 C46,52.6045695 45.1045695,53.5 44,53.5 L42,53.5 C40.8954305,53.5 40,52.6045695 40,51.5 L40,49.5 C40,48.3954305 40.8954305,47.5 42,47.5 L44,47.5 Z M42,49.5 L42,51.5 L44,51.5 L44,49.5 L42,49.5 Z M20,40 C20,38.0670034 21.5670034,36.5 23.5,36.5 C25.4329966,36.5 27,38.0670034 27,40 C27,41.9329966 25.4329966,43.5 23.5,43.5 C21.5670034,43.5 20,41.9329966 20,40 Z M25,40 C25,39.1715729 24.3284271,38.5 23.5,38.5 C22.6715729,38.5 22,39.1715729 22,40 C22,40.8284271 22.6715729,41.5 23.5,41.5 C24.3284271,41.5 25,40.8284271 25,40 Z M38,40 C38,38.0670034 39.5670034,36.5 41.5,36.5 C43.4329966,36.5 45,38.0670034 45,40 C45,41.9329966 43.4329966,43.5 41.5,43.5 C39.5670034,43.5 38,41.9329966 38,40 Z M43,40 C43,39.1715729 42.3284271,38.5 41.5,38.5 C40.6715729,38.5 40,39.1715729 40,40 C40,40.8284271 40.6715729,41.5 41.5,41.5 C42.3284271,41.5 43,40.8284271 43,40 Z M40,19 C40.5522847,19 41,18.5522847 41,18 C41,17.4477153 40.5522847,17 40,17 L25,17 C24.4477153,17 24,17.4477153 24,18 C24,18.5522847 24.4477153,19 25,19 L40,19 Z" id="Combined-Shape" fill="#D1D2D4"></path>
                </g>
                <g id="Group-Copy-17" transform="translate(177.000000, 247.000000)">
                    <use id="Oval-2" stroke="#FFFFFF" mask="url(#mask-24)" stroke-width="4" fill="#91E633" xlink:href="#path-23"></use>
                    <path d="M47,13.5 C48.1045695,13.5 49,14.3954305 49,15.5 L49,44.5 C49,45.6045695 48.1045695,46.5 47,46.5 L18,46.5 C16.8954305,46.5 16,45.6045695 16,44.5 L16,15.5 C16,14.3954305 16.8954305,13.5 18,13.5 L47,13.5 Z M18,15.5 L18,44.5 L47,44.5 L47,15.5 L18,15.5 Z M43,20.5 C44.1045695,20.5 45,21.3954305 45,22.5 L45,32.5 C45,33.6045695 44.1045695,34.5 43,34.5 L22,34.5 C20.8954305,34.5 20,33.6045695 20,32.5 L20,22.5 C20,21.3954305 20.8954305,20.5 22,20.5 L43,20.5 Z M22,22.5 L22,32.5 L43,32.5 L43,22.5 L22,22.5 Z M23,47.5 C24.1045695,47.5 25,48.3954305 25,49.5 L25,51.5 C25,52.6045695 24.1045695,53.5 23,53.5 L21,53.5 C19.8954305,53.5 19,52.6045695 19,51.5 L19,49.5 C19,48.3954305 19.8954305,47.5 21,47.5 L23,47.5 Z M21,49.5 L21,51.5 L23,51.5 L23,49.5 L21,49.5 Z M44,47.5 C45.1045695,47.5 46,48.3954305 46,49.5 L46,51.5 C46,52.6045695 45.1045695,53.5 44,53.5 L42,53.5 C40.8954305,53.5 40,52.6045695 40,51.5 L40,49.5 C40,48.3954305 40.8954305,47.5 42,47.5 L44,47.5 Z M42,49.5 L42,51.5 L44,51.5 L44,49.5 L42,49.5 Z M20,40 C20,38.0670034 21.5670034,36.5 23.5,36.5 C25.4329966,36.5 27,38.0670034 27,40 C27,41.9329966 25.4329966,43.5 23.5,43.5 C21.5670034,43.5 20,41.9329966 20,40 Z M25,40 C25,39.1715729 24.3284271,38.5 23.5,38.5 C22.6715729,38.5 22,39.1715729 22,40 C22,40.8284271 22.6715729,41.5 23.5,41.5 C24.3284271,41.5 25,40.8284271 25,40 Z M38,40 C38,38.0670034 39.5670034,36.5 41.5,36.5 C43.4329966,36.5 45,38.0670034 45,40 C45,41.9329966 43.4329966,43.5 41.5,43.5 C39.5670034,43.5 38,41.9329966 38,40 Z M43,40 C43,39.1715729 42.3284271,38.5 41.5,38.5 C40.6715729,38.5 40,39.1715729 40,40 C40,40.8284271 40.6715729,41.5 41.5,41.5 C42.3284271,41.5 43,40.8284271 43,40 Z M40,19 C40.5522847,19 41,18.5522847 41,18 C41,17.4477153 40.5522847,17 40,17 L25,17 C24.4477153,17 24,17.4477153 24,18 C24,18.5522847 24.4477153,19 25,19 L40,19 Z" id="Combined-Shape" fill="#447A09"></path>
                </g>
                <g id="Group-Copy-3" transform="translate(265.000000, 0.000000)">
                    <use id="Oval-2" stroke="#FFFFFF" mask="url(#mask-26)" stroke-width="4" fill="#315AAC" xlink:href="#path-25"></use>
                    <path d="M47,13.5 C48.1045695,13.5 49,14.3954305 49,15.5 L49,44.5 C49,45.6045695 48.1045695,46.5 47,46.5 L18,46.5 C16.8954305,46.5 16,45.6045695 16,44.5 L16,15.5 C16,14.3954305 16.8954305,13.5 18,13.5 L47,13.5 Z M18,15.5 L18,44.5 L47,44.5 L47,15.5 L18,15.5 Z M43,20.5 C44.1045695,20.5 45,21.3954305 45,22.5 L45,32.5 C45,33.6045695 44.1045695,34.5 43,34.5 L22,34.5 C20.8954305,34.5 20,33.6045695 20,32.5 L20,22.5 C20,21.3954305 20.8954305,20.5 22,20.5 L43,20.5 Z M22,22.5 L22,32.5 L43,32.5 L43,22.5 L22,22.5 Z M23,47.5 C24.1045695,47.5 25,48.3954305 25,49.5 L25,51.5 C25,52.6045695 24.1045695,53.5 23,53.5 L21,53.5 C19.8954305,53.5 19,52.6045695 19,51.5 L19,49.5 C19,48.3954305 19.8954305,47.5 21,47.5 L23,47.5 Z M21,49.5 L21,51.5 L23,51.5 L23,49.5 L21,49.5 Z M44,47.5 C45.1045695,47.5 46,48.3954305 46,49.5 L46,51.5 C46,52.6045695 45.1045695,53.5 44,53.5 L42,53.5 C40.8954305,53.5 40,52.6045695 40,51.5 L40,49.5 C40,48.3954305 40.8954305,47.5 42,47.5 L44,47.5 Z M42,49.5 L42,51.5 L44,51.5 L44,49.5 L42,49.5 Z M20,40 C20,38.0670034 21.5670034,36.5 23.5,36.5 C25.4329966,36.5 27,38.0670034 27,40 C27,41.9329966 25.4329966,43.5 23.5,43.5 C21.5670034,43.5 20,41.9329966 20,40 Z M25,40 C25,39.1715729 24.3284271,38.5 23.5,38.5 C22.6715729,38.5 22,39.1715729 22,40 C22,40.8284271 22.6715729,41.5 23.5,41.5 C24.3284271,41.5 25,40.8284271 25,40 Z M38,40 C38,38.0670034 39.5670034,36.5 41.5,36.5 C43.4329966,36.5 45,38.0670034 45,40 C45,41.9329966 43.4329966,43.5 41.5,43.5 C39.5670034,43.5 38,41.9329966 38,40 Z M43,40 C43,39.1715729 42.3284271,38.5 41.5,38.5 C40.6715729,38.5 40,39.1715729 40,40 C40,40.8284271 40.6715729,41.5 41.5,41.5 C42.3284271,41.5 43,40.8284271 43,40 Z M40,19 C40.5522847,19 41,18.5522847 41,18 C41,17.4477153 40.5522847,17 40,17 L25,17 C24.4477153,17 24,17.4477153 24,18 C24,18.5522847 24.4477153,19 25,19 L40,19 Z" id="Combined-Shape" fill="#140B7F"></path>
                </g>
                <g id="Group-Copy-8" transform="translate(265.000000, 81.000000)">
                    <use id="Oval-2" stroke="#FFFFFF" mask="url(#mask-28)" stroke-width="4" fill="#8F5B49" xlink:href="#path-27"></use>
                    <path d="M47,13.5 C48.1045695,13.5 49,14.3954305 49,15.5 L49,44.5 C49,45.6045695 48.1045695,46.5 47,46.5 L18,46.5 C16.8954305,46.5 16,45.6045695 16,44.5 L16,15.5 C16,14.3954305 16.8954305,13.5 18,13.5 L47,13.5 Z M18,15.5 L18,44.5 L47,44.5 L47,15.5 L18,15.5 Z M43,20.5 C44.1045695,20.5 45,21.3954305 45,22.5 L45,32.5 C45,33.6045695 44.1045695,34.5 43,34.5 L22,34.5 C20.8954305,34.5 20,33.6045695 20,32.5 L20,22.5 C20,21.3954305 20.8954305,20.5 22,20.5 L43,20.5 Z M22,22.5 L22,32.5 L43,32.5 L43,22.5 L22,22.5 Z M23,47.5 C24.1045695,47.5 25,48.3954305 25,49.5 L25,51.5 C25,52.6045695 24.1045695,53.5 23,53.5 L21,53.5 C19.8954305,53.5 19,52.6045695 19,51.5 L19,49.5 C19,48.3954305 19.8954305,47.5 21,47.5 L23,47.5 Z M21,49.5 L21,51.5 L23,51.5 L23,49.5 L21,49.5 Z M44,47.5 C45.1045695,47.5 46,48.3954305 46,49.5 L46,51.5 C46,52.6045695 45.1045695,53.5 44,53.5 L42,53.5 C40.8954305,53.5 40,52.6045695 40,51.5 L40,49.5 C40,48.3954305 40.8954305,47.5 42,47.5 L44,47.5 Z M42,49.5 L42,51.5 L44,51.5 L44,49.5 L42,49.5 Z M20,40 C20,38.0670034 21.5670034,36.5 23.5,36.5 C25.4329966,36.5 27,38.0670034 27,40 C27,41.9329966 25.4329966,43.5 23.5,43.5 C21.5670034,43.5 20,41.9329966 20,40 Z M25,40 C25,39.1715729 24.3284271,38.5 23.5,38.5 C22.6715729,38.5 22,39.1715729 22,40 C22,40.8284271 22.6715729,41.5 23.5,41.5 C24.3284271,41.5 25,40.8284271 25,40 Z M38,40 C38,38.0670034 39.5670034,36.5 41.5,36.5 C43.4329966,36.5 45,38.0670034 45,40 C45,41.9329966 43.4329966,43.5 41.5,43.5 C39.5670034,43.5 38,41.9329966 38,40 Z M43,40 C43,39.1715729 42.3284271,38.5 41.5,38.5 C40.6715729,38.5 40,39.1715729 40,40 C40,40.8284271 40.6715729,41.5 41.5,41.5 C42.3284271,41.5 43,40.8284271 43,40 Z M40,19 C40.5522847,19 41,18.5522847 41,18 C41,17.4477153 40.5522847,17 40,17 L25,17 C24.4477153,17 24,17.4477153 24,18 C24,18.5522847 24.4477153,19 25,19 L40,19 Z" id="Combined-Shape" fill="#492317"></path>
                </g>
                <g id="Group-Copy-13" transform="translate(265.000000, 162.000000)">
                    <use id="Oval-2" stroke="#FFFFFF" mask="url(#mask-30)" stroke-width="4" fill="#292C8B" xlink:href="#path-29"></use>
                    <path d="M47,13.5 C48.1045695,13.5 49,14.3954305 49,15.5 L49,44.5 C49,45.6045695 48.1045695,46.5 47,46.5 L18,46.5 C16.8954305,46.5 16,45.6045695 16,44.5 L16,15.5 C16,14.3954305 16.8954305,13.5 18,13.5 L47,13.5 Z M18,15.5 L18,44.5 L47,44.5 L47,15.5 L18,15.5 Z M43,20.5 C44.1045695,20.5 45,21.3954305 45,22.5 L45,32.5 C45,33.6045695 44.1045695,34.5 43,34.5 L22,34.5 C20.8954305,34.5 20,33.6045695 20,32.5 L20,22.5 C20,21.3954305 20.8954305,20.5 22,20.5 L43,20.5 Z M22,22.5 L22,32.5 L43,32.5 L43,22.5 L22,22.5 Z M23,47.5 C24.1045695,47.5 25,48.3954305 25,49.5 L25,51.5 C25,52.6045695 24.1045695,53.5 23,53.5 L21,53.5 C19.8954305,53.5 19,52.6045695 19,51.5 L19,49.5 C19,48.3954305 19.8954305,47.5 21,47.5 L23,47.5 Z M21,49.5 L21,51.5 L23,51.5 L23,49.5 L21,49.5 Z M44,47.5 C45.1045695,47.5 46,48.3954305 46,49.5 L46,51.5 C46,52.6045695 45.1045695,53.5 44,53.5 L42,53.5 C40.8954305,53.5 40,52.6045695 40,51.5 L40,49.5 C40,48.3954305 40.8954305,47.5 42,47.5 L44,47.5 Z M42,49.5 L42,51.5 L44,51.5 L44,49.5 L42,49.5 Z M20,40 C20,38.0670034 21.5670034,36.5 23.5,36.5 C25.4329966,36.5 27,38.0670034 27,40 C27,41.9329966 25.4329966,43.5 23.5,43.5 C21.5670034,43.5 20,41.9329966 20,40 Z M25,40 C25,39.1715729 24.3284271,38.5 23.5,38.5 C22.6715729,38.5 22,39.1715729 22,40 C22,40.8284271 22.6715729,41.5 23.5,41.5 C24.3284271,41.5 25,40.8284271 25,40 Z M38,40 C38,38.0670034 39.5670034,36.5 41.5,36.5 C43.4329966,36.5 45,38.0670034 45,40 C45,41.9329966 43.4329966,43.5 41.5,43.5 C39.5670034,43.5 38,41.9329966 38,40 Z M43,40 C43,39.1715729 42.3284271,38.5 41.5,38.5 C40.6715729,38.5 40,39.1715729 40,40 C40,40.8284271 40.6715729,41.5 41.5,41.5 C42.3284271,41.5 43,40.8284271 43,40 Z M40,19 C40.5522847,19 41,18.5522847 41,18 C41,17.4477153 40.5522847,17 40,17 L25,17 C24.4477153,17 24,17.4477153 24,18 C24,18.5522847 24.4477153,19 25,19 L40,19 Z" id="Combined-Shape" fill="#648ECB"></path>
                </g>
                <g id="Group-Copy-18" transform="translate(265.000000, 247.000000)">
                    <use id="Oval-2" stroke="#FFFFFF" mask="url(#mask-32)" stroke-width="4" fill="#FE9F9F" xlink:href="#path-31"></use>
                    <path d="M47,13.5 C48.1045695,13.5 49,14.3954305 49,15.5 L49,44.5 C49,45.6045695 48.1045695,46.5 47,46.5 L18,46.5 C16.8954305,46.5 16,45.6045695 16,44.5 L16,15.5 C16,14.3954305 16.8954305,13.5 18,13.5 L47,13.5 Z M18,15.5 L18,44.5 L47,44.5 L47,15.5 L18,15.5 Z M43,20.5 C44.1045695,20.5 45,21.3954305 45,22.5 L45,32.5 C45,33.6045695 44.1045695,34.5 43,34.5 L22,34.5 C20.8954305,34.5 20,33.6045695 20,32.5 L20,22.5 C20,21.3954305 20.8954305,20.5 22,20.5 L43,20.5 Z M22,22.5 L22,32.5 L43,32.5 L43,22.5 L22,22.5 Z M23,47.5 C24.1045695,47.5 25,48.3954305 25,49.5 L25,51.5 C25,52.6045695 24.1045695,53.5 23,53.5 L21,53.5 C19.8954305,53.5 19,52.6045695 19,51.5 L19,49.5 C19,48.3954305 19.8954305,47.5 21,47.5 L23,47.5 Z M21,49.5 L21,51.5 L23,51.5 L23,49.5 L21,49.5 Z M44,47.5 C45.1045695,47.5 46,48.3954305 46,49.5 L46,51.5 C46,52.6045695 45.1045695,53.5 44,53.5 L42,53.5 C40.8954305,53.5 40,52.6045695 40,51.5 L40,49.5 C40,48.3954305 40.8954305,47.5 42,47.5 L44,47.5 Z M42,49.5 L42,51.5 L44,51.5 L44,49.5 L42,49.5 Z M20,40 C20,38.0670034 21.5670034,36.5 23.5,36.5 C25.4329966,36.5 27,38.0670034 27,40 C27,41.9329966 25.4329966,43.5 23.5,43.5 C21.5670034,43.5 20,41.9329966 20,40 Z M25,40 C25,39.1715729 24.3284271,38.5 23.5,38.5 C22.6715729,38.5 22,39.1715729 22,40 C22,40.8284271 22.6715729,41.5 23.5,41.5 C24.3284271,41.5 25,40.8284271 25,40 Z M38,40 C38,38.0670034 39.5670034,36.5 41.5,36.5 C43.4329966,36.5 45,38.0670034 45,40 C45,41.9329966 43.4329966,43.5 41.5,43.5 C39.5670034,43.5 38,41.9329966 38,40 Z M43,40 C43,39.1715729 42.3284271,38.5 41.5,38.5 C40.6715729,38.5 40,39.1715729 40,40 C40,40.8284271 40.6715729,41.5 41.5,41.5 C42.3284271,41.5 43,40.8284271 43,40 Z M40,19 C40.5522847,19 41,18.5522847 41,18 C41,17.4477153 40.5522847,17 40,17 L25,17 C24.4477153,17 24,17.4477153 24,18 C24,18.5522847 24.4477153,19 25,19 L40,19 Z" id="Combined-Shape" fill="#A92F2F"></path>
                </g>
                <g id="Group-Copy-4" transform="translate(353.000000, 0.000000)">
                    <use id="Oval-2" stroke="#FFFFFF" mask="url(#mask-34)" stroke-width="4" fill="#008061" xlink:href="#path-33"></use>
                    <path d="M47,13.5 C48.1045695,13.5 49,14.3954305 49,15.5 L49,44.5 C49,45.6045695 48.1045695,46.5 47,46.5 L18,46.5 C16.8954305,46.5 16,45.6045695 16,44.5 L16,15.5 C16,14.3954305 16.8954305,13.5 18,13.5 L47,13.5 Z M18,15.5 L18,44.5 L47,44.5 L47,15.5 L18,15.5 Z M43,20.5 C44.1045695,20.5 45,21.3954305 45,22.5 L45,32.5 C45,33.6045695 44.1045695,34.5 43,34.5 L22,34.5 C20.8954305,34.5 20,33.6045695 20,32.5 L20,22.5 C20,21.3954305 20.8954305,20.5 22,20.5 L43,20.5 Z M22,22.5 L22,32.5 L43,32.5 L43,22.5 L22,22.5 Z M23,47.5 C24.1045695,47.5 25,48.3954305 25,49.5 L25,51.5 C25,52.6045695 24.1045695,53.5 23,53.5 L21,53.5 C19.8954305,53.5 19,52.6045695 19,51.5 L19,49.5 C19,48.3954305 19.8954305,47.5 21,47.5 L23,47.5 Z M21,49.5 L21,51.5 L23,51.5 L23,49.5 L21,49.5 Z M44,47.5 C45.1045695,47.5 46,48.3954305 46,49.5 L46,51.5 C46,52.6045695 45.1045695,53.5 44,53.5 L42,53.5 C40.8954305,53.5 40,52.6045695 40,51.5 L40,49.5 C40,48.3954305 40.8954305,47.5 42,47.5 L44,47.5 Z M42,49.5 L42,51.5 L44,51.5 L44,49.5 L42,49.5 Z M20,40 C20,38.0670034 21.5670034,36.5 23.5,36.5 C25.4329966,36.5 27,38.0670034 27,40 C27,41.9329966 25.4329966,43.5 23.5,43.5 C21.5670034,43.5 20,41.9329966 20,40 Z M25,40 C25,39.1715729 24.3284271,38.5 23.5,38.5 C22.6715729,38.5 22,39.1715729 22,40 C22,40.8284271 22.6715729,41.5 23.5,41.5 C24.3284271,41.5 25,40.8284271 25,40 Z M38,40 C38,38.0670034 39.5670034,36.5 41.5,36.5 C43.4329966,36.5 45,38.0670034 45,40 C45,41.9329966 43.4329966,43.5 41.5,43.5 C39.5670034,43.5 38,41.9329966 38,40 Z M43,40 C43,39.1715729 42.3284271,38.5 41.5,38.5 C40.6715729,38.5 40,39.1715729 40,40 C40,40.8284271 40.6715729,41.5 41.5,41.5 C42.3284271,41.5 43,40.8284271 43,40 Z M40,19 C40.5522847,19 41,18.5522847 41,18 C41,17.4477153 40.5522847,17 40,17 L25,17 C24.4477153,17 24,17.4477153 24,18 C24,18.5522847 24.4477153,19 25,19 L40,19 Z" id="Combined-Shape" fill="#084932"></path>
                </g>
                <g id="Group-Copy-9" transform="translate(353.000000, 81.000000)">
                    <use id="Oval-2" stroke="#FFFFFF" mask="url(#mask-36)" stroke-width="4" fill="#CAA23B" xlink:href="#path-35"></use>
                    <path d="M47,13.5 C48.1045695,13.5 49,14.3954305 49,15.5 L49,44.5 C49,45.6045695 48.1045695,46.5 47,46.5 L18,46.5 C16.8954305,46.5 16,45.6045695 16,44.5 L16,15.5 C16,14.3954305 16.8954305,13.5 18,13.5 L47,13.5 Z M18,15.5 L18,44.5 L47,44.5 L47,15.5 L18,15.5 Z M43,20.5 C44.1045695,20.5 45,21.3954305 45,22.5 L45,32.5 C45,33.6045695 44.1045695,34.5 43,34.5 L22,34.5 C20.8954305,34.5 20,33.6045695 20,32.5 L20,22.5 C20,21.3954305 20.8954305,20.5 22,20.5 L43,20.5 Z M22,22.5 L22,32.5 L43,32.5 L43,22.5 L22,22.5 Z M23,47.5 C24.1045695,47.5 25,48.3954305 25,49.5 L25,51.5 C25,52.6045695 24.1045695,53.5 23,53.5 L21,53.5 C19.8954305,53.5 19,52.6045695 19,51.5 L19,49.5 C19,48.3954305 19.8954305,47.5 21,47.5 L23,47.5 Z M21,49.5 L21,51.5 L23,51.5 L23,49.5 L21,49.5 Z M44,47.5 C45.1045695,47.5 46,48.3954305 46,49.5 L46,51.5 C46,52.6045695 45.1045695,53.5 44,53.5 L42,53.5 C40.8954305,53.5 40,52.6045695 40,51.5 L40,49.5 C40,48.3954305 40.8954305,47.5 42,47.5 L44,47.5 Z M42,49.5 L42,51.5 L44,51.5 L44,49.5 L42,49.5 Z M20,40 C20,38.0670034 21.5670034,36.5 23.5,36.5 C25.4329966,36.5 27,38.0670034 27,40 C27,41.9329966 25.4329966,43.5 23.5,43.5 C21.5670034,43.5 20,41.9329966 20,40 Z M25,40 C25,39.1715729 24.3284271,38.5 23.5,38.5 C22.6715729,38.5 22,39.1715729 22,40 C22,40.8284271 22.6715729,41.5 23.5,41.5 C24.3284271,41.5 25,40.8284271 25,40 Z M38,40 C38,38.0670034 39.5670034,36.5 41.5,36.5 C43.4329966,36.5 45,38.0670034 45,40 C45,41.9329966 43.4329966,43.5 41.5,43.5 C39.5670034,43.5 38,41.9329966 38,40 Z M43,40 C43,39.1715729 42.3284271,38.5 41.5,38.5 C40.6715729,38.5 40,39.1715729 40,40 C40,40.8284271 40.6715729,41.5 41.5,41.5 C42.3284271,41.5 43,40.8284271 43,40 Z M40,19 C40.5522847,19 41,18.5522847 41,18 C41,17.4477153 40.5522847,17 40,17 L25,17 C24.4477153,17 24,17.4477153 24,18 C24,18.5522847 24.4477153,19 25,19 L40,19 Z" id="Combined-Shape" fill="#FFDD84"></path>
                </g>
                <g id="Group-Copy-14" transform="translate(353.000000, 162.000000)">
                    <use id="Oval-2" stroke="#FFFFFF" mask="url(#mask-38)" stroke-width="4" fill="#FACBDF" xlink:href="#path-37"></use>
                    <path d="M47,13.5 C48.1045695,13.5 49,14.3954305 49,15.5 L49,44.5 C49,45.6045695 48.1045695,46.5 47,46.5 L18,46.5 C16.8954305,46.5 16,45.6045695 16,44.5 L16,15.5 C16,14.3954305 16.8954305,13.5 18,13.5 L47,13.5 Z M18,15.5 L18,44.5 L47,44.5 L47,15.5 L18,15.5 Z M43,20.5 C44.1045695,20.5 45,21.3954305 45,22.5 L45,32.5 C45,33.6045695 44.1045695,34.5 43,34.5 L22,34.5 C20.8954305,34.5 20,33.6045695 20,32.5 L20,22.5 C20,21.3954305 20.8954305,20.5 22,20.5 L43,20.5 Z M22,22.5 L22,32.5 L43,32.5 L43,22.5 L22,22.5 Z M23,47.5 C24.1045695,47.5 25,48.3954305 25,49.5 L25,51.5 C25,52.6045695 24.1045695,53.5 23,53.5 L21,53.5 C19.8954305,53.5 19,52.6045695 19,51.5 L19,49.5 C19,48.3954305 19.8954305,47.5 21,47.5 L23,47.5 Z M21,49.5 L21,51.5 L23,51.5 L23,49.5 L21,49.5 Z M44,47.5 C45.1045695,47.5 46,48.3954305 46,49.5 L46,51.5 C46,52.6045695 45.1045695,53.5 44,53.5 L42,53.5 C40.8954305,53.5 40,52.6045695 40,51.5 L40,49.5 C40,48.3954305 40.8954305,47.5 42,47.5 L44,47.5 Z M42,49.5 L42,51.5 L44,51.5 L44,49.5 L42,49.5 Z M20,40 C20,38.0670034 21.5670034,36.5 23.5,36.5 C25.4329966,36.5 27,38.0670034 27,40 C27,41.9329966 25.4329966,43.5 23.5,43.5 C21.5670034,43.5 20,41.9329966 20,40 Z M25,40 C25,39.1715729 24.3284271,38.5 23.5,38.5 C22.6715729,38.5 22,39.1715729 22,40 C22,40.8284271 22.6715729,41.5 23.5,41.5 C24.3284271,41.5 25,40.8284271 25,40 Z M38,40 C38,38.0670034 39.5670034,36.5 41.5,36.5 C43.4329966,36.5 45,38.0670034 45,40 C45,41.9329966 43.4329966,43.5 41.5,43.5 C39.5670034,43.5 38,41.9329966 38,40 Z M43,40 C43,39.1715729 42.3284271,38.5 41.5,38.5 C40.6715729,38.5 40,39.1715729 40,40 C40,40.8284271 40.6715729,41.5 41.5,41.5 C42.3284271,41.5 43,40.8284271 43,40 Z M40,19 C40.5522847,19 41,18.5522847 41,18 C41,17.4477153 40.5522847,17 40,17 L25,17 C24.4477153,17 24,17.4477153 24,18 C24,18.5522847 24.4477153,19 25,19 L40,19 Z" id="Combined-Shape" fill="#A44C71"></path>
                </g>
            </g>
        </g>
    </g>
</svg>