<?xml version="1.0" encoding="UTF-8" standalone="no"?>
<svg
   xmlns:dc="http://purl.org/dc/elements/1.1/"
   xmlns:cc="http://creativecommons.org/ns#"
   xmlns:rdf="http://www.w3.org/1999/02/22-rdf-syntax-ns#"
   xmlns:svg="http://www.w3.org/2000/svg"
   xmlns="http://www.w3.org/2000/svg"
   id="svg2"
   width="24"
   height="24"
   viewBox="0 0 24 24"
   version="1.1">
  <metadata
     id="metadata10">
    <rdf:RDF>
      <cc:Work
         rdf:about="">
        <dc:format>image/svg+xml</dc:format>
        <dc:type
           rdf:resource="http://purl.org/dc/dcmitype/StillImage" />
        <dc:title></dc:title>
      </cc:Work>
    </rdf:RDF>
  </metadata>
  <defs
     id="defs8" />
  <path
     id="path4"
     d="m 12,24 c 5.713291,0 10.344827,-4.631537 10.344827,-10.344828 0,-5.713291 -4.631536,-10.3448272 -10.344826,-10.3448272 -5.7132919,0 -10.3448285,4.6315362 -10.3448285,10.3448272 C 1.6551725,19.368463 6.2867091,24 12,24 l 0,0 z m 0,-2.482759 c -4.3421047,0 -7.8620689,-3.519972 -7.8620689,-7.862069 0,-4.342104 3.5199642,-7.862069 7.8620689,-7.862069 4.342096,0 7.862069,3.519965 7.862069,7.862069 0,4.342097 -3.519973,7.862069 -7.862069,7.862069 l 0,0 z m -0.827586,-12.827586 0,5.005564 c 0,0.45706 0.370518,0.827587 0.827586,0.827587 0.457059,0 0.827586,-0.370527 0.827586,-0.827587 l 0,-5.005564 C 12.827586,8.232588 12.45706,7.862069 12,7.862069 c -0.457068,0 -0.827586,0.370519 -0.827586,0.827586 l 0,0 z m -0.413793,-6.2068964 0,1.2814262 2.482758,0 0,-1.2814262 2.896552,0 c 0.685597,0 1.241379,-0.555782 1.241379,-1.2413793 C 17.37931,0.5557821 16.823528,0 16.137931,0 L 7.8620691,0 C 7.1764718,0 6.6206897,0.5557821 6.6206897,1.2413793 c 0,0.6855973 0.5557821,1.2413793 1.2413794,1.2413793 l 2.8965519,0 z m 6.206896,10.3848744 -4.965517,0 c -0.457068,0 -0.827586,0.370519 -0.827586,0.827586 0,0.45706 0.370518,0.827587 0.827586,0.827587 l 4.965517,0 c 0.457059,0 0.827586,-0.370527 0.827586,-0.827587 0,-0.457067 -0.370527,-0.827586 -0.827586,-0.827586 z M 19.803492,4.0961793 17.734526,6.205192 c -0.480115,0.489418 -0.472584,1.275376 0.0168,1.755492 0.489418,0.480124 1.275377,0.472593 1.755501,-0.0168 L 21.575793,5.83488 c 0.480116,-0.489418 0.472585,-1.2753766 -0.0168,-1.7555007 -0.489418,-0.4801159 -1.275377,-0.4725848 -1.755501,0.0168 z" />
</svg>
