<?xml version="1.0" encoding="UTF-8" standalone="no"?>
<svg
   xmlns:dc="http://purl.org/dc/elements/1.1/"
   xmlns:cc="http://creativecommons.org/ns#"
   xmlns:rdf="http://www.w3.org/1999/02/22-rdf-syntax-ns#"
   xmlns:svg="http://www.w3.org/2000/svg"
   xmlns="http://www.w3.org/2000/svg"
   viewBox="0 0 24 24"
   height="24"
   width="24"
   id="svg2"
   version="1.1">
  <metadata
     id="metadata9">
    <rdf:RDF>
      <cc:Work
         rdf:about="">
        <dc:format>image/svg+xml</dc:format>
        <dc:type
           rdf:resource="http://purl.org/dc/dcmitype/StillImage" />
        <dc:title></dc:title>
      </cc:Work>
    </rdf:RDF>
  </metadata>
  <defs
     id="defs7" />
  <path
     id="path3"
     d="M 6.9197198,0.91810345 C 3.112866,0.91810345 0,4.0309694 0,7.8378232 0,10.028191 1.025784,11.995978 2.6233836,13.262393 L 2.497306,13.14763 12,23.081897 21.502694,13.14763 21.376616,13.262393 C 22.974226,11.995978 24,10.028191 24,7.8378232 24,4.0309694 20.887134,0.91810345 17.08028,0.91810345 15.076463,0.91810345 13.26667,1.7799294 12,3.1503232 10.73333,1.7799294 8.923537,0.91810345 6.9197198,0.91810345 Z m 0,2.48275855 c 1.7478032,0 3.2423572,1.0006288 3.9698272,2.4536639 L 12,8.0721981 13.110453,5.8545259 c 0.72747,-1.4530351 2.222024,-2.4536639 3.969827,-2.4536639 2.465074,0 4.436961,1.9718869 4.436961,4.4369612 0,1.418338 -0.6561,2.6647088 -1.68265,3.4784478 l -0.06789,0.05334 L 12,19.490302 4.2332974,11.369612 4.1654095,11.316271 C 3.1388657,10.502532 2.4827586,9.2561612 2.4827586,7.8378232 c 0,-2.4650743 1.9718869,-4.4369612 4.4369612,-4.4369612 z" />
</svg>
