<?xml version="1.0" encoding="UTF-8" standalone="no"?>
<svg
   xmlns:dc="http://purl.org/dc/elements/1.1/"
   xmlns:cc="http://creativecommons.org/ns#"
   xmlns:rdf="http://www.w3.org/1999/02/22-rdf-syntax-ns#"
   xmlns:svg="http://www.w3.org/2000/svg"
   xmlns="http://www.w3.org/2000/svg"
   id="svg2"
   width="24"
   height="24"
   viewBox="0 0 24 24"
   version="1.1">
  <metadata
     id="metadata10">
    <rdf:RDF>
      <cc:Work
         rdf:about="">
        <dc:format>image/svg+xml</dc:format>
        <dc:type
           rdf:resource="http://purl.org/dc/dcmitype/StillImage" />
        <dc:title></dc:title>
      </cc:Work>
    </rdf:RDF>
  </metadata>
  <defs
     id="defs8" />
  <path
     id="path4"
     style="fill-rule:evenodd"
     d="M 3.6428572,24 0,24 0,0 3.6428572,0 0,0 3.5109788e-7,7.2857142 7.2857142,0 3.6428572,0 24,0 16.719308,2.2229864e-4 24,7.2809146 24,24 20.357142,24 16.714286,24 24,16.714286 24,24 20.357142,24 3.6428572,24 7.2857142,24 3.5109788e-7,16.714286 0,24 l 3.6428572,0 0,0 0,0 0,0 z M 15.642858,8.0190692 C 15.642858,6.0071747 14.011895,4.376212 12,4.376212 c -2.0118945,0 -3.6428572,1.6309627 -3.6428572,3.6428572 0,2.0118948 1.6309627,3.6428568 3.6428572,3.6428568 2.011895,0 3.642858,-1.630962 3.642858,-3.6428568 l 0,0 z M 8.3571428,16.505732 c 0,-2.015061 1.6350566,-3.64859 3.6428572,-3.64859 2.011895,0 3.642858,1.620268 3.642858,3.64859 l 0,7.494268 -7.2857152,0 0,-7.494268 0,0 0,0 0,0 z" />
</svg>
