<?xml version="1.0" encoding="UTF-8" standalone="no"?>
<svg width="240px" height="240px" viewBox="0 0 240 240" version="1.1" xmlns="http://www.w3.org/2000/svg" xmlns:xlink="http://www.w3.org/1999/xlink">
    <!-- Generator: Sketch 39.1 (31720) - http://www.bohemiancoding.com/sketch -->
    <title>Group</title>
    <desc>Created with Sketch.</desc>
    <defs></defs>
    <g id="Page-1" stroke="none" stroke-width="1" fill="none" fill-rule="evenodd">
        <g id="Artboard-3-Copy-4">
            <g id="Group">
                <rect id="Rectangle" fill="#5AC2FF" x="0" y="0" width="240" height="240"></rect>
                <path d="M120,65.706866 C123.204831,60.2009991 129.170208,56.5 136,56.5 C146.217268,56.5 154.5,64.7827321 154.5,75 C154.5,76.3807119 153.380712,77.5 152,77.5 C150.619288,77.5 149.5,76.3807119 149.5,75 C149.5,67.5441559 143.455844,61.5 136,61.5 C128.544156,61.5 122.5,67.5441559 122.5,75 L122.5,103 C122.5,103.690356 122.220178,104.315356 121.767767,104.767767 C121.315356,105.220178 120.690356,105.5 120,105.5 C118.619288,105.5 117.5,104.380712 117.5,103 L117.5,75 C117.5,67.5441559 111.455844,61.5 104,61.5 C96.5441559,61.5 90.5,67.5441559 90.5,75 C90.5,76.3807119 89.3807119,77.5 88,77.5 C86.6192881,77.5 85.5,76.3807119 85.5,75 C85.5,64.7827321 93.7827321,56.5 104,56.5 C110.829792,56.5 116.795169,60.2009991 120,65.706866 Z" id="Combined-Shape" fill="#3A8969"></path>
                <rect id="Rectangle-5" fill="#C05D5D" x="80" y="99" width="80" height="80"></rect>
                <path d="M159.5,128 C160.880712,128 162,126.880712 162,125.5 C162,124.119288 160.880712,123 159.5,123 L81,123 C79.6192881,123 78.5,124.119288 78.5,125.5 C78.5,126.880712 79.6192881,128 81,128 L159.5,128 Z" id="Path-9" fill="#860D0D"></path>
                <path d="M158.5,153 C159.880712,153 161,151.880712 161,150.5 C161,149.119288 159.880712,148 158.5,148 L80,148 C78.6192881,148 77.5,149.119288 77.5,150.5 C77.5,151.880712 78.6192881,153 80,153 L158.5,153 Z" id="Path-9-Copy" fill="#860D0D"></path>
                <polygon id="Path-10" fill="#860E0E" points="117.5 124 122.5 124 122.5 100 117.5 100"></polygon>
                <polygon id="Path-10-Copy-3" fill="#860E0E" points="117.5 178 122.5 178 122.5 152 117.5 152"></polygon>
                <polygon id="Path-10-Copy" fill="#860E0E" points="97.5 150 102.5 150 102.5 126 97.5 126"></polygon>
                <polygon id="Path-10-Copy-2" fill="#860E0E" points="137.5 150 142.5 150 142.5 126 137.5 126"></polygon>
                <path d="M157.5,101.5 L157.5,176.5 L82.5,176.5 L82.5,101.5 L157.5,101.5 Z M77.5,99 L77.5,179 C77.5,180.380712 78.6192881,181.5 80,181.5 L160,181.5 C161.380712,181.5 162.5,180.380712 162.5,179 L162.5,99 C162.5,97.6192881 161.380712,96.5 160,96.5 L80,96.5 C78.6192881,96.5 77.5,97.6192881 77.5,99 Z" id="Rectangle-5-Copy" fill="#EEBE22"></path>
            </g>
        </g>
    </g>
</svg>