<?xml version="1.0" standalone="no"?>
<!DOCTYPE svg PUBLIC "-//W3C//DTD SVG 20010904//EN"
 "http://www.w3.org/TR/2001/REC-SVG-20010904/DTD/svg10.dtd">
<svg version="1.0" xmlns="http://www.w3.org/2000/svg"
 width="260.000000pt" height="260.000000pt" viewBox="0 0 260.000000 260.000000"
 preserveAspectRatio="xMidYMid meet">
<metadata>
Created by potrace 1.11, written by Peter Selinger 2001-2013
</metadata>
<g transform="translate(0.000000,260.000000) scale(0.100000,-0.100000)"
fill="#000000" stroke="none">
<path d="M1158 2590 c-263 -48 -491 -222 -613 -468 -120 -243 -111 -510 32
-972 175 -566 438 -1034 635 -1125 67 -31 109 -31 176 0 197 91 460 559 635
1125 143 462 152 729 32 972 -106 214 -282 367 -505 439 -81 26 -114 32 -220
35 -69 1 -146 -1 -172 -6z m415 -361 c14 -6 30 -22 36 -36 15 -33 15 -673 0
-706 -17 -38 -50 -47 -164 -47 l-105 0 -2 -446 c-3 -413 -4 -448 -20 -458 -13
-8 -23 -8 -35 0 -17 10 -18 45 -21 458 l-2 446 -105 0 c-114 0 -147 9 -164 47
-15 33 -15 673 0 707 6 13 21 29 33 34 30 15 518 15 549 1z"/>
<path d="M1060 1840 l0 -320 240 0 240 0 0 320 0 320 -240 0 -240 0 0 -320z
m104 264 c9 -8 16 -19 16 -24 0 -5 -7 -16 -16 -24 -8 -9 -19 -16 -24 -16 -5 0
-16 7 -24 16 -9 8 -16 19 -16 24 0 5 7 16 16 24 8 9 19 16 24 16 5 0 16 -7 24
-16z m320 -120 c9 -8 16 -19 16 -24 0 -5 -7 -16 -16 -24 -23 -24 -345 -24
-368 0 -9 8 -16 19 -16 24 0 5 7 16 16 24 13 13 44 16 184 16 140 0 171 -3
184 -16z m-200 -160 c9 -8 16 -19 16 -24 0 -26 -34 -40 -100 -40 -66 0 -100
14 -100 40 0 26 34 40 100 40 49 0 73 -4 84 -16z m200 0 c34 -34 4 -64 -64
-64 -46 0 -80 17 -80 40 0 38 112 57 144 24z m-280 -160 c9 -8 16 -19 16 -24
0 -18 -33 -40 -60 -40 -27 0 -60 22 -60 40 0 18 33 40 60 40 16 0 36 -7 44
-16z m280 0 c20 -19 20 -29 0 -48 -12 -12 -37 -16 -104 -16 -67 0 -92 4 -104
16 -9 8 -16 19 -16 24 0 5 7 16 16 24 12 12 37 16 104 16 67 0 92 -4 104 -16z"/>
</g>
</svg>
