<?xml version="1.0" encoding="UTF-8" standalone="no"?>
<svg
   xmlns:dc="http://purl.org/dc/elements/1.1/"
   xmlns:cc="http://creativecommons.org/ns#"
   xmlns:rdf="http://www.w3.org/1999/02/22-rdf-syntax-ns#"
   xmlns:svg="http://www.w3.org/2000/svg"
   xmlns="http://www.w3.org/2000/svg"
   style="fill:#000000"
   version="1.1"
   id="svg2"
   width="24"
   viewBox="0 0 12 12"
   height="24">
  <metadata
     id="metadata12">
    <rdf:RDF>
      <cc:Work
         rdf:about="">
        <dc:format>image/svg+xml</dc:format>
        <dc:type
           rdf:resource="http://purl.org/dc/dcmitype/StillImage" />
        <dc:title></dc:title>
      </cc:Work>
    </rdf:RDF>
  </metadata>
  <defs
     id="defs10" />
  <path
     id="path6"
     d="M 6,4.0000002 C 4.8950005,4.0000002 4.0000002,4.8949996 4.0000002,6 4.0000002,7.1049995 4.8950005,7.9999998 6,7.9999998 7.1050004,7.9999998 7.9999998,7.1049995 7.9999998,6 7.9999998,4.8949996 7.1050004,4.0000002 6,4.0000002 Z m 4.47,1.4999994 C 10.24,3.415 8.585,1.7599996 6.5000004,1.5299997 l 0,-1.0299997 -0.9999999,0 0,1.0299997 C 3.415,1.7599996 1.7599996,3.415 1.5299997,5.4999996 l -1.0299997,0 0,0.9999999 1.0299997,0 C 1.7599996,8.585 3.415,10.24 5.5000005,10.47 l 0,1.03 0.9999999,0 0,-1.03 C 8.585,10.24 10.24,8.585 10.47,6.4999995 l 1.03,0 0,-0.9999999 -1.03,0 z M 6,9.5 C 4.0650001,9.5 2.4999998,7.9349999 2.4999998,6 2.4999998,4.0650001 4.0650001,2.4999998 6,2.4999998 7.9349999,2.4999998 9.5000002,4.0650001 9.5000002,6 9.5000002,7.9349999 7.9349999,9.5 6,9.5 Z" />
</svg>
