<?xml version="1.0" encoding="UTF-8" standalone="no"?>
<svg width="85px" height="85px" viewBox="0 0 85 85" version="1.1" xmlns="http://www.w3.org/2000/svg" xmlns:xlink="http://www.w3.org/1999/xlink">
    <!-- Generator: Sketch 39.1 (31720) - http://www.bohemiancoding.com/sketch -->
    <title>recenter</title>
    <desc>Created with Sketch.</desc>
    <defs></defs>
    <g id="Mobile" stroke="none" stroke-width="1" fill="none" fill-rule="evenodd">
        <g id="Android-Landing" transform="translate(-615.000000, -1079.000000)" fill="#FFFFFF">
            <g id="recenter" transform="translate(615.000000, 1079.000000)">
                <rect id="Rectangle-3" fill-opacity="0.5" x="0" y="0" width="85" height="85" rx="5"></rect>
                <path d="M42.4750004,32 C36.6875627,32 32,36.6875627 32,42.4750004 C32,48.2624381 36.6875627,52.9500008 42.4750004,52.9500008 C48.2624381,52.9500008 52.9500008,48.2624381 52.9500008,42.4750004 C52.9500008,36.6875627 48.2624381,32 42.4750004,32 L42.4750004,32 Z M68.1009091,39.6363636 C66.7836364,27.695 57.305,18.2163636 45.3636364,16.8990909 L45.3636364,11 L39.6363636,11 L39.6363636,16.8990909 C27.695,18.2163636 18.2163636,27.695 16.8990909,39.6363636 L11,39.6363636 L11,45.3636364 L16.8990909,45.3636364 C18.2163636,57.305 27.695,66.7836364 39.6363636,68.1009091 L39.6363636,74 L45.3636364,74 L45.3636364,68.1009091 C57.305,66.7836364 66.7836364,57.305 68.1009091,45.3636364 L74,45.3636364 L74,39.6363636 L68.1009091,39.6363636 L68.1009091,39.6363636 Z M42.475,62.95 C31.15525,62.95 22,53.79475 22,42.475 C22,31.15525 31.15525,22 42.475,22 C53.79475,22 62.95,31.15525 62.95,42.475 C62.95,53.79475 53.79475,62.95 42.475,62.95 L42.475,62.95 Z" id="Shape"></path>
            </g>
        </g>
    </g>
</svg>