<?xml version="1.0" encoding="UTF-8" standalone="no"?>
<svg width="110px" height="201px" viewBox="0 0 110 201" version="1.1" xmlns="http://www.w3.org/2000/svg" xmlns:xlink="http://www.w3.org/1999/xlink">
    <!-- Generator: Sketch 39.1 (31720) - http://www.bohemiancoding.com/sketch -->
    <title>Combined Shape</title>
    <desc>Created with Sketch.</desc>
    <defs></defs>
    <g id="Web" stroke="none" stroke-width="1" fill="none" fill-rule="evenodd">
        <g id="Landing-Copy-18" transform="translate(-634.000000, -262.000000)" fill="#FFFFFF">
            <path d="M724.961538,304.60205 L714.399096,304.60205 C712.060907,304.60205 710.153846,302.707123 710.153846,300.355908 L710.153846,266.246141 C710.153846,263.894275 712.059412,262 714.399096,262 L739.75475,262 C742.092939,262 744,263.894927 744,266.246141 L744,300.355908 C744,302.707774 742.094434,304.60205 739.75475,304.60205 L729.192308,304.60205 L729.192308,351.038258 C729.192308,352.214681 728.245218,353.16836 727.076923,353.16836 C725.908628,353.16836 724.961538,352.214681 724.961538,351.038258 L724.961538,304.60205 Z M727.170622,300.343897 C733.484206,300.345751 739.769231,300.349265 739.769231,300.355908 C739.769231,300.355908 739.768868,266.260205 739.75475,266.260205 C739.75475,266.260205 714.384615,266.259488 714.384615,266.246141 C714.384615,266.246141 714.384978,300.341845 714.399096,300.341845 C714.399096,300.341845 720.675339,300.342022 726.984467,300.343843 C727.015121,300.342515 727.045944,300.341845 727.076923,300.341845 C727.108321,300.341845 727.139558,300.342533 727.170622,300.343897 Z M680.538462,364.244919 L666.455205,364.244919 C663.337619,364.244919 660.794872,361.71835 660.794872,358.583397 L660.794872,313.103708 C660.794872,309.967887 663.335626,307.442186 666.455205,307.442186 L700.262744,307.442186 C703.380329,307.442186 705.923077,309.968755 705.923077,313.103708 L705.923077,358.583397 C705.923077,361.719219 703.382323,364.244919 700.262744,364.244919 L686.179487,364.244919 L686.179487,426.159863 C686.179487,427.728428 684.916701,429 683.358974,429 C681.801248,429 680.538462,427.728428 680.538462,426.159863 L680.538462,364.244919 Z M683.483906,358.567382 C691.902018,358.569855 700.282051,358.57454 700.282051,358.583397 C700.282051,358.583397 700.281568,313.12246 700.262744,313.12246 C700.262744,313.12246 666.435897,313.121503 666.435897,313.103708 C666.435897,313.103708 666.436381,358.564646 666.455205,358.564646 C666.455205,358.564646 674.823529,358.564882 683.2357,358.56731 C683.276572,358.56554 683.317669,358.564646 683.358974,358.564646 C683.400838,358.564646 683.442488,358.565564 683.483906,358.567382 Z M643.871795,304.60205 L636.830167,304.60205 C635.271374,304.60205 634,303.338765 634,301.771289 L634,279.031444 C634,277.463533 635.270377,276.200683 636.830167,276.200683 L653.733936,276.200683 C655.292729,276.200683 656.564103,277.463968 656.564103,279.031444 L656.564103,301.771289 C656.564103,303.339199 655.293726,304.60205 653.733936,304.60205 L646.692308,304.60205 L646.692308,335.559522 C646.692308,336.343804 646.060914,336.97959 645.282051,336.97959 C644.503188,336.97959 643.871795,336.343804 643.871795,335.559522 L643.871795,304.60205 Z M645.344517,301.763281 C649.553573,301.764517 653.74359,301.76686 653.74359,301.771289 C653.74359,301.771289 653.743348,279.04082 653.733936,279.04082 C653.733936,279.04082 636.820513,279.040342 636.820513,279.031444 C636.820513,279.031444 636.820755,301.761913 636.830167,301.761913 C636.830167,301.761913 641.014329,301.762031 645.220414,301.763245 C645.24085,301.76236 645.261399,301.761913 645.282051,301.761913 C645.302983,301.761913 645.323808,301.762372 645.344517,301.763281 Z M650.923077,287.56123 C651.70194,287.56123 652.333333,286.925444 652.333333,286.141161 C652.333333,285.356879 651.70194,284.721093 650.923077,284.721093 L639.641026,284.721093 C638.862163,284.721093 638.230769,285.356879 638.230769,286.141161 C638.230769,286.925444 638.862163,287.56123 639.641026,287.56123 L650.923077,287.56123 Z M643.871795,293.241503 C644.650658,293.241503 645.282051,292.605717 645.282051,291.821435 C645.282051,291.037153 644.650658,290.401366 643.871795,290.401366 L639.641026,290.401366 C638.862163,290.401366 638.230769,291.037153 638.230769,291.821435 C638.230769,292.605717 638.862163,293.241503 639.641026,293.241503 L643.871795,293.241503 Z M650.923077,293.241503 C651.70194,293.241503 652.333333,292.605717 652.333333,291.821435 C652.333333,291.037153 651.70194,290.401366 650.923077,290.401366 L648.102564,290.401366 C647.323701,290.401366 646.692308,291.037153 646.692308,291.821435 C646.692308,292.605717 647.323701,293.241503 648.102564,293.241503 L650.923077,293.241503 Z M650.923077,298.921776 C651.70194,298.921776 652.333333,298.28599 652.333333,297.501708 C652.333333,296.717426 651.70194,296.08164 650.923077,296.08164 L645.282051,296.08164 C644.503188,296.08164 643.871795,296.717426 643.871795,297.501708 C643.871795,298.28599 644.503188,298.921776 645.282051,298.921776 L650.923077,298.921776 Z M641.051282,298.921776 C641.830145,298.921776 642.461538,298.28599 642.461538,297.501708 C642.461538,296.717426 641.830145,296.08164 641.051282,296.08164 L639.641026,296.08164 C638.862163,296.08164 638.230769,296.717426 638.230769,297.501708 C638.230769,298.28599 638.862163,298.921776 639.641026,298.921776 L641.051282,298.921776 Z M640.638228,282.885096 C641.188967,282.330525 641.188967,281.431388 640.638228,280.876817 C640.087488,280.322245 639.194563,280.322245 638.643824,280.876817 C638.093084,281.431388 638.093084,282.330525 638.643824,282.885096 C639.194563,283.439668 640.087488,283.439668 640.638228,282.885096 Z M694.641026,330.163279 C696.198752,330.163279 697.461538,328.891707 697.461538,327.323143 C697.461538,325.754579 696.198752,324.483006 694.641026,324.483006 L672.076923,324.483006 C670.519197,324.483006 669.25641,325.754579 669.25641,327.323143 C669.25641,328.891707 670.519197,330.163279 672.076923,330.163279 L694.641026,330.163279 Z M680.538462,341.523826 C682.096188,341.523826 683.358974,340.252254 683.358974,338.683689 C683.358974,337.115125 682.096188,335.843553 680.538462,335.843553 L672.076923,335.843553 C670.519197,335.843553 669.25641,337.115125 669.25641,338.683689 C669.25641,340.252254 670.519197,341.523826 672.076923,341.523826 L680.538462,341.523826 Z M694.641026,341.523826 C696.198752,341.523826 697.461538,340.252254 697.461538,338.683689 C697.461538,337.115125 696.198752,335.843553 694.641026,335.843553 L689,335.843553 C687.442274,335.843553 686.179487,337.115125 686.179487,338.683689 C686.179487,340.252254 687.442274,341.523826 689,341.523826 L694.641026,341.523826 Z M694.641026,352.884373 C696.198752,352.884373 697.461538,351.6128 697.461538,350.044236 C697.461538,348.475672 696.198752,347.204099 694.641026,347.204099 L683.358974,347.204099 C681.801248,347.204099 680.538462,348.475672 680.538462,350.044236 C680.538462,351.6128 681.801248,352.884373 683.358974,352.884373 L694.641026,352.884373 Z M674.897436,352.884373 C676.455162,352.884373 677.717949,351.6128 677.717949,350.044236 C677.717949,348.475672 676.455162,347.204099 674.897436,347.204099 L672.076923,347.204099 C670.519197,347.204099 669.25641,348.475672 669.25641,350.044236 C669.25641,351.6128 670.519197,352.884373 672.076923,352.884373 L674.897436,352.884373 Z M674.071327,320.811013 C675.172806,319.70187 675.172806,317.903595 674.071327,316.794453 C672.969848,315.685311 671.183998,315.685311 670.082519,316.794453 C668.981041,317.903595 668.981041,319.70187 670.082519,320.811013 C671.183998,321.920155 672.969848,321.920155 674.071327,320.811013 Z M735.538462,279.04082 C736.706756,279.04082 737.653846,278.08714 737.653846,276.910717 C737.653846,275.734294 736.706756,274.780615 735.538462,274.780615 L718.615385,274.780615 C717.44709,274.780615 716.5,275.734294 716.5,276.910717 C716.5,278.08714 717.44709,279.04082 718.615385,279.04082 L735.538462,279.04082 Z M724.961538,287.56123 C726.129833,287.56123 727.076923,286.60755 727.076923,285.431127 C727.076923,284.254704 726.129833,283.301025 724.961538,283.301025 L718.615385,283.301025 C717.44709,283.301025 716.5,284.254704 716.5,285.431127 C716.5,286.60755 717.44709,287.56123 718.615385,287.56123 L724.961538,287.56123 Z M735.538462,287.56123 C736.706756,287.56123 737.653846,286.60755 737.653846,285.431127 C737.653846,284.254704 736.706756,283.301025 735.538462,283.301025 L731.307692,283.301025 C730.139398,283.301025 729.192308,284.254704 729.192308,285.431127 C729.192308,286.60755 730.139398,287.56123 731.307692,287.56123 L735.538462,287.56123 Z M735.538462,296.08164 C736.706756,296.08164 737.653846,295.12796 737.653846,293.951537 C737.653846,292.775114 736.706756,291.821435 735.538462,291.821435 L727.076923,291.821435 C725.908628,291.821435 724.961538,292.775114 724.961538,293.951537 C724.961538,295.12796 725.908628,296.08164 727.076923,296.08164 L735.538462,296.08164 Z M720.730769,296.08164 C721.899064,296.08164 722.846154,295.12796 722.846154,293.951537 C722.846154,292.775114 721.899064,291.821435 720.730769,291.821435 L718.615385,291.821435 C717.44709,291.821435 716.5,292.775114 716.5,293.951537 C716.5,295.12796 717.44709,296.08164 718.615385,296.08164 L720.730769,296.08164 Z M720.111187,272.02662 C720.937297,271.194763 720.937297,269.846057 720.111187,269.0142 C719.285078,268.182343 717.945691,268.182343 717.119582,269.0142 C716.293473,269.846057 716.293473,271.194763 717.119582,272.02662 C717.945691,272.858477 719.285078,272.858477 720.111187,272.02662 Z M637.519402,451.993711 L637.519402,458.333333 L635,458.333333 L635,442.022013 L637.519402,442.022013 L637.519402,448.757862 C637.879318,448.03878 638.422933,447.473797 639.150264,447.062893 C639.877595,446.65199 640.661151,446.446541 641.500956,446.446541 C642.850642,446.446541 643.941622,446.850101 644.773929,447.657233 C645.606235,448.464365 646.022382,449.63102 646.022382,451.157233 L646.022382,458.333333 L643.502981,458.333333 L643.502981,451.90566 C643.502981,449.748417 642.588207,448.669811 640.758632,448.669811 C639.888835,448.669811 639.131522,448.952303 638.486672,449.517296 C637.841822,450.082288 637.519402,450.907751 637.519402,451.993711 Z M650.757508,463 C649.662762,463 648.673007,462.611115 647.788213,461.833333 L648.93544,459.830189 C649.460318,460.314468 650.003934,460.556604 650.566303,460.556604 C651.128672,460.556604 651.586059,460.358493 651.938477,459.962264 C652.290895,459.566036 652.467102,459.133126 652.467102,458.663522 C652.467102,458.45807 650.855001,454.444484 647.63075,446.622642 L650.330109,446.622642 L653.90676,455.251572 L657.48341,446.622642 L660.182769,446.622642 L654.379147,460.534591 C654.034228,461.297698 653.53935,461.899369 652.8945,462.339623 C652.24965,462.779876 651.537326,463 650.757508,463 Z M672.408615,448.075472 C673.54835,449.161431 674.118209,450.606909 674.118209,452.41195 C674.118209,454.21699 673.5521,455.684481 672.419863,456.814465 C671.287626,457.94445 669.967953,458.509434 668.460803,458.509434 C666.953653,458.509434 665.600238,457.863738 664.400517,456.572327 L664.400517,462.603774 L661.881116,462.603774 L661.881116,446.622642 L664.400517,446.622642 L664.400517,448.669811 C665.390287,447.187624 666.687466,446.446541 668.292093,446.446541 C669.89672,446.446541 671.26888,446.989512 672.408615,448.075472 Z M665.390282,455.240566 C666.080122,455.95231 666.919914,456.308176 667.909684,456.308176 C668.899454,456.308176 669.76174,455.955978 670.49657,455.251572 C671.231399,454.547166 671.598808,453.633653 671.598808,452.511006 C671.598808,451.388359 671.238897,450.456503 670.519064,449.715409 C669.799232,448.974315 668.936945,448.603774 667.932179,448.603774 C666.927412,448.603774 666.080122,448.974315 665.390282,449.715409 C664.700443,450.456503 664.355528,451.38469 664.355528,452.5 C664.355528,453.61531 664.700443,454.528822 665.390282,455.240566 Z M687.851198,453.556604 L678.470926,453.556604 C678.530912,454.407761 678.928313,455.093813 679.663142,455.61478 C680.397972,456.135747 681.237764,456.396226 682.182544,456.396226 C683.682195,456.396226 684.821913,455.933967 685.601732,455.009434 L687.04139,456.550314 C685.75169,457.856401 684.072106,458.509434 682.002587,458.509434 C680.322977,458.509434 678.894581,457.962794 677.717355,456.869497 C676.540128,455.7762 675.951524,454.308709 675.951524,452.466981 C675.951524,450.625253 676.551376,449.161431 677.751097,448.075472 C678.950818,446.989512 680.364218,446.446541 681.99134,446.446541 C683.618461,446.446541 685.001869,446.927144 686.141604,447.888365 C687.281339,448.849586 687.851198,450.173996 687.851198,451.861635 L687.851198,453.556604 Z M678.470926,451.619497 L685.331796,451.619497 C685.331796,450.636263 685.016874,449.880506 684.387021,449.352201 C683.757167,448.823897 682.981109,448.559748 682.058824,448.559748 C681.136538,448.559748 680.307993,448.834903 679.573164,449.38522 C678.838335,449.935537 678.470926,450.680289 678.470926,451.619497 Z M700.864357,448.075472 C702.004092,449.161431 702.573951,450.606909 702.573951,452.41195 C702.573951,454.21699 702.007841,455.684481 700.875605,456.814465 C699.743368,457.94445 698.423694,458.509434 696.916545,458.509434 C695.409395,458.509434 694.05598,457.863738 692.856259,456.572327 L692.856259,458.333333 L690.336858,458.333333 L690.336858,442 L692.856259,442 L692.856259,448.669811 C693.846029,447.187624 695.143208,446.446541 696.747835,446.446541 C698.352462,446.446541 699.724622,446.989512 700.864357,448.075472 Z M693.846024,455.240566 C694.535864,455.95231 695.375656,456.308176 696.365426,456.308176 C697.355196,456.308176 698.217482,455.955978 698.952311,455.251572 C699.68714,454.547166 700.05455,453.633653 700.05455,452.511006 C700.05455,451.388359 699.694639,450.456503 698.974806,449.715409 C698.254973,448.974315 697.392687,448.603774 696.38792,448.603774 C695.383154,448.603774 694.535864,448.974315 693.846024,449.715409 C693.156184,450.456503 692.81127,451.38469 692.81127,452.5 C692.81127,453.61531 693.156184,454.528822 693.846024,455.240566 Z M704.834664,456.858491 C704.834664,456.403562 704.995874,456.018345 705.318299,455.70283 C705.640724,455.387315 706.034377,455.22956 706.499269,455.22956 C706.964161,455.22956 707.361562,455.387315 707.691486,455.70283 C708.021409,456.018345 708.186368,456.403562 708.186368,456.858491 C708.186368,457.313419 708.021409,457.702304 707.691486,458.025157 C707.361562,458.34801 706.964161,458.509434 706.499269,458.509434 C706.034377,458.509434 705.640724,458.34801 705.318299,458.025157 C704.995874,457.702304 704.834664,457.313419 704.834664,456.858491 Z M719.557418,452.962264 L719.557418,446.622642 L722.076819,446.622642 L722.076819,458.333333 L719.557418,458.333333 L719.557418,456.198113 C719.152512,456.917194 718.5939,457.482178 717.881566,457.893082 C717.169231,458.303985 716.400671,458.509434 715.575863,458.509434 C714.226177,458.509434 713.135197,458.105874 712.302891,457.298742 C711.470584,456.49161 711.054437,455.324955 711.054437,453.798742 L711.054437,446.622642 L713.573839,446.622642 L713.573839,453.050314 C713.573839,455.207558 714.488612,456.286164 716.318187,456.286164 C717.187985,456.286164 717.945297,456.003672 718.590147,455.438679 C719.234997,454.873687 719.557418,454.048223 719.557418,452.962264 Z M732.72804,457.507862 C731.903231,458.17558 730.845993,458.509434 729.556293,458.509434 C728.686495,458.509434 727.782969,458.355347 726.845687,458.04717 C725.908405,457.738992 725.07986,457.306082 724.360027,456.748428 L725.574739,454.833333 C726.969414,455.860592 728.31908,456.374214 729.623777,456.374214 C730.193644,456.374214 730.643533,456.245808 730.973456,455.988994 C731.30338,455.732179 731.468339,455.405662 731.468339,455.009434 C731.468339,454.422429 730.673535,453.894132 729.083905,453.424528 C728.963933,453.380503 728.873955,453.351153 728.813969,453.336478 C726.324548,452.676097 725.079856,451.575479 725.079856,450.034591 C725.079856,448.948632 725.510999,448.079144 726.373299,447.426101 C727.235598,446.773058 728.356571,446.446541 729.73625,446.446541 C731.115929,446.446541 732.420606,446.842763 733.650321,447.63522 L732.705545,449.462264 C731.730772,448.831234 730.673533,448.515723 729.533798,448.515723 C728.933938,448.515723 728.446558,448.622116 728.071646,448.834906 C727.696733,449.047695 727.509279,449.366874 727.509279,449.792453 C727.509279,450.174006 727.704231,450.452829 728.09414,450.628931 C728.364077,450.761007 728.742734,450.885744 729.23012,451.003145 C729.717507,451.120546 730.14865,451.237945 730.523563,451.355346 C730.898476,451.472747 731.262136,451.604821 731.614554,451.751572 C731.966972,451.898324 732.345628,452.103772 732.750534,452.367925 C733.560346,452.896229 733.965246,453.718024 733.965246,454.833333 C733.965246,455.948643 733.552848,456.840143 732.72804,457.507862 Z" id="Combined-Shape"></path>
        </g>
    </g>
</svg>